<?xml version="1.0" encoding="UTF-8" standalone="no"?>
<!-- Created with Inkscape (http://www.inkscape.org/) -->

<svg
   xmlns:dc="http://purl.org/dc/elements/1.1/"
   xmlns:cc="http://creativecommons.org/ns#"
   xmlns:rdf="http://www.w3.org/1999/02/22-rdf-syntax-ns#"
   xmlns:svg="http://www.w3.org/2000/svg"
   xmlns="http://www.w3.org/2000/svg"
   xmlns:sodipodi="http://sodipodi.sourceforge.net/DTD/sodipodi-0.dtd"
   xmlns:inkscape="http://www.inkscape.org/namespaces/inkscape"
   width="21.928175mm"
   height="18.604563mm"
   viewBox="0 0 21.928175 18.604563"
   version="1.1"
   id="svg4730"
   inkscape:version="0.92.4 (5da689c313, 2019-01-14)"
   sodipodi:docname="CGNS_empty.svg">
  <defs
     id="defs4724" />
  <sodipodi:namedview
     id="base"
     pagecolor="#ffffff"
     bordercolor="#666666"
     borderopacity="1.0"
     inkscape:pageopacity="0.0"
     inkscape:pageshadow="2"
     inkscape:zoom="0.79285915"
     inkscape:cx="391.76024"
     inkscape:cy="-486.9699"
     inkscape:document-units="mm"
     inkscape:current-layer="g3502"
     showgrid="false"
     inkscape:window-width="1920"
     inkscape:window-height="1057"
     inkscape:window-x="-8"
     inkscape:window-y="-5"
     inkscape:window-maximized="1" />
  <metadata
     id="metadata4727">
    <rdf:RDF>
      <cc:Work
         rdf:about="">
        <dc:format>image/svg+xml</dc:format>
        <dc:type
           rdf:resource="http://purl.org/dc/dcmitype/StillImage" />
        <dc:title></dc:title>
      </cc:Work>
    </rdf:RDF>
  </metadata>
  <g
     inkscape:label="Calque 1"
     inkscape:groupmode="layer"
     id="layer1"
     transform="translate(-1.3467703,-1.0513171)">
    <g
       id="g3502"
       transform="matrix(0.66476862,0,0,0.66476862,-75.176998,-228.32771)">
      <g
         transform="matrix(0.12055942,0,0,0.12055942,110.65913,299.00507)"
         id="g7102">
        <path
           id="path7104"
           d="m 240.19964,613.53293 c -67.02981,-8.70577 -125.8851,-39.21126 -176.04939,-91.24875 -4.81767,-4.99757 -8.490677,-9.35521 -8.162236,-9.68366 0.328441,-0.32844 4.33542,2.09866 8.904397,5.39356 10.005155,7.21517 24.754387,16.52681 34.307231,21.65921 6.635238,3.56487 6.840128,3.61255 3.931948,0.91489 -1.68743,-1.56527 -7.987435,-6.87454 -14.000004,-11.79838 C 83.119017,523.84597 72.235519,513.73281 64.946036,506.29612 53.10217,494.21308 49.674242,489.9143 50.903011,488.68553 c 0.21229,-0.21229 5.990877,3.67438 12.841306,8.63705 15.768329,11.42309 30.187515,20.14743 47.678473,28.8479 14.41433,7.17009 35.94269,15.45623 42.77685,16.46457 3.19252,0.47104 1.69017,-0.53029 -7.44219,-4.96029 -12.15656,-5.89699 -25.33639,-13.48797 -33.55781,-19.32775 -33.397537,-23.72269 -62.008635,-54.80462 -71.144771,-77.28879 -2.383917,-5.86686 -3.628394,-14.03785 -5.022021,-32.97361 -0.546563,-7.42637 1.490337,-12.93702 6.501551,-17.58934 16.634023,-15.44275 60.226771,-9.61767 108.165241,14.45359 28.31027,14.21539 38.61112,19.87021 49.40259,27.12039 5.44642,3.65914 12.04909,8.02262 14.6726,9.69662 8.50232,5.42514 19.01448,14.69454 40.46777,35.68359 29.25937,28.62621 43.17081,46.98236 50.61248,66.78319 3.06847,8.16458 3.20528,9.1719 3.57363,26.3128 0.31782,14.78925 0.0954,18.68908 -1.30645,22.90974 -3.11652,9.38297 -13.06025,16.82954 -26.22184,19.63677 -4.87892,1.04062 -35.63803,1.35827 -42.70078,0.44097 z m 40.72669,-19.77096 c 12.64599,-2.67996 21.6904,-8.53658 25.88723,-16.76304 4.73455,-9.28049 3.07576,-24.34837 -4.41053,-40.06373 -8.34806,-17.5244 -18.40838,-30.31131 -43.49017,-55.277 -22.90485,-22.79884 -33.54487,-31.95332 -50.71322,-43.63271 -12.62645,-8.5896 -19.71962,-12.68532 -50.06013,-28.90562 -29.49288,-15.76715 -57.02856,-24.47385 -80.939868,-25.59296 -18.35789,-0.8592 -29.814986,2.78527 -35.870416,11.41027 -7.629844,10.8675 -2.82251,28.63493 13.669654,50.52168 8.229869,10.92186 30.038172,32.82592 42.298407,42.48413 36.689973,28.90317 78.769153,46.3008 111.902353,46.266 14.69423,-0.0154 22.91995,-2.59442 29.18867,-9.15144 4.04429,-4.2303 5.31133,-7.62449 5.31133,-14.22821 0,-13.85391 -9.57692,-29.39118 -26.19078,-42.49104 -24.61454,-19.40831 -63.28262,-41.22472 -81.80922,-46.1565 -20.75246,-5.5243 -34,-1.25645 -34,10.9535 0,5.76652 5.3167,17.25725 9.98815,21.58693 l 3.23681,3 -2.96612,-6 c -5.22716,-10.57374 -5.04114,-16.00986 0.64854,-18.9521 6.2151,-3.21396 16.37851,-1.68708 31.09262,4.67113 20.3383,8.78852 43.60023,29.6164 49.93025,44.70572 1.81481,4.32609 2.19785,6.80235 1.89134,12.22683 -0.34603,6.1239 -0.7209,7.14932 -3.75983,10.2847 -8.51163,8.78177 -25.08129,8.8418 -45.10735,0.16341 -21.61002,-9.36481 -48.727597,-33.01297 -56.652126,-49.40407 -3.3305,-6.88881 -3.762518,-8.69953 -4.120726,-17.27121 -0.343745,-8.2256 -0.106879,-10.15047 1.68012,-13.65327 8.218441,-16.10948 30.472402,-17.38187 66.207342,-3.78548 14.8168,5.63748 22.11332,9.23497 31.22567,15.39558 3.75747,2.54032 11.60516,7.59368 17.43932,11.2297 13.61943,8.48803 37.26599,26.79509 37.26599,28.85117 0,0.40037 2.93439,4.06018 6.52088,8.13291 8.85766,10.05859 12.92126,19.95317 12.89768,31.40498 -0.0233,11.32381 -3.63775,17.8094 -13.65233,24.49713 -9.83015,6.56457 -27.28415,10.99878 -43.30424,11.0015 -40.92841,0.007 -89.58009,-18.04625 -135.291594,-50.20275 -6.231284,-4.3835 -11.549919,-7.74969 -11.819189,-7.48042 -0.914749,0.91475 19.097167,20.93069 31.148795,31.15505 47.435408,40.24328 96.611898,62.55721 152.999998,69.42405 11.59019,1.41143 34.30362,1.21829 41.72669,-0.35482 z m -30.10254,-59.4745 c 2.81404,-2.91952 5.26161,-6.62076 5.99342,-9.06332 1.13174,-3.77741 1.02033,-4.56973 -1.3098,-9.31525 -2.60191,-5.29902 -10.64394,-16.18383 -11.39915,-15.42862 -0.23003,0.23003 0.0286,2.77466 0.57484,5.65473 0.6411,3.38053 0.65387,6.71635 0.036,9.41185 -0.65366,2.85172 -0.58561,6.00256 0.21465,9.93913 0.84951,4.17883 0.87913,6.85991 0.10772,9.75 -1.43638,5.38142 -0.10909,5.1637 5.7823,-0.94852 z m -82.62415,-5.59871 c -1.65,-0.77306 -6.825,-2.86662 -11.5,-4.65236 -4.675,-1.78573 -14.06299,-6.09896 -20.86221,-9.58494 -6.79921,-3.48598 -12.56459,-6.13576 -12.81195,-5.8884 -0.55919,0.55919 14.66807,10.6761 20.4003,13.55383 6.41581,3.22092 21.39222,8.06969 24.77386,8.0208 l 3,-0.0434 -3,-1.40556 z m 18.23538,-21.30673 c 2.32945,-1.20204 4.95427,-3.2827 5.83292,-4.6237 2.56118,-3.90884 1.98991,-4.89385 -12.40148,-21.38326 -4.88923,-5.602 -15.50497,-13.51946 -25.66682,-19.14289 -3.3,-1.82618 -6.675,-3.86712 -7.5,-4.53544 -3.45855,-2.80171 -17.50045,-6.47451 -24.75341,-6.47451 -8.96229,0 -9.10878,0.64291 -2.20021,9.65654 2.77551,3.62122 4.81276,6.81765 4.52722,7.10319 -0.76777,0.76778 -7.27788,-4.44073 -9.77929,-7.82407 -2.9228,-3.9533 -4.79431,-3.78802 -4.79431,0.42342 0,3.10357 2.89222,9.83718 7.36236,17.14092 1.19745,1.9565 0.14939,1.2039 -3.01312,-2.16369 -7.44402,-7.92673 -10.83156,-15.31396 -10.93054,-23.83631 -0.0919,-7.91572 -2.06491,-16.42701 -3.978071,-17.16116 -2.049927,-0.78663 -6.322562,2.60356 -8.965964,7.11418 -2.860604,4.88125 -2.550766,6.82432 2.671184,16.75163 5.543081,10.53781 25.677381,29.21096 42.270171,39.20262 6.90755,4.15951 19.10708,9.41325 26.08398,11.23311 7.44199,1.94116 20.03625,1.20225 25.23538,-1.48058 z m -25.15793,-59.07422 c -2.15232,-2.37828 -21.02413,-11.71729 -27.94832,-13.83066 -7.6439,-2.33303 -18.8535,-2.25486 -21.51829,0.15007 -1.16096,1.04774 -2.11084,2.66082 -2.11084,3.58463 0,1.4697 0.9874,1.62248 7.89976,1.22233 11.26738,-0.65226 23.29962,2.16587 37.60024,8.80653 2.2,1.0216 4.85724,1.88537 5.90499,1.91949 1.81345,0.0591 1.82174,-0.03 0.17246,-1.85239 z"
           style="fill:#d6d6d5"
           inkscape:connector-curvature="0" />
        <path
           id="path7106"
           d="m 239.19964,594.11679 c -32.06537,-3.90486 -61.39375,-12.77564 -90.44508,-27.35636 -22.57211,-11.32883 -40.6619,-23.49408 -62.554918,-42.06769 -12.051628,-10.22436 -32.063544,-30.2403 -31.148795,-31.15505 0.26927,-0.26927 5.587905,3.09692 11.819189,7.48042 30.919163,21.75059 65.511494,38.18941 95.164364,45.22361 11.3099,2.68291 29.82947,4.98089 40.12723,4.97914 16.02009,-0.003 33.47409,-4.43693 43.30424,-11.0015 10.01458,-6.68773 13.62902,-13.17332 13.65233,-24.49713 0.0236,-11.45181 -4.04002,-21.34639 -12.89768,-31.40498 -3.58649,-4.07273 -6.52088,-7.73254 -6.52088,-8.13291 0,-2.05608 -23.64656,-20.36314 -37.26599,-28.85117 -5.83416,-3.63602 -13.68185,-8.68938 -17.43932,-11.2297 -9.11235,-6.16061 -16.40887,-9.7581 -31.22567,-15.39558 -35.73494,-13.59639 -57.988901,-12.324 -66.207342,3.78548 -1.786999,3.5028 -2.023865,5.42767 -1.68012,13.65327 0.358208,8.57168 0.790226,10.3824 4.120726,17.27121 2.684451,5.55252 5.993231,10.09653 11.881436,16.31701 23.06941,24.37124 50.19076,39.48737 70.84824,39.48737 8.46941,0 14.7765,-2.17543 19.0298,-6.56372 3.03893,-3.13538 3.4138,-4.1608 3.75983,-10.2847 0.30651,-5.42448 -0.0765,-7.90074 -1.89134,-12.22683 -6.33002,-15.08932 -29.59195,-35.9172 -49.93025,-44.70572 -14.71411,-6.35821 -24.87752,-7.88509 -31.09262,-4.67113 -5.68968,2.94224 -5.8757,8.37836 -0.64854,18.9521 l 2.96612,6 -3.23681,-3 c -1.78025,-1.65 -4.75586,-6.13731 -6.61248,-9.97179 -5.563707,-11.49076 -4.29843,-18.90482 3.96263,-23.2195 4.6058,-2.40557 16.24759,-2.12137 26.6617,0.65086 24.07789,6.40953 78.3698,39.58153 93.98182,57.42226 6.2349,7.12496 9.0452,11.79286 11.76425,19.54038 2.41406,6.87846 2.91575,15.19216 1.1926,19.76269 -1.32798,3.52234 -6.48886,8.98853 -10.43867,11.05619 -11.77866,6.16596 -34.2837,5.69866 -57.85559,-1.20132 C 147.35471,520.86167 122.10031,507.48201 97.297287,487.94299 85.037052,478.28478 63.228749,456.38072 54.99888,445.45886 38.506716,423.57211 33.699382,405.80468 41.329226,394.93718 c 6.05543,-8.625 17.512526,-12.26947 35.870416,-11.41027 23.911308,1.11911 51.446988,9.82581 80.939868,25.59296 30.34051,16.2203 37.43368,20.31602 50.06013,28.90562 17.16835,11.67939 27.80837,20.83387 50.71322,43.63271 25.08179,24.96569 35.14211,37.7526 43.49017,55.277 14.48651,30.41035 6.7648,50.84179 -21.4767,56.82677 -7.42307,1.57311 -30.1365,1.76625 -41.72669,0.35482 z"
           style="fill:#fcc927"
           inkscape:connector-curvature="0" />
      </g>
    </g>
  </g>
</svg>
