<svg xmlns="http://www.w3.org/2000/svg" width="1100" height="750" style="background-color:white;">
<defs><style>.n-txt { font-family: "Segoe UI", Arial, sans-serif; font-size: 8px; font-weight: bold; text-anchor: middle; dominant-baseline: central; fill: #333; pointer-events: none; }.title { font-family: "Segoe UI", Arial, sans-serif; font-size: 24px; font-weight: bold; fill: #333; }.leg-txt { font-family: "Segoe UI", Arial, sans-serif; font-size: 13px; fill: #555; }.e-vis { stroke: #444; stroke-width: 1.5; stroke-linecap: round; stroke-linejoin: round; }.e-hid { stroke: #bbb; stroke-width: 1.5; stroke-dasharray: 4,3; }</style></defs>
<text x="40" y="50" class="title">PENTA_66 (Order 4 Serendipity)</text>
<line x1="105.91" y1="650.00" x2="397.08" y2="520.01" class="e-hid" />
<line x1="397.08" y1="520.01" x2="744.09" y2="629.08" class="e-hid" />
<line x1="397.08" y1="520.01" x2="397.08" y2="100.00" class="e-hid" />
<line x1="744.09" y1="629.08" x2="105.91" y2="650.00" class="e-vis" />
<line x1="744.09" y1="209.08" x2="105.91" y2="229.99" class="e-vis" />
<line x1="105.91" y1="229.99" x2="397.08" y2="100.00" class="e-vis" />
<line x1="397.08" y1="100.00" x2="744.09" y2="209.08" class="e-vis" />
<line x1="744.09" y1="629.08" x2="744.09" y2="209.08" class="e-vis" />
<line x1="105.91" y1="650.00" x2="105.91" y2="229.99" class="e-vis" />
<circle cx="397.08" cy="520.01" r="9" fill="#FF6B6B" stroke="#222" stroke-width="1"/>
<text x="397.08" y="520.0069805361393" class="n-txt">3</text>
<circle cx="397.08" cy="415.01" r="9" fill="#FFD93D" stroke="#222" stroke-width="1"/>
<text x="397.08" y="415.00523540210446" class="n-txt">31</text>
<circle cx="483.84" cy="547.28" r="9" fill="#FFD93D" stroke="#222" stroke-width="1"/>
<text x="483.84" y="547.2762542080759" class="n-txt">13</text>
<circle cx="324.29" cy="552.51" r="9" fill="#FFD93D" stroke="#222" stroke-width="1"/>
<text x="324.29" y="552.5052354021044" class="n-txt">12</text>
<circle cx="397.08" cy="310.00" r="9" fill="#FFD93D" stroke="#222" stroke-width="1"/>
<text x="397.08" y="310.00349026806964" class="n-txt">32</text>
<circle cx="483.84" cy="442.27" r="9" fill="#9BF6FF" stroke="#222" stroke-width="1"/>
<text x="483.84" y="442.2745090740411" class="n-txt">52</text>
<circle cx="324.29" cy="447.50" r="9" fill="#BDB2FF" stroke="#222" stroke-width="1"/>
<text x="324.29" y="447.50349026806964" class="n-txt">49</text>
<circle cx="397.08" cy="205.00" r="9" fill="#FFD93D" stroke="#222" stroke-width="1"/>
<text x="397.08" y="205.00174513403476" class="n-txt">33</text>
<circle cx="570.59" cy="574.55" r="9" fill="#FFD93D" stroke="#222" stroke-width="1"/>
<text x="570.59" y="574.5455278800125" class="n-txt">14</text>
<circle cx="411.04" cy="579.77" r="9" fill="#FDFFB6" stroke="#222" stroke-width="1"/>
<text x="411.04" y="579.7745090740411" class="n-txt">62</text>
<circle cx="483.84" cy="337.27" r="9" fill="#9BF6FF" stroke="#222" stroke-width="1"/>
<text x="483.84" y="337.27276394000626" class="n-txt">53</text>
<circle cx="251.49" cy="585.00" r="9" fill="#FFD93D" stroke="#222" stroke-width="1"/>
<text x="251.49" y="585.0034902680696" class="n-txt">11</text>
<circle cx="324.29" cy="342.50" r="9" fill="#BDB2FF" stroke="#222" stroke-width="1"/>
<text x="324.29" y="342.50174513403476" class="n-txt">50</text>
<circle cx="397.08" cy="100.00" r="9" fill="#FF6B6B" stroke="#222" stroke-width="1"/>
<text x="397.08" y="99.99999999999994" class="n-txt">6</text>
<circle cx="570.59" cy="469.54" r="9" fill="#9BF6FF" stroke="#222" stroke-width="1"/>
<text x="570.59" y="469.5437827459777" class="n-txt">55</text>
<circle cx="483.84" cy="232.27" r="9" fill="#9BF6FF" stroke="#222" stroke-width="1"/>
<text x="483.84" y="232.27101880597138" class="n-txt">54</text>
<circle cx="657.34" cy="601.81" r="9" fill="#FFD93D" stroke="#222" stroke-width="1"/>
<text x="657.34" y="601.8148015519491" class="n-txt">15</text>
<circle cx="251.49" cy="480.00" r="9" fill="#BDB2FF" stroke="#222" stroke-width="1"/>
<text x="251.49" y="480.00174513403476" class="n-txt">46</text>
<circle cx="324.29" cy="237.50" r="9" fill="#BDB2FF" stroke="#222" stroke-width="1"/>
<text x="324.29" y="237.49999999999994" class="n-txt">51</text>
<circle cx="497.79" cy="607.04" r="9" fill="#FDFFB6" stroke="#222" stroke-width="1"/>
<text x="497.79" y="607.0437827459778" class="n-txt">61</text>
<circle cx="570.59" cy="364.54" r="9" fill="#9BF6FF" stroke="#222" stroke-width="1"/>
<text x="570.59" y="364.5420376119429" class="n-txt">56</text>
<circle cx="338.25" cy="612.27" r="9" fill="#FDFFB6" stroke="#222" stroke-width="1"/>
<text x="338.25" y="612.2727639400063" class="n-txt">63</text>
<circle cx="483.84" cy="127.27" r="9" fill="#FFD93D" stroke="#222" stroke-width="1"/>
<text x="483.84" y="127.26927367193656" class="n-txt">22</text>
<circle cx="178.70" cy="617.50" r="9" fill="#FFD93D" stroke="#222" stroke-width="1"/>
<text x="178.70" y="617.5017451340348" class="n-txt">10</text>
<circle cx="657.34" cy="496.81" r="9" fill="#9BF6FF" stroke="#222" stroke-width="1"/>
<text x="657.34" y="496.8130564179143" class="n-txt">58</text>
<circle cx="251.49" cy="375.00" r="9" fill="#BDB2FF" stroke="#222" stroke-width="1"/>
<text x="251.49" y="375.0" class="n-txt">47</text>
<circle cx="324.29" cy="132.50" r="9" fill="#FFD93D" stroke="#222" stroke-width="1"/>
<text x="324.29" y="132.49825486596512" class="n-txt">21</text>
<circle cx="570.59" cy="259.54" r="9" fill="#9BF6FF" stroke="#222" stroke-width="1"/>
<text x="570.59" y="259.54029247790805" class="n-txt">57</text>
<circle cx="744.09" cy="629.08" r="9" fill="#FF6B6B" stroke="#222" stroke-width="1"/>
<text x="744.09" y="629.0840752238857" class="n-txt">1</text>
<circle cx="584.55" cy="634.31" r="9" fill="#FFD93D" stroke="#222" stroke-width="1"/>
<text x="584.55" y="634.3130564179143" class="n-txt">7</text>
<circle cx="178.70" cy="512.50" r="9" fill="#BDB2FF" stroke="#222" stroke-width="1"/>
<text x="178.70" y="512.5" class="n-txt">43</text>
<circle cx="657.34" cy="391.81" r="9" fill="#9BF6FF" stroke="#222" stroke-width="1"/>
<text x="657.34" y="391.8113112838795" class="n-txt">59</text>
<circle cx="251.49" cy="270.00" r="9" fill="#BDB2FF" stroke="#222" stroke-width="1"/>
<text x="251.49" y="269.9982548659651" class="n-txt">48</text>
<circle cx="425.00" cy="639.54" r="9" fill="#FFD93D" stroke="#222" stroke-width="1"/>
<text x="425.00" y="639.5420376119429" class="n-txt">8</text>
<circle cx="570.59" cy="154.54" r="9" fill="#FFD93D" stroke="#222" stroke-width="1"/>
<text x="570.59" y="154.53854734387323" class="n-txt">23</text>
<circle cx="265.45" cy="644.77" r="9" fill="#FFD93D" stroke="#222" stroke-width="1"/>
<text x="265.45" y="644.7710188059714" class="n-txt">9</text>
<circle cx="744.09" cy="524.08" r="9" fill="#FFD93D" stroke="#222" stroke-width="1"/>
<text x="744.09" y="524.082330089851" class="n-txt">25</text>
<circle cx="411.04" cy="159.77" r="9" fill="#FDFFB6" stroke="#222" stroke-width="1"/>
<text x="411.04" y="159.76752853790174" class="n-txt">66</text>
<circle cx="105.91" cy="650.00" r="9" fill="#FF6B6B" stroke="#222" stroke-width="1"/>
<text x="105.91" y="650.0" class="n-txt">2</text>
<circle cx="584.55" cy="529.31" r="9" fill="#A0C4FF" stroke="#222" stroke-width="1"/>
<text x="584.55" y="529.3113112838795" class="n-txt">34</text>
<circle cx="178.70" cy="407.50" r="9" fill="#BDB2FF" stroke="#222" stroke-width="1"/>
<text x="178.70" y="407.4982548659651" class="n-txt">44</text>
<circle cx="657.34" cy="286.81" r="9" fill="#9BF6FF" stroke="#222" stroke-width="1"/>
<text x="657.34" y="286.8095661498446" class="n-txt">60</text>
<circle cx="251.49" cy="165.00" r="9" fill="#FFD93D" stroke="#222" stroke-width="1"/>
<text x="251.49" y="164.9965097319303" class="n-txt">20</text>
<circle cx="425.00" cy="534.54" r="9" fill="#A0C4FF" stroke="#222" stroke-width="1"/>
<text x="425.00" y="534.540292477908" class="n-txt">37</text>
<circle cx="265.45" cy="539.77" r="9" fill="#A0C4FF" stroke="#222" stroke-width="1"/>
<text x="265.45" y="539.7692736719366" class="n-txt">40</text>
<circle cx="744.09" cy="419.08" r="9" fill="#FFD93D" stroke="#222" stroke-width="1"/>
<text x="744.09" y="419.0805849558161" class="n-txt">26</text>
<circle cx="105.91" cy="545.00" r="9" fill="#FFD93D" stroke="#222" stroke-width="1"/>
<text x="105.91" y="544.9982548659651" class="n-txt">28</text>
<circle cx="584.55" cy="424.31" r="9" fill="#A0C4FF" stroke="#222" stroke-width="1"/>
<text x="584.55" y="424.3095661498446" class="n-txt">35</text>
<circle cx="178.70" cy="302.50" r="9" fill="#BDB2FF" stroke="#222" stroke-width="1"/>
<text x="178.70" y="302.49650973193036" class="n-txt">45</text>
<circle cx="657.34" cy="181.81" r="9" fill="#FFD93D" stroke="#222" stroke-width="1"/>
<text x="657.34" y="181.80782101580985" class="n-txt">24</text>
<circle cx="425.00" cy="429.54" r="9" fill="#A0C4FF" stroke="#222" stroke-width="1"/>
<text x="425.00" y="429.53854734387323" class="n-txt">38</text>
<circle cx="497.79" cy="187.04" r="9" fill="#FDFFB6" stroke="#222" stroke-width="1"/>
<text x="497.79" y="187.03680220983836" class="n-txt">64</text>
<circle cx="265.45" cy="434.77" r="9" fill="#A0C4FF" stroke="#222" stroke-width="1"/>
<text x="265.45" y="434.76752853790174" class="n-txt">41</text>
<circle cx="744.09" cy="314.08" r="9" fill="#FFD93D" stroke="#222" stroke-width="1"/>
<text x="744.09" y="314.07883982178123" class="n-txt">27</text>
<circle cx="338.25" cy="192.27" r="9" fill="#FDFFB6" stroke="#222" stroke-width="1"/>
<text x="338.25" y="192.26578340386692" class="n-txt">65</text>
<circle cx="105.91" cy="440.00" r="9" fill="#FFD93D" stroke="#222" stroke-width="1"/>
<text x="105.91" y="439.9965097319303" class="n-txt">29</text>
<circle cx="584.55" cy="319.31" r="9" fill="#A0C4FF" stroke="#222" stroke-width="1"/>
<text x="584.55" y="319.3078210158098" class="n-txt">36</text>
<circle cx="178.70" cy="197.49" r="9" fill="#FFD93D" stroke="#222" stroke-width="1"/>
<text x="178.70" y="197.49476459789548" class="n-txt">19</text>
<circle cx="425.00" cy="324.54" r="9" fill="#A0C4FF" stroke="#222" stroke-width="1"/>
<text x="425.00" y="324.53680220983836" class="n-txt">39</text>
<circle cx="265.45" cy="329.77" r="9" fill="#A0C4FF" stroke="#222" stroke-width="1"/>
<text x="265.45" y="329.7657834038669" class="n-txt">42</text>
<circle cx="744.09" cy="209.08" r="9" fill="#FF6B6B" stroke="#222" stroke-width="1"/>
<text x="744.09" y="209.0770946877464" class="n-txt">4</text>
<circle cx="105.91" cy="334.99" r="9" fill="#FFD93D" stroke="#222" stroke-width="1"/>
<text x="105.91" y="334.9947645978955" class="n-txt">30</text>
<circle cx="584.55" cy="214.31" r="9" fill="#FFD93D" stroke="#222" stroke-width="1"/>
<text x="584.55" y="214.30607588177497" class="n-txt">16</text>
<circle cx="425.00" cy="219.54" r="9" fill="#FFD93D" stroke="#222" stroke-width="1"/>
<text x="425.00" y="219.53505707580354" class="n-txt">17</text>
<circle cx="265.45" cy="224.76" r="9" fill="#FFD93D" stroke="#222" stroke-width="1"/>
<text x="265.45" y="224.7640382698321" class="n-txt">18</text>
<circle cx="105.91" cy="229.99" r="9" fill="#FF6B6B" stroke="#222" stroke-width="1"/>
<text x="105.91" y="229.99301946386066" class="n-txt">5</text>
<rect x="870" y="80" width="230" height="320" fill="#f8f9fa" stroke="#ddd" rx="8"/><text x="890" y="110" font-family="Segoe UI" font-weight="bold" font-size="14" fill="#333">Key</text>
<circle cx="900" cy="140" r="8" fill="#FF6B6B" stroke="#333" stroke-width="1"/><text x="920" y="144" class="leg-txt">Vertex (Corners)</text>
<circle cx="900" cy="170" r="8" fill="#FFD93D" stroke="#333" stroke-width="1"/><text x="920" y="174" class="leg-txt">Edge Interior (3/edge)</text>
<circle cx="900" cy="200" r="8" fill="#A0C4FF" stroke="#333" stroke-width="1"/><text x="920" y="204" class="leg-txt">Front Face (3x3 grid)</text>
<circle cx="900" cy="230" r="8" fill="#BDB2FF" stroke="#333" stroke-width="1"/><text x="920" y="234" class="leg-txt">Side Left (3x3 grid)</text>
<circle cx="900" cy="260" r="8" fill="#9BF6FF" stroke="#333" stroke-width="1"/><text x="920" y="264" class="leg-txt">Side Right (3x3 grid)</text>
<circle cx="900" cy="290" r="8" fill="#FDFFB6" stroke="#333" stroke-width="1"/><text x="920" y="294" class="leg-txt">Top/Bottom (3 nodes)</text>
<text x="920" y="340" font-weight="bold" font-size="12" fill="#555">No Volume Nodes</text>
</svg>