<svg xmlns="http://www.w3.org/2000/svg" width="1100" height="750" style="background-color:white;">
<defs><style>.n-txt { font-family: "Segoe UI", Arial, sans-serif; font-size: 10px; font-weight: bold; text-anchor: middle; dominant-baseline: central; fill: #333; pointer-events: none; }.title { font-family: "Segoe UI", Arial, sans-serif; font-size: 24px; font-weight: bold; fill: #333; }.leg-txt { font-family: "Segoe UI", Arial, sans-serif; font-size: 13px; fill: #555; }.e-vis { stroke: #444; stroke-width: 2.0; stroke-linecap: round; stroke-linejoin: round; }.e-hid { stroke: #bbb; stroke-width: 1.5; stroke-dasharray: 4,3; }</style></defs>
<text x="40" y="50" class="title">PENTA_40 (Order 3)</text>
<line x1="105.91" y1="650.00" x2="397.08" y2="520.01" class="e-hid" />
<line x1="397.08" y1="520.01" x2="744.09" y2="629.08" class="e-hid" />
<line x1="397.08" y1="520.01" x2="397.08" y2="100.00" class="e-hid" />
<line x1="744.09" y1="629.08" x2="105.91" y2="650.00" class="e-vis" />
<line x1="744.09" y1="209.08" x2="105.91" y2="229.99" class="e-vis" />
<line x1="105.91" y1="229.99" x2="397.08" y2="100.00" class="e-vis" />
<line x1="397.08" y1="100.00" x2="744.09" y2="209.08" class="e-vis" />
<line x1="744.09" y1="629.08" x2="744.09" y2="209.08" class="e-vis" />
<line x1="105.91" y1="650.00" x2="105.91" y2="229.99" class="e-vis" />
<circle cx="397.08" cy="520.01" r="11" fill="#FF6B6B" stroke="#444" stroke-width="1.5"/>
<text x="397.08" y="520.0069805361393" class="n-txt">3</text>
<circle cx="397.08" cy="380.00" r="11" fill="#FFD93D" stroke="#444" stroke-width="1.5"/>
<text x="397.08" y="380.0046536907595" class="n-txt">23</text>
<circle cx="512.75" cy="556.37" r="11" fill="#FFD93D" stroke="#444" stroke-width="1.5"/>
<text x="512.75" y="556.3660120987214" class="n-txt">11</text>
<circle cx="300.02" cy="563.34" r="11" fill="#FFD93D" stroke="#444" stroke-width="1.5"/>
<text x="300.02" y="563.3379870240929" class="n-txt">10</text>
<circle cx="397.08" cy="240.00" r="11" fill="#FFD93D" stroke="#444" stroke-width="1.5"/>
<text x="397.08" y="240.00232684537974" class="n-txt">24</text>
<circle cx="512.75" cy="416.36" r="11" fill="#9BF6FF" stroke="#222" stroke-width="1.5"/>
<text x="512.75" y="416.36368525334166" class="n-txt">33</text>
<circle cx="300.02" cy="423.34" r="11" fill="#BDB2FF" stroke="#222" stroke-width="1.5"/>
<text x="300.02" y="423.33566017871306" class="n-txt">31</text>
<circle cx="397.08" cy="100.00" r="11" fill="#FF6B6B" stroke="#444" stroke-width="1.5"/>
<text x="397.08" y="99.99999999999994" class="n-txt">6</text>
<circle cx="628.42" cy="592.73" r="11" fill="#FFD93D" stroke="#444" stroke-width="1.5"/>
<text x="628.42" y="592.7250436613036" class="n-txt">12</text>
<circle cx="415.69" cy="599.70" r="11" fill="#FDFFB6" stroke="#222" stroke-width="1.5"/>
<text x="415.69" y="599.697018586675" class="n-txt">37</text>
<circle cx="512.75" cy="276.36" r="11" fill="#9BF6FF" stroke="#222" stroke-width="1.5"/>
<text x="512.75" y="276.36135840796186" class="n-txt">34</text>
<circle cx="202.96" cy="606.67" r="11" fill="#FFD93D" stroke="#444" stroke-width="1.5"/>
<text x="202.96" y="606.6689935120464" class="n-txt">9</text>
<circle cx="300.02" cy="283.33" r="11" fill="#BDB2FF" stroke="#222" stroke-width="1.5"/>
<text x="300.02" y="283.33333333333326" class="n-txt">32</text>
<circle cx="628.42" cy="452.72" r="11" fill="#9BF6FF" stroke="#222" stroke-width="1.5"/>
<text x="628.42" y="452.72271681592383" class="n-txt">35</text>
<circle cx="415.69" cy="461.09" r="11" fill="#6BCB77" stroke="#444" stroke-width="1.5"/>
<text x="415.69" y="461.094715009749" class="n-txt">39</text>
<circle cx="512.75" cy="136.36" r="11" fill="#FFD93D" stroke="#444" stroke-width="1.5"/>
<text x="512.75" y="136.35903156258212" class="n-txt">17</text>
<circle cx="744.09" cy="629.08" r="11" fill="#FF6B6B" stroke="#444" stroke-width="1.5"/>
<text x="744.09" y="629.0840752238857" class="n-txt">1</text>
<circle cx="202.96" cy="466.67" r="11" fill="#BDB2FF" stroke="#222" stroke-width="1.5"/>
<text x="202.96" y="466.66666666666663" class="n-txt">29</text>
<circle cx="300.02" cy="143.33" r="11" fill="#FFD93D" stroke="#444" stroke-width="1.5"/>
<text x="300.02" y="143.33100648795352" class="n-txt">16</text>
<circle cx="531.36" cy="636.06" r="11" fill="#FFD93D" stroke="#444" stroke-width="1.5"/>
<text x="531.36" y="636.0560501492572" class="n-txt">7</text>
<circle cx="628.42" cy="312.72" r="11" fill="#9BF6FF" stroke="#222" stroke-width="1.5"/>
<text x="628.42" y="312.72038997054403" class="n-txt">36</text>
<circle cx="318.64" cy="643.03" r="11" fill="#FFD93D" stroke="#444" stroke-width="1.5"/>
<text x="318.64" y="643.0280250746285" class="n-txt">8</text>
<circle cx="415.69" cy="322.49" r="11" fill="#6BCB77" stroke="#444" stroke-width="1.5"/>
<text x="415.69" y="322.492411432823" class="n-txt">40</text>
<circle cx="105.91" cy="650.00" r="11" fill="#FF6B6B" stroke="#444" stroke-width="1.5"/>
<text x="105.91" y="650.0" class="n-txt">2</text>
<circle cx="744.09" cy="489.08" r="11" fill="#FFD93D" stroke="#444" stroke-width="1.5"/>
<text x="744.09" y="489.081748378506" class="n-txt">19</text>
<circle cx="202.96" cy="326.66" r="11" fill="#BDB2FF" stroke="#222" stroke-width="1.5"/>
<text x="202.96" y="326.66433982128683" class="n-txt">30</text>
<circle cx="531.36" cy="496.05" r="11" fill="#A0C4FF" stroke="#222" stroke-width="1.5"/>
<text x="531.36" y="496.0537233038774" class="n-txt">25</text>
<circle cx="628.42" cy="172.72" r="11" fill="#FFD93D" stroke="#444" stroke-width="1.5"/>
<text x="628.42" y="172.7180631251643" class="n-txt">18</text>
<circle cx="318.64" cy="503.03" r="11" fill="#A0C4FF" stroke="#222" stroke-width="1.5"/>
<text x="318.64" y="503.0256982292488" class="n-txt">27</text>
<circle cx="415.69" cy="179.69" r="11" fill="#FDFFB6" stroke="#222" stroke-width="1.5"/>
<text x="415.69" y="179.6900380505357" class="n-txt">38</text>
<circle cx="105.91" cy="510.00" r="11" fill="#FFD93D" stroke="#444" stroke-width="1.5"/>
<text x="105.91" y="509.9976731546202" class="n-txt">21</text>
<circle cx="744.09" cy="349.08" r="11" fill="#FFD93D" stroke="#444" stroke-width="1.5"/>
<text x="744.09" y="349.0794215331262" class="n-txt">20</text>
<circle cx="202.96" cy="186.66" r="11" fill="#FFD93D" stroke="#444" stroke-width="1.5"/>
<text x="202.96" y="186.6620129759071" class="n-txt">15</text>
<circle cx="531.36" cy="356.05" r="11" fill="#A0C4FF" stroke="#222" stroke-width="1.5"/>
<text x="531.36" y="356.05139645849755" class="n-txt">26</text>
<circle cx="318.64" cy="363.02" r="11" fill="#A0C4FF" stroke="#222" stroke-width="1.5"/>
<text x="318.64" y="363.023371383869" class="n-txt">28</text>
<circle cx="105.91" cy="370.00" r="11" fill="#FFD93D" stroke="#444" stroke-width="1.5"/>
<text x="105.91" y="369.9953463092404" class="n-txt">22</text>
<circle cx="744.09" cy="209.08" r="11" fill="#FF6B6B" stroke="#444" stroke-width="1.5"/>
<text x="744.09" y="209.0770946877464" class="n-txt">4</text>
<circle cx="531.36" cy="216.05" r="11" fill="#FFD93D" stroke="#444" stroke-width="1.5"/>
<text x="531.36" y="216.0490696131178" class="n-txt">13</text>
<circle cx="318.64" cy="223.02" r="11" fill="#FFD93D" stroke="#444" stroke-width="1.5"/>
<text x="318.64" y="223.02104453848926" class="n-txt">14</text>
<circle cx="105.91" cy="229.99" r="11" fill="#FF6B6B" stroke="#444" stroke-width="1.5"/>
<text x="105.91" y="229.99301946386066" class="n-txt">5</text>
<rect x="870" y="80" width="230" height="350" fill="#f8f9fa" stroke="#ddd" rx="8"/><text x="890" y="110" font-family="Segoe UI" font-weight="bold" font-size="14" fill="#333">Standard Types</text>
<circle cx="900" cy="140" r="8" fill="#FF6B6B" stroke="#333" stroke-width="1"/><text x="920" y="144" class="leg-txt">Vertex</text>
<circle cx="900" cy="170" r="8" fill="#FFD93D" stroke="#333" stroke-width="1"/><text x="920" y="174" class="leg-txt">Edge Interior</text>
<circle cx="900" cy="200" r="8" fill="#6BCB77" stroke="#333" stroke-width="1"/><text x="920" y="204" class="leg-txt">Volume Interior</text>
<text x="890" y="240" font-family="Segoe UI" font-weight="bold" font-size="14" fill="#333">Face Groups</text>
<circle cx="900" cy="270" r="8" fill="#A0C4FF" stroke="#333" stroke-width="1"/><text x="920" y="274" class="leg-txt">Front Face</text>
<circle cx="900" cy="300" r="8" fill="#BDB2FF" stroke="#333" stroke-width="1"/><text x="920" y="304" class="leg-txt">Side Left</text>
<circle cx="900" cy="330" r="8" fill="#9BF6FF" stroke="#333" stroke-width="1"/><text x="920" y="334" class="leg-txt">Side Right</text>
<circle cx="900" cy="360" r="8" fill="#FDFFB6" stroke="#333" stroke-width="1"/><text x="920" y="364" class="leg-txt">Top/Bottom</text>
</svg>