<svg xmlns="http://www.w3.org/2000/svg" width="1100" height="750" style="background-color:white;">
<defs><style>.n-txt { font-family: "Segoe UI", Arial, sans-serif; font-size: 10px; font-weight: bold; text-anchor: middle; dominant-baseline: central; fill: #333; pointer-events: none; }.title { font-family: "Segoe UI", Arial, sans-serif; font-size: 24px; font-weight: bold; fill: #333; }.leg-txt { font-family: "Segoe UI", Arial, sans-serif; font-size: 13px; fill: #555; }.e-vis { stroke: #444; stroke-width: 2.0; stroke-linecap: round; stroke-linejoin: round; }.e-hid { stroke: #bbb; stroke-width: 1.5; stroke-dasharray: 4,3; }</style></defs>
<text x="40" y="50" class="title">PYRA_30 (Order 3)</text>
<line x1="100.00" y1="298.96" x2="543.29" y2="166.09" class="e-hid" />
<line x1="543.29" y1="166.09" x2="750.00" y2="451.04" class="e-hid" />
<line x1="543.29" y1="166.09" x2="425.00" y2="187.66" class="e-hid" />
<line x1="750.00" y1="451.04" x2="306.71" y2="583.91" class="e-vis" />
<line x1="306.71" y1="583.91" x2="100.00" y2="298.96" class="e-vis" />
<line x1="100.00" y1="298.96" x2="425.00" y2="187.66" class="e-vis" />
<line x1="750.00" y1="451.04" x2="425.00" y2="187.66" class="e-vis" />
<line x1="306.71" y1="583.91" x2="425.00" y2="187.66" class="e-vis" />
<circle cx="543.29" cy="166.09" r="11" fill="#FF6B6B" stroke="#444" stroke-width="1.5"/>
<text x="543.29" y="166.09402685187476" class="n-txt">2</text>
<circle cx="395.53" cy="210.38" r="11" fill="#FFD93D" stroke="#444" stroke-width="1.5"/>
<text x="395.53" y="210.3841659058058" class="n-txt">7</text>
<circle cx="247.76" cy="254.67" r="11" fill="#FFD93D" stroke="#444" stroke-width="1.5"/>
<text x="247.76" y="254.67430495973682" class="n-txt">6</text>
<circle cx="612.19" cy="261.07" r="11" fill="#FFD93D" stroke="#444" stroke-width="1.5"/>
<text x="612.19" y="261.07453656336054" class="n-txt">8</text>
<circle cx="503.86" cy="173.28" r="11" fill="#FFD93D" stroke="#444" stroke-width="1.5"/>
<text x="503.86" y="173.28182220848913" class="n-txt">16</text>
<circle cx="100.00" cy="298.96" r="11" fill="#FF6B6B" stroke="#444" stroke-width="1.5"/>
<text x="100.00" y="298.96444401366784" class="n-txt">1</text>
<circle cx="464.04" cy="306.06" r="11" fill="#FDFFB6" stroke="#222" stroke-width="1.5"/>
<text x="464.04" y="306.06102886111864" class="n-txt">25</text>
<circle cx="356.10" cy="217.57" r="11" fill="#BDB2FF" stroke="#222" stroke-width="1.5"/>
<text x="356.10" y="217.5719612624202" class="n-txt">26</text>
<circle cx="317.75" cy="349.91" r="11" fill="#FDFFB6" stroke="#222" stroke-width="1.5"/>
<text x="317.75" y="349.9082665245104" class="n-txt">23</text>
<circle cx="681.10" cy="356.06" r="11" fill="#FFD93D" stroke="#444" stroke-width="1.5"/>
<text x="681.10" y="356.05504627484635" class="n-txt">9</text>
<circle cx="208.33" cy="261.86" r="11" fill="#FFD93D" stroke="#444" stroke-width="1.5"/>
<text x="208.33" y="261.86210031635125" class="n-txt">14</text>
<circle cx="572.76" cy="268.26" r="11" fill="#BDB2FF" stroke="#222" stroke-width="1.5"/>
<text x="572.76" y="268.26233191997494" class="n-txt">27</text>
<circle cx="464.43" cy="180.47" r="11" fill="#FFD93D" stroke="#444" stroke-width="1.5"/>
<text x="464.43" y="180.46961756510356" class="n-txt">17</text>
<circle cx="168.90" cy="393.94" r="11" fill="#FFD93D" stroke="#444" stroke-width="1.5"/>
<text x="168.90" y="393.94495372515365" class="n-txt">13</text>
<circle cx="532.25" cy="400.09" r="11" fill="#FDFFB6" stroke="#222" stroke-width="1.5"/>
<text x="532.25" y="400.0917334754896" class="n-txt">24</text>
<circle cx="425.00" cy="328.16" r="11" fill="#6BCB77" stroke="#444" stroke-width="1.5"/>
<text x="425.00" y="328.16435323042947" class="n-txt">30</text>
<circle cx="316.67" cy="224.76" r="11" fill="#FFD93D" stroke="#444" stroke-width="1.5"/>
<text x="316.67" y="224.7597566190346" class="n-txt">15</text>
<circle cx="385.96" cy="443.94" r="11" fill="#FDFFB6" stroke="#222" stroke-width="1.5"/>
<text x="385.96" y="443.93897113888136" class="n-txt">22</text>
<circle cx="750.00" cy="451.04" r="11" fill="#FF6B6B" stroke="#444" stroke-width="1.5"/>
<text x="750.00" y="451.03555598633216" class="n-txt">3</text>
<circle cx="277.24" cy="356.84" r="11" fill="#A0C4FF" stroke="#222" stroke-width="1.5"/>
<text x="277.24" y="356.84261002783705" class="n-txt">29</text>
<circle cx="641.67" cy="363.24" r="11" fill="#FFD93D" stroke="#444" stroke-width="1.5"/>
<text x="641.67" y="363.24284163146075" class="n-txt">18</text>
<circle cx="533.33" cy="275.45" r="11" fill="#FFD93D" stroke="#444" stroke-width="1.5"/>
<text x="533.33" y="275.45012727658934" class="n-txt">19</text>
<circle cx="237.81" cy="488.93" r="11" fill="#FFD93D" stroke="#444" stroke-width="1.5"/>
<text x="237.81" y="488.92546343663946" class="n-txt">12</text>
<circle cx="602.24" cy="495.33" r="11" fill="#FFD93D" stroke="#444" stroke-width="1.5"/>
<text x="602.24" y="495.3256950402632" class="n-txt">10</text>
<circle cx="425.00" cy="187.66" r="11" fill="#FF6B6B" stroke="#444" stroke-width="1.5"/>
<text x="425.00" y="187.65741292171796" class="n-txt">5</text>
<circle cx="493.90" cy="407.53" r="11" fill="#9BF6FF" stroke="#222" stroke-width="1.5"/>
<text x="493.90" y="407.5329806853918" class="n-txt">28</text>
<circle cx="385.57" cy="319.74" r="11" fill="#FFD93D" stroke="#444" stroke-width="1.5"/>
<text x="385.57" y="319.7402663305204" class="n-txt">21</text>
<circle cx="454.47" cy="539.62" r="11" fill="#FFD93D" stroke="#444" stroke-width="1.5"/>
<text x="454.47" y="539.6158340941943" class="n-txt">11</text>
<circle cx="346.14" cy="451.82" r="11" fill="#FFD93D" stroke="#444" stroke-width="1.5"/>
<text x="346.14" y="451.82311973932286" class="n-txt">20</text>
<circle cx="306.71" cy="583.91" r="11" fill="#FF6B6B" stroke="#444" stroke-width="1.5"/>
<text x="306.71" y="583.9059731481252" class="n-txt">4</text>
<rect x="870" y="80" width="230" height="350" fill="#f8f9fa" stroke="#ddd" rx="8"/><text x="890" y="110" font-family="Segoe UI" font-weight="bold" font-size="14" fill="#333">Standard Types</text>
<circle cx="900" cy="140" r="8" fill="#FF6B6B" stroke="#333" stroke-width="1"/><text x="920" y="144" class="leg-txt">Vertex</text>
<circle cx="900" cy="170" r="8" fill="#FFD93D" stroke="#333" stroke-width="1"/><text x="920" y="174" class="leg-txt">Edge Interior</text>
<circle cx="900" cy="200" r="8" fill="#6BCB77" stroke="#333" stroke-width="1"/><text x="920" y="204" class="leg-txt">Volume Interior</text>
<text x="890" y="240" font-family="Segoe UI" font-weight="bold" font-size="14" fill="#333">Face Groups</text>
<circle cx="900" cy="270" r="8" fill="#FDFFB6" stroke="#333" stroke-width="1"/><text x="920" y="274" class="leg-txt">Base Face</text>
<circle cx="900" cy="300" r="8" fill="#A0C4FF" stroke="#333" stroke-width="1"/><text x="920" y="304" class="leg-txt">Side Front</text>
<circle cx="900" cy="330" r="8" fill="#BDB2FF" stroke="#333" stroke-width="1"/><text x="920" y="334" class="leg-txt">Side Back</text>
</svg>