<?xml version="1.0" encoding="utf-8" standalone="no"?>
<!DOCTYPE svg PUBLIC "-//W3C//DTD SVG 1.1//EN"
  "http://www.w3.org/Graphics/SVG/1.1/DTD/svg11.dtd">
<svg xmlns:xlink="http://www.w3.org/1999/xlink" width="460.8pt" height="266.558383pt" viewBox="0 0 460.8 266.558383" xmlns="http://www.w3.org/2000/svg" version="1.1">
 <metadata>
  <rdf:RDF xmlns:dc="http://purl.org/dc/elements/1.1/" xmlns:cc="http://creativecommons.org/ns#" xmlns:rdf="http://www.w3.org/1999/02/22-rdf-syntax-ns#">
   <cc:Work>
    <dc:type rdf:resource="http://purl.org/dc/dcmitype/StillImage"/>
    <dc:date>2025-12-15T16:00:31.770370</dc:date>
    <dc:format>image/svg+xml</dc:format>
    <dc:creator>
     <cc:Agent>
      <dc:title>Matplotlib v3.10.8, https://matplotlib.org/</dc:title>
     </cc:Agent>
    </dc:creator>
   </cc:Work>
  </rdf:RDF>
 </metadata>
 <defs>
  <style type="text/css">*{stroke-linejoin: round; stroke-linecap: butt}</style>
 </defs>
 <g id="figure_1">
  <g id="patch_1">
   <path d="M 0 266.558383 
L 460.8 266.558383 
L 460.8 0 
L 0 0 
z
" style="fill: #ffffff"/>
  </g>
  <g id="patch_2">
   <path d="M 7.2 248.334545 
L 210.109091 248.334545 
L 210.109091 45.425455 
L 7.2 45.425455 
z
" style="fill: #ffffff"/>
  </g>
  <g id="pane3d_1">
   <g id="patch_3">
    <path d="M 22.521036 198.303666 
L 89.528244 142.136895 
L 88.59678 61.134371 
L 18.382931 112.37324 
" style="fill: #f2f2f2; opacity: 0.5; stroke: #f2f2f2; stroke-linejoin: miter"/>
   </g>
  </g>
  <g id="pane3d_2">
   <g id="patch_4">
    <path d="M 89.528244 142.136895 
L 197.050906 173.389488 
L 200.88801 89.596925 
L 88.59678 61.134371 
" style="fill: #e6e6e6; opacity: 0.5; stroke: #e6e6e6; stroke-linejoin: miter"/>
   </g>
  </g>
  <g id="pane3d_3">
   <g id="patch_5">
    <path d="M 22.521036 198.303666 
L 136.500308 235.529297 
L 197.050906 173.389488 
L 89.528244 142.136895 
" style="fill: #ececec; opacity: 0.5; stroke: #ececec; stroke-linejoin: miter"/>
   </g>
  </g>
  <g id="grid3d_1">
   <g id="Line3DCollection_1">
    <path d="M 29.424219 200.558246 
L 96.067443 144.037582 
L 95.412461 62.861948 
" style="fill: none; stroke: #b0b0b0; stroke-width: 0.8"/>
    <path d="M 48.593211 206.818839 
L 114.207353 149.310138 
L 114.328496 67.656611 
" style="fill: none; stroke: #b0b0b0; stroke-width: 0.8"/>
    <path d="M 68.113416 213.194138 
L 132.651925 154.671247 
L 133.57604 72.535302 
" style="fill: none; stroke: #b0b0b0; stroke-width: 0.8"/>
    <path d="M 87.994574 219.687324 
L 151.408898 160.123158 
L 153.163885 77.50025 
" style="fill: none; stroke: #b0b0b0; stroke-width: 0.8"/>
    <path d="M 108.24679 226.301698 
L 170.486278 165.6682 
L 173.101136 82.553762 
" style="fill: none; stroke: #b0b0b0; stroke-width: 0.8"/>
    <path d="M 128.880552 233.040684 
L 189.892345 171.308777 
L 193.397226 87.698229 
" style="fill: none; stroke: #b0b0b0; stroke-width: 0.8"/>
   </g>
  </g>
  <g id="grid3d_2">
   <g id="Line3DCollection_2">
    <path d="M 23.238393 108.829945 
L 27.138399 194.433301 
L 140.689941 231.229703 
" style="fill: none; stroke: #b0b0b0; stroke-width: 0.8"/>
    <path d="M 36.267252 99.322077 
L 39.540331 184.037756 
L 151.930385 219.694242 
" style="fill: none; stroke: #b0b0b0; stroke-width: 0.8"/>
    <path d="M 48.888248 90.111849 
L 51.570685 173.953674 
L 162.816493 208.522417 
" style="fill: none; stroke: #b0b0b0; stroke-width: 0.8"/>
    <path d="M 61.120237 81.185501 
L 63.245915 164.167265 
L 173.36476 197.6973 
" style="fill: none; stroke: #b0b0b0; stroke-width: 0.8"/>
    <path d="M 72.98093 72.530107 
L 74.581516 154.66554 
L 183.590672 187.202999 
" style="fill: none; stroke: #b0b0b0; stroke-width: 0.8"/>
    <path d="M 84.486982 64.133515 
L 85.592094 145.436254 
L 193.508784 177.024577 
" style="fill: none; stroke: #b0b0b0; stroke-width: 0.8"/>
   </g>
  </g>
  <g id="grid3d_3">
   <g id="Line3DCollection_3">
    <path d="M 197.285255 168.271901 
L 89.471243 137.179893 
L 22.268703 193.063812 
" style="fill: none; stroke: #b0b0b0; stroke-width: 0.8"/>
    <path d="M 197.934673 154.090259 
L 89.313359 123.449941 
L 21.569177 178.537715 
" style="fill: none; stroke: #b0b0b0; stroke-width: 0.8"/>
    <path d="M 198.593987 139.692525 
L 89.153185 109.520817 
L 20.858585 163.781796 
" style="fill: none; stroke: #b0b0b0; stroke-width: 0.8"/>
    <path d="M 199.263425 125.073719 
L 88.990671 95.388156 
L 20.13666 148.790557 
" style="fill: none; stroke: #b0b0b0; stroke-width: 0.8"/>
    <path d="M 199.943221 110.228713 
L 88.825765 81.047463 
L 19.40313 133.558325 
" style="fill: none; stroke: #b0b0b0; stroke-width: 0.8"/>
    <path d="M 200.633618 95.152214 
L 88.658413 66.49411 
L 18.657712 118.079241 
" style="fill: none; stroke: #b0b0b0; stroke-width: 0.8"/>
   </g>
  </g>
  <g id="axis3d_1">
   <g id="line2d_1">
    <path d="M 22.521036 198.303666 
L 136.500308 235.529297 
" style="fill: none; stroke: #000000; stroke-width: 0.8; stroke-linecap: square"/>
   </g>
   <g id="xtick_1">
    <g id="line2d_2">
     <path d="M 30.004544 200.066067 
L 28.261077 201.544715 
" style="fill: none; stroke: #000000; stroke-width: 0.8; stroke-linecap: square"/>
    </g>
    <g id="text_1">
     <!-- 0.0 -->
     <g transform="translate(13.934879 223.885607) scale(0.1 -0.1)">
      <defs>
       <path id="DejaVuSans-30" d="M 2034 4250 
Q 1547 4250 1301 3770 
Q 1056 3291 1056 2328 
Q 1056 1369 1301 889 
Q 1547 409 2034 409 
Q 2525 409 2770 889 
Q 3016 1369 3016 2328 
Q 3016 3291 2770 3770 
Q 2525 4250 2034 4250 
z
M 2034 4750 
Q 2819 4750 3233 4129 
Q 3647 3509 3647 2328 
Q 3647 1150 3233 529 
Q 2819 -91 2034 -91 
Q 1250 -91 836 529 
Q 422 1150 422 2328 
Q 422 3509 836 4129 
Q 1250 4750 2034 4750 
z
" transform="scale(0.015625)"/>
       <path id="DejaVuSans-2e" d="M 684 794 
L 1344 794 
L 1344 0 
L 684 0 
L 684 794 
z
" transform="scale(0.015625)"/>
      </defs>
      <use xlink:href="#DejaVuSans-30"/>
      <use xlink:href="#DejaVuSans-2e" transform="translate(63.623047 0)"/>
      <use xlink:href="#DejaVuSans-30" transform="translate(95.410156 0)"/>
     </g>
    </g>
   </g>
   <g id="xtick_2">
    <g id="line2d_3">
     <path d="M 49.164997 206.317687 
L 47.447164 207.823313 
" style="fill: none; stroke: #000000; stroke-width: 0.8; stroke-linecap: square"/>
    </g>
    <g id="text_2">
     <!-- 0.2 -->
     <g transform="translate(33.129521 230.320522) scale(0.1 -0.1)">
      <defs>
       <path id="DejaVuSans-32" d="M 1228 531 
L 3431 531 
L 3431 0 
L 469 0 
L 469 531 
Q 828 903 1448 1529 
Q 2069 2156 2228 2338 
Q 2531 2678 2651 2914 
Q 2772 3150 2772 3378 
Q 2772 3750 2511 3984 
Q 2250 4219 1831 4219 
Q 1534 4219 1204 4116 
Q 875 4013 500 3803 
L 500 4441 
Q 881 4594 1212 4672 
Q 1544 4750 1819 4750 
Q 2544 4750 2975 4387 
Q 3406 4025 3406 3419 
Q 3406 3131 3298 2873 
Q 3191 2616 2906 2266 
Q 2828 2175 2409 1742 
Q 1991 1309 1228 531 
z
" transform="scale(0.015625)"/>
      </defs>
      <use xlink:href="#DejaVuSans-30"/>
      <use xlink:href="#DejaVuSans-2e" transform="translate(63.623047 0)"/>
      <use xlink:href="#DejaVuSans-32" transform="translate(95.410156 0)"/>
     </g>
    </g>
   </g>
   <g id="xtick_3">
    <g id="line2d_4">
     <path d="M 68.67625 212.683765 
L 66.985288 214.217113 
" style="fill: none; stroke: #000000; stroke-width: 0.8; stroke-linecap: square"/>
    </g>
    <g id="text_3">
     <!-- 0.4 -->
     <g transform="translate(52.677594 236.873923) scale(0.1 -0.1)">
      <defs>
       <path id="DejaVuSans-34" d="M 2419 4116 
L 825 1625 
L 2419 1625 
L 2419 4116 
z
M 2253 4666 
L 3047 4666 
L 3047 1625 
L 3713 1625 
L 3713 1100 
L 3047 1100 
L 3047 0 
L 2419 0 
L 2419 1100 
L 313 1100 
L 313 1709 
L 2253 4666 
z
" transform="scale(0.015625)"/>
      </defs>
      <use xlink:href="#DejaVuSans-30"/>
      <use xlink:href="#DejaVuSans-2e" transform="translate(63.623047 0)"/>
      <use xlink:href="#DejaVuSans-34" transform="translate(95.410156 0)"/>
     </g>
    </g>
   </g>
   <g id="xtick_4">
    <g id="line2d_5">
     <path d="M 88.548026 219.167474 
L 86.885228 220.729317 
" style="fill: none; stroke: #000000; stroke-width: 0.8; stroke-linecap: square"/>
    </g>
    <g id="text_4">
     <!-- 0.6 -->
     <g transform="translate(72.588948 243.549113) scale(0.1 -0.1)">
      <defs>
       <path id="DejaVuSans-36" d="M 2113 2584 
Q 1688 2584 1439 2293 
Q 1191 2003 1191 1497 
Q 1191 994 1439 701 
Q 1688 409 2113 409 
Q 2538 409 2786 701 
Q 3034 994 3034 1497 
Q 3034 2003 2786 2293 
Q 2538 2584 2113 2584 
z
M 3366 4563 
L 3366 3988 
Q 3128 4100 2886 4159 
Q 2644 4219 2406 4219 
Q 1781 4219 1451 3797 
Q 1122 3375 1075 2522 
Q 1259 2794 1537 2939 
Q 1816 3084 2150 3084 
Q 2853 3084 3261 2657 
Q 3669 2231 3669 1497 
Q 3669 778 3244 343 
Q 2819 -91 2113 -91 
Q 1303 -91 875 529 
Q 447 1150 447 2328 
Q 447 3434 972 4092 
Q 1497 4750 2381 4750 
Q 2619 4750 2861 4703 
Q 3103 4656 3366 4563 
z
" transform="scale(0.015625)"/>
      </defs>
      <use xlink:href="#DejaVuSans-30"/>
      <use xlink:href="#DejaVuSans-2e" transform="translate(63.623047 0)"/>
      <use xlink:href="#DejaVuSans-36" transform="translate(95.410156 0)"/>
     </g>
    </g>
   </g>
   <g id="xtick_5">
    <g id="line2d_6">
     <path d="M 108.790412 225.772104 
L 107.157128 227.363244 
" style="fill: none; stroke: #000000; stroke-width: 0.8; stroke-linecap: square"/>
    </g>
    <g id="text_5">
     <!-- 0.8 -->
     <g transform="translate(92.873807 250.349518) scale(0.1 -0.1)">
      <defs>
       <path id="DejaVuSans-38" d="M 2034 2216 
Q 1584 2216 1326 1975 
Q 1069 1734 1069 1313 
Q 1069 891 1326 650 
Q 1584 409 2034 409 
Q 2484 409 2743 651 
Q 3003 894 3003 1313 
Q 3003 1734 2745 1975 
Q 2488 2216 2034 2216 
z
M 1403 2484 
Q 997 2584 770 2862 
Q 544 3141 544 3541 
Q 544 4100 942 4425 
Q 1341 4750 2034 4750 
Q 2731 4750 3128 4425 
Q 3525 4100 3525 3541 
Q 3525 3141 3298 2862 
Q 3072 2584 2669 2484 
Q 3125 2378 3379 2068 
Q 3634 1759 3634 1313 
Q 3634 634 3220 271 
Q 2806 -91 2034 -91 
Q 1263 -91 848 271 
Q 434 634 434 1313 
Q 434 1759 690 2068 
Q 947 2378 1403 2484 
z
M 1172 3481 
Q 1172 3119 1398 2916 
Q 1625 2713 2034 2713 
Q 2441 2713 2670 2916 
Q 2900 3119 2900 3481 
Q 2900 3844 2670 4047 
Q 2441 4250 2034 4250 
Q 1625 4250 1398 4047 
Q 1172 3844 1172 3481 
z
" transform="scale(0.015625)"/>
      </defs>
      <use xlink:href="#DejaVuSans-30"/>
      <use xlink:href="#DejaVuSans-2e" transform="translate(63.623047 0)"/>
      <use xlink:href="#DejaVuSans-38" transform="translate(95.410156 0)"/>
     </g>
    </g>
   </g>
   <g id="xtick_6">
    <g id="line2d_7">
     <path d="M 129.413872 232.501069 
L 127.811515 234.122338 
" style="fill: none; stroke: #000000; stroke-width: 0.8; stroke-linecap: square"/>
    </g>
    <g id="text_6">
     <!-- 1.0 -->
     <g transform="translate(113.542779 257.278695) scale(0.1 -0.1)">
      <defs>
       <path id="DejaVuSans-31" d="M 794 531 
L 1825 531 
L 1825 4091 
L 703 3866 
L 703 4441 
L 1819 4666 
L 2450 4666 
L 2450 531 
L 3481 531 
L 3481 0 
L 794 0 
L 794 531 
z
" transform="scale(0.015625)"/>
      </defs>
      <use xlink:href="#DejaVuSans-31"/>
      <use xlink:href="#DejaVuSans-2e" transform="translate(63.623047 0)"/>
      <use xlink:href="#DejaVuSans-30" transform="translate(95.410156 0)"/>
     </g>
    </g>
   </g>
   <g id="text_7">
    <!-- u -->
    <g transform="translate(58.505798 254.548675) scale(0.1 -0.1)">
     <defs>
      <path id="DejaVuSans-75" d="M 544 1381 
L 544 3500 
L 1119 3500 
L 1119 1403 
Q 1119 906 1312 657 
Q 1506 409 1894 409 
Q 2359 409 2629 706 
Q 2900 1003 2900 1516 
L 2900 3500 
L 3475 3500 
L 3475 0 
L 2900 0 
L 2900 538 
Q 2691 219 2414 64 
Q 2138 -91 1772 -91 
Q 1169 -91 856 284 
Q 544 659 544 1381 
z
M 1991 3584 
L 1991 3584 
z
" transform="scale(0.015625)"/>
     </defs>
     <use xlink:href="#DejaVuSans-75"/>
    </g>
   </g>
  </g>
  <g id="axis3d_2">
   <g id="line2d_8">
    <path d="M 197.050906 173.389488 
L 136.500308 235.529297 
" style="fill: none; stroke: #000000; stroke-width: 0.8; stroke-linecap: square"/>
   </g>
   <g id="xtick_7">
    <g id="line2d_9">
     <path d="M 139.733039 230.919618 
L 142.60622 231.850673 
" style="fill: none; stroke: #000000; stroke-width: 0.8; stroke-linecap: square"/>
    </g>
    <g id="text_8">
     <!-- 0.0 -->
     <g transform="translate(145.621415 252.253937) scale(0.1 -0.1)">
      <use xlink:href="#DejaVuSans-30"/>
      <use xlink:href="#DejaVuSans-2e" transform="translate(63.623047 0)"/>
      <use xlink:href="#DejaVuSans-30" transform="translate(95.410156 0)"/>
     </g>
    </g>
   </g>
   <g id="xtick_8">
    <g id="line2d_10">
     <path d="M 150.984039 219.394007 
L 153.825486 220.295475 
" style="fill: none; stroke: #000000; stroke-width: 0.8; stroke-linecap: square"/>
    </g>
    <g id="text_9">
     <!-- 0.2 -->
     <g transform="translate(156.664077 240.494393) scale(0.1 -0.1)">
      <use xlink:href="#DejaVuSans-30"/>
      <use xlink:href="#DejaVuSans-2e" transform="translate(63.623047 0)"/>
      <use xlink:href="#DejaVuSans-32" transform="translate(95.410156 0)"/>
     </g>
    </g>
   </g>
   <g id="xtick_9">
    <g id="line2d_11">
     <path d="M 161.880518 208.23157 
L 164.690787 209.104839 
" style="fill: none; stroke: #000000; stroke-width: 0.8; stroke-linecap: square"/>
    </g>
    <g id="text_10">
     <!-- 0.4 -->
     <g transform="translate(167.358373 229.105831) scale(0.1 -0.1)">
      <use xlink:href="#DejaVuSans-30"/>
      <use xlink:href="#DejaVuSans-2e" transform="translate(63.623047 0)"/>
      <use xlink:href="#DejaVuSans-34" transform="translate(95.410156 0)"/>
     </g>
    </g>
   </g>
   <g id="xtick_10">
    <g id="line2d_12">
     <path d="M 172.438973 197.415408 
L 175.218616 198.26178 
" style="fill: none; stroke: #000000; stroke-width: 0.8; stroke-linecap: square"/>
    </g>
    <g id="text_11">
     <!-- 0.6 -->
     <g transform="translate(177.720532 218.070968) scale(0.1 -0.1)">
      <use xlink:href="#DejaVuSans-30"/>
      <use xlink:href="#DejaVuSans-2e" transform="translate(63.623047 0)"/>
      <use xlink:href="#DejaVuSans-36" transform="translate(95.410156 0)"/>
     </g>
    </g>
   </g>
   <g id="xtick_11">
    <g id="line2d_13">
     <path d="M 182.674893 186.929654 
L 185.424454 187.750353 
" style="fill: none; stroke: #000000; stroke-width: 0.8; stroke-linecap: square"/>
    </g>
    <g id="text_12">
     <!-- 0.8 -->
     <g transform="translate(187.76579 207.37358) scale(0.1 -0.1)">
      <use xlink:href="#DejaVuSans-30"/>
      <use xlink:href="#DejaVuSans-2e" transform="translate(63.623047 0)"/>
      <use xlink:href="#DejaVuSans-38" transform="translate(95.410156 0)"/>
     </g>
    </g>
   </g>
   <g id="xtick_12">
    <g id="line2d_14">
     <path d="M 192.602833 176.759396 
L 195.322852 177.555573 
" style="fill: none; stroke: #000000; stroke-width: 0.8; stroke-linecap: square"/>
    </g>
    <g id="text_13">
     <!-- 1.0 -->
     <g transform="translate(197.508465 196.998416) scale(0.1 -0.1)">
      <use xlink:href="#DejaVuSans-31"/>
      <use xlink:href="#DejaVuSans-2e" transform="translate(63.623047 0)"/>
      <use xlink:href="#DejaVuSans-30" transform="translate(95.410156 0)"/>
     </g>
    </g>
   </g>
   <g id="text_14">
    <!-- v -->
    <g transform="translate(192.152244 233.850111) scale(0.1 -0.1)">
     <defs>
      <path id="DejaVuSans-76" d="M 191 3500 
L 800 3500 
L 1894 563 
L 2988 3500 
L 3597 3500 
L 2284 0 
L 1503 0 
L 191 3500 
z
" transform="scale(0.015625)"/>
     </defs>
     <use xlink:href="#DejaVuSans-76"/>
    </g>
   </g>
  </g>
  <g id="axis3d_3">
   <g id="line2d_15">
    <path d="M 197.050906 173.389488 
L 200.88801 89.596925 
" style="fill: none; stroke: #000000; stroke-width: 0.8; stroke-linecap: square"/>
   </g>
   <g id="xtick_13">
    <g id="line2d_16">
     <path d="M 196.380282 168.01092 
L 199.097358 168.794485 
" style="fill: none; stroke: #000000; stroke-width: 0.8; stroke-linecap: square"/>
    </g>
    <g id="text_15">
     <!-- 0.0 -->
     <g transform="translate(207.614067 173.280838) scale(0.1 -0.1)">
      <use xlink:href="#DejaVuSans-30"/>
      <use xlink:href="#DejaVuSans-2e" transform="translate(63.623047 0)"/>
      <use xlink:href="#DejaVuSans-30" transform="translate(95.410156 0)"/>
     </g>
    </g>
   </g>
   <g id="xtick_14">
    <g id="line2d_17">
     <path d="M 197.022601 153.832978 
L 199.761009 154.605439 
" style="fill: none; stroke: #000000; stroke-width: 0.8; stroke-linecap: square"/>
    </g>
    <g id="text_16">
     <!-- 0.2 -->
     <g transform="translate(208.39858 159.135979) scale(0.1 -0.1)">
      <use xlink:href="#DejaVuSans-30"/>
      <use xlink:href="#DejaVuSans-2e" transform="translate(63.623047 0)"/>
      <use xlink:href="#DejaVuSans-32" transform="translate(95.410156 0)"/>
     </g>
    </g>
   </g>
   <g id="xtick_15">
    <g id="line2d_18">
     <path d="M 197.674704 139.439087 
L 200.434781 140.200012 
" style="fill: none; stroke: #000000; stroke-width: 0.8; stroke-linecap: square"/>
    </g>
    <g id="text_17">
     <!-- 0.4 -->
     <g transform="translate(209.195 144.776449) scale(0.1 -0.1)">
      <use xlink:href="#DejaVuSans-30"/>
      <use xlink:href="#DejaVuSans-2e" transform="translate(63.623047 0)"/>
      <use xlink:href="#DejaVuSans-34" transform="translate(95.410156 0)"/>
     </g>
    </g>
   </g>
   <g id="xtick_16">
    <g id="line2d_19">
     <path d="M 198.336814 124.824275 
L 201.118907 125.573217 
" style="fill: none; stroke: #000000; stroke-width: 0.8; stroke-linecap: square"/>
    </g>
    <g id="text_18">
     <!-- 0.6 -->
     <g transform="translate(210.003599 130.197324) scale(0.1 -0.1)">
      <use xlink:href="#DejaVuSans-30"/>
      <use xlink:href="#DejaVuSans-2e" transform="translate(63.623047 0)"/>
      <use xlink:href="#DejaVuSans-36" transform="translate(95.410156 0)"/>
     </g>
    </g>
   </g>
   <g id="xtick_17">
    <g id="line2d_20">
     <path d="M 199.009166 109.983415 
L 201.813627 110.719912 
" style="fill: none; stroke: #000000; stroke-width: 0.8; stroke-linecap: square"/>
    </g>
    <g id="text_19">
     <!-- 0.8 -->
     <g transform="translate(210.824659 115.393527) scale(0.1 -0.1)">
      <use xlink:href="#DejaVuSans-30"/>
      <use xlink:href="#DejaVuSans-2e" transform="translate(63.623047 0)"/>
      <use xlink:href="#DejaVuSans-38" transform="translate(95.410156 0)"/>
     </g>
    </g>
   </g>
   <g id="xtick_18">
    <g id="line2d_21">
     <path d="M 199.691998 94.911223 
L 202.519189 95.634793 
" style="fill: none; stroke: #000000; stroke-width: 0.8; stroke-linecap: square"/>
    </g>
    <g id="text_20">
     <!-- 1.0 -->
     <g transform="translate(211.65847 100.359825) scale(0.1 -0.1)">
      <use xlink:href="#DejaVuSans-31"/>
      <use xlink:href="#DejaVuSans-2e" transform="translate(63.623047 0)"/>
      <use xlink:href="#DejaVuSans-30" transform="translate(95.410156 0)"/>
     </g>
    </g>
   </g>
   <g id="text_21">
    <!-- w -->
    <g transform="translate(235.130877 129.772275) scale(0.1 -0.1)">
     <defs>
      <path id="DejaVuSans-77" d="M 269 3500 
L 844 3500 
L 1563 769 
L 2278 3500 
L 2956 3500 
L 3675 769 
L 4391 3500 
L 4966 3500 
L 4050 0 
L 3372 0 
L 2619 2869 
L 1863 0 
L 1184 0 
L 269 3500 
z
" transform="scale(0.015625)"/>
     </defs>
     <use xlink:href="#DejaVuSans-77"/>
    </g>
   </g>
  </g>
  <g id="axes_1">
   <g id="line2d_22">
    <path d="M 33.79848 191.430566 
L 30.662446 116.566772 
" clip-path="url(#p33a9481434)" style="fill: none; stroke: #808080; stroke-width: 1.5; stroke-linecap: square"/>
   </g>
   <g id="line2d_23">
    <path d="M 33.79848 191.430566 
L 92.103088 142.37251 
" clip-path="url(#p33a9481434)" style="fill: none; stroke: #808080; stroke-width: 1.5; stroke-linecap: square"/>
   </g>
   <g id="line2d_24">
    <path d="M 33.79848 191.430566 
L 133.1653 223.38805 
" clip-path="url(#p33a9481434)" style="fill: none; stroke: #808080; stroke-width: 1.5; stroke-linecap: square"/>
   </g>
   <g id="line2d_25">
    <path d="M 30.662446 116.566772 
L 91.381675 71.272906 
" clip-path="url(#p33a9481434)" style="fill: none; stroke: #808080; stroke-width: 1.5; stroke-linecap: square"/>
   </g>
   <g id="line2d_26">
    <path d="M 30.662446 116.566772 
L 134.088122 146.214407 
" clip-path="url(#p33a9481434)" style="fill: none; stroke: #808080; stroke-width: 1.5; stroke-linecap: square"/>
   </g>
   <g id="line2d_27">
    <path d="M 92.103088 142.37251 
L 91.381675 71.272906 
" clip-path="url(#p33a9481434)" style="fill: none; stroke: #808080; stroke-width: 1.5; stroke-linecap: square"/>
   </g>
   <g id="line2d_28">
    <path d="M 92.103088 142.37251 
L 186.527724 169.795755 
" clip-path="url(#p33a9481434)" style="fill: none; stroke: #808080; stroke-width: 1.5; stroke-linecap: square"/>
   </g>
   <g id="line2d_29">
    <path d="M 91.381675 71.272906 
L 189.463761 96.559497 
" clip-path="url(#p33a9481434)" style="fill: none; stroke: #808080; stroke-width: 1.5; stroke-linecap: square"/>
   </g>
   <g id="line2d_30">
    <path d="M 133.1653 223.38805 
L 134.088122 146.214407 
" clip-path="url(#p33a9481434)" style="fill: none; stroke: #808080; stroke-width: 1.5; stroke-linecap: square"/>
   </g>
   <g id="line2d_31">
    <path d="M 133.1653 223.38805 
L 186.527724 169.795755 
" clip-path="url(#p33a9481434)" style="fill: none; stroke: #808080; stroke-width: 1.5; stroke-linecap: square"/>
   </g>
   <g id="line2d_32">
    <path d="M 134.088122 146.214407 
L 189.463761 96.559497 
" clip-path="url(#p33a9481434)" style="fill: none; stroke: #808080; stroke-width: 1.5; stroke-linecap: square"/>
   </g>
   <g id="line2d_33">
    <path d="M 186.527724 169.795755 
L 189.463761 96.559497 
" clip-path="url(#p33a9481434)" style="fill: none; stroke: #808080; stroke-width: 1.5; stroke-linecap: square"/>
   </g>
   <g id="Path3DCollection_1">
    <defs>
     <path id="C0_0_cbdf752e84" d="M 0 2.236068 
C 0.593012 2.236068 1.161816 2.000462 1.581139 1.581139 
C 2.000462 1.161816 2.236068 0.593012 2.236068 -0 
C 2.236068 -0.593012 2.000462 -1.161816 1.581139 -1.581139 
C 1.161816 -2.000462 0.593012 -2.236068 0 -2.236068 
C -0.593012 -2.236068 -1.161816 -2.000462 -1.581139 -1.581139 
C -2.000462 -1.161816 -2.236068 -0.593012 -2.236068 0 
C -2.236068 0.593012 -2.000462 1.161816 -1.581139 1.581139 
C -1.161816 2.000462 -0.593012 2.236068 0 2.236068 
z
"/>
    </defs>
    <g clip-path="url(#p33a9481434)">
     <use xlink:href="#C0_0_cbdf752e84" x="92.103088" y="142.37251" style="fill: #0000ff; fill-opacity: 0.3; stroke: #0000ff; stroke-opacity: 0.3"/>
    </g>
    <g clip-path="url(#p33a9481434)">
     <use xlink:href="#C0_0_cbdf752e84" x="91.381675" y="71.272906" style="fill: #0000ff; fill-opacity: 0.44861; stroke: #0000ff; stroke-opacity: 0.44861"/>
    </g>
    <g clip-path="url(#p33a9481434)">
     <use xlink:href="#C0_0_cbdf752e84" x="186.527724" y="169.795755" style="fill: #0000ff; fill-opacity: 0.472598; stroke: #0000ff; stroke-opacity: 0.472598"/>
    </g>
    <g clip-path="url(#p33a9481434)">
     <use xlink:href="#C0_0_cbdf752e84" x="33.79848" y="191.430566" style="fill: #0000ff; fill-opacity: 0.608764; stroke: #0000ff; stroke-opacity: 0.608764"/>
    </g>
    <g clip-path="url(#p33a9481434)">
     <use xlink:href="#C0_0_cbdf752e84" x="189.463761" y="96.559497" style="fill: #0000ff; fill-opacity: 0.634659; stroke: #0000ff; stroke-opacity: 0.634659"/>
    </g>
    <g clip-path="url(#p33a9481434)">
     <use xlink:href="#C0_0_cbdf752e84" x="30.662446" y="116.566772" style="fill: #0000ff; fill-opacity: 0.781864; stroke: #0000ff; stroke-opacity: 0.781864"/>
    </g>
    <g clip-path="url(#p33a9481434)">
     <use xlink:href="#C0_0_cbdf752e84" x="133.1653" y="223.38805" style="fill: #0000ff; fill-opacity: 0.8099; stroke: #0000ff; stroke-opacity: 0.8099"/>
    </g>
    <g clip-path="url(#p33a9481434)">
     <use xlink:href="#C0_0_cbdf752e84" x="134.088122" y="146.214407" style="fill: #0000ff; stroke: #0000ff"/>
    </g>
   </g>
   <g id="text_22">
    <!-- Top Face -->
    <g style="fill: #ff0000" transform="translate(90.060623 87.468067) scale(0.1 -0.1)">
     <defs>
      <path id="DejaVuSans-54" d="M -19 4666 
L 3928 4666 
L 3928 4134 
L 2272 4134 
L 2272 0 
L 1638 0 
L 1638 4134 
L -19 4134 
L -19 4666 
z
" transform="scale(0.015625)"/>
      <path id="DejaVuSans-6f" d="M 1959 3097 
Q 1497 3097 1228 2736 
Q 959 2375 959 1747 
Q 959 1119 1226 758 
Q 1494 397 1959 397 
Q 2419 397 2687 759 
Q 2956 1122 2956 1747 
Q 2956 2369 2687 2733 
Q 2419 3097 1959 3097 
z
M 1959 3584 
Q 2709 3584 3137 3096 
Q 3566 2609 3566 1747 
Q 3566 888 3137 398 
Q 2709 -91 1959 -91 
Q 1206 -91 779 398 
Q 353 888 353 1747 
Q 353 2609 779 3096 
Q 1206 3584 1959 3584 
z
" transform="scale(0.015625)"/>
      <path id="DejaVuSans-70" d="M 1159 525 
L 1159 -1331 
L 581 -1331 
L 581 3500 
L 1159 3500 
L 1159 2969 
Q 1341 3281 1617 3432 
Q 1894 3584 2278 3584 
Q 2916 3584 3314 3078 
Q 3713 2572 3713 1747 
Q 3713 922 3314 415 
Q 2916 -91 2278 -91 
Q 1894 -91 1617 61 
Q 1341 213 1159 525 
z
M 3116 1747 
Q 3116 2381 2855 2742 
Q 2594 3103 2138 3103 
Q 1681 3103 1420 2742 
Q 1159 2381 1159 1747 
Q 1159 1113 1420 752 
Q 1681 391 2138 391 
Q 2594 391 2855 752 
Q 3116 1113 3116 1747 
z
" transform="scale(0.015625)"/>
      <path id="DejaVuSans-20" transform="scale(0.015625)"/>
      <path id="DejaVuSans-46" d="M 628 4666 
L 3309 4666 
L 3309 4134 
L 1259 4134 
L 1259 2759 
L 3109 2759 
L 3109 2228 
L 1259 2228 
L 1259 0 
L 628 0 
L 628 4666 
z
" transform="scale(0.015625)"/>
      <path id="DejaVuSans-61" d="M 2194 1759 
Q 1497 1759 1228 1600 
Q 959 1441 959 1056 
Q 959 750 1161 570 
Q 1363 391 1709 391 
Q 2188 391 2477 730 
Q 2766 1069 2766 1631 
L 2766 1759 
L 2194 1759 
z
M 3341 1997 
L 3341 0 
L 2766 0 
L 2766 531 
Q 2569 213 2275 61 
Q 1981 -91 1556 -91 
Q 1019 -91 701 211 
Q 384 513 384 1019 
Q 384 1609 779 1909 
Q 1175 2209 1959 2209 
L 2766 2209 
L 2766 2266 
Q 2766 2663 2505 2880 
Q 2244 3097 1772 3097 
Q 1472 3097 1187 3025 
Q 903 2953 641 2809 
L 641 3341 
Q 956 3463 1253 3523 
Q 1550 3584 1831 3584 
Q 2591 3584 2966 3190 
Q 3341 2797 3341 1997 
z
" transform="scale(0.015625)"/>
      <path id="DejaVuSans-63" d="M 3122 3366 
L 3122 2828 
Q 2878 2963 2633 3030 
Q 2388 3097 2138 3097 
Q 1578 3097 1268 2742 
Q 959 2388 959 1747 
Q 959 1106 1268 751 
Q 1578 397 2138 397 
Q 2388 397 2633 464 
Q 2878 531 3122 666 
L 3122 134 
Q 2881 22 2623 -34 
Q 2366 -91 2075 -91 
Q 1284 -91 818 406 
Q 353 903 353 1747 
Q 353 2603 823 3093 
Q 1294 3584 2113 3584 
Q 2378 3584 2631 3529 
Q 2884 3475 3122 3366 
z
" transform="scale(0.015625)"/>
      <path id="DejaVuSans-65" d="M 3597 1894 
L 3597 1613 
L 953 1613 
Q 991 1019 1311 708 
Q 1631 397 2203 397 
Q 2534 397 2845 478 
Q 3156 559 3463 722 
L 3463 178 
Q 3153 47 2828 -22 
Q 2503 -91 2169 -91 
Q 1331 -91 842 396 
Q 353 884 353 1716 
Q 353 2575 817 3079 
Q 1281 3584 2069 3584 
Q 2775 3584 3186 3129 
Q 3597 2675 3597 1894 
z
M 3022 2063 
Q 3016 2534 2758 2815 
Q 2500 3097 2075 3097 
Q 1594 3097 1305 2825 
Q 1016 2553 972 2059 
L 3022 2063 
z
" transform="scale(0.015625)"/>
     </defs>
     <use xlink:href="#DejaVuSans-54"/>
     <use xlink:href="#DejaVuSans-6f" transform="translate(44.083984 0)"/>
     <use xlink:href="#DejaVuSans-70" transform="translate(105.265625 0)"/>
     <use xlink:href="#DejaVuSans-20" transform="translate(168.742188 0)"/>
     <use xlink:href="#DejaVuSans-46" transform="translate(200.529297 0)"/>
     <use xlink:href="#DejaVuSans-61" transform="translate(248.923828 0)"/>
     <use xlink:href="#DejaVuSans-63" transform="translate(310.203125 0)"/>
     <use xlink:href="#DejaVuSans-65" transform="translate(365.183594 0)"/>
    </g>
    <!-- collapses -->
    <g style="fill: #ff0000" transform="translate(88.285623 98.665879) scale(0.1 -0.1)">
     <defs>
      <path id="DejaVuSans-6c" d="M 603 4863 
L 1178 4863 
L 1178 0 
L 603 0 
L 603 4863 
z
" transform="scale(0.015625)"/>
      <path id="DejaVuSans-73" d="M 2834 3397 
L 2834 2853 
Q 2591 2978 2328 3040 
Q 2066 3103 1784 3103 
Q 1356 3103 1142 2972 
Q 928 2841 928 2578 
Q 928 2378 1081 2264 
Q 1234 2150 1697 2047 
L 1894 2003 
Q 2506 1872 2764 1633 
Q 3022 1394 3022 966 
Q 3022 478 2636 193 
Q 2250 -91 1575 -91 
Q 1294 -91 989 -36 
Q 684 19 347 128 
L 347 722 
Q 666 556 975 473 
Q 1284 391 1588 391 
Q 1994 391 2212 530 
Q 2431 669 2431 922 
Q 2431 1156 2273 1281 
Q 2116 1406 1581 1522 
L 1381 1569 
Q 847 1681 609 1914 
Q 372 2147 372 2553 
Q 372 3047 722 3315 
Q 1072 3584 1716 3584 
Q 2034 3584 2315 3537 
Q 2597 3491 2834 3397 
z
" transform="scale(0.015625)"/>
     </defs>
     <use xlink:href="#DejaVuSans-63"/>
     <use xlink:href="#DejaVuSans-6f" transform="translate(54.980469 0)"/>
     <use xlink:href="#DejaVuSans-6c" transform="translate(116.162109 0)"/>
     <use xlink:href="#DejaVuSans-6c" transform="translate(143.945312 0)"/>
     <use xlink:href="#DejaVuSans-61" transform="translate(171.728516 0)"/>
     <use xlink:href="#DejaVuSans-70" transform="translate(233.007812 0)"/>
     <use xlink:href="#DejaVuSans-73" transform="translate(296.484375 0)"/>
     <use xlink:href="#DejaVuSans-65" transform="translate(348.583984 0)"/>
     <use xlink:href="#DejaVuSans-73" transform="translate(410.107422 0)"/>
    </g>
   </g>
   <g id="text_23">
    <!-- Reference Space (u,v,w) -->
    <g transform="translate(35.586733 39.425455) scale(0.12 -0.12)">
     <defs>
      <path id="DejaVuSans-52" d="M 2841 2188 
Q 3044 2119 3236 1894 
Q 3428 1669 3622 1275 
L 4263 0 
L 3584 0 
L 2988 1197 
Q 2756 1666 2539 1819 
Q 2322 1972 1947 1972 
L 1259 1972 
L 1259 0 
L 628 0 
L 628 4666 
L 2053 4666 
Q 2853 4666 3247 4331 
Q 3641 3997 3641 3322 
Q 3641 2881 3436 2590 
Q 3231 2300 2841 2188 
z
M 1259 4147 
L 1259 2491 
L 2053 2491 
Q 2509 2491 2742 2702 
Q 2975 2913 2975 3322 
Q 2975 3731 2742 3939 
Q 2509 4147 2053 4147 
L 1259 4147 
z
" transform="scale(0.015625)"/>
      <path id="DejaVuSans-66" d="M 2375 4863 
L 2375 4384 
L 1825 4384 
Q 1516 4384 1395 4259 
Q 1275 4134 1275 3809 
L 1275 3500 
L 2222 3500 
L 2222 3053 
L 1275 3053 
L 1275 0 
L 697 0 
L 697 3053 
L 147 3053 
L 147 3500 
L 697 3500 
L 697 3744 
Q 697 4328 969 4595 
Q 1241 4863 1831 4863 
L 2375 4863 
z
" transform="scale(0.015625)"/>
      <path id="DejaVuSans-72" d="M 2631 2963 
Q 2534 3019 2420 3045 
Q 2306 3072 2169 3072 
Q 1681 3072 1420 2755 
Q 1159 2438 1159 1844 
L 1159 0 
L 581 0 
L 581 3500 
L 1159 3500 
L 1159 2956 
Q 1341 3275 1631 3429 
Q 1922 3584 2338 3584 
Q 2397 3584 2469 3576 
Q 2541 3569 2628 3553 
L 2631 2963 
z
" transform="scale(0.015625)"/>
      <path id="DejaVuSans-6e" d="M 3513 2113 
L 3513 0 
L 2938 0 
L 2938 2094 
Q 2938 2591 2744 2837 
Q 2550 3084 2163 3084 
Q 1697 3084 1428 2787 
Q 1159 2491 1159 1978 
L 1159 0 
L 581 0 
L 581 3500 
L 1159 3500 
L 1159 2956 
Q 1366 3272 1645 3428 
Q 1925 3584 2291 3584 
Q 2894 3584 3203 3211 
Q 3513 2838 3513 2113 
z
" transform="scale(0.015625)"/>
      <path id="DejaVuSans-53" d="M 3425 4513 
L 3425 3897 
Q 3066 4069 2747 4153 
Q 2428 4238 2131 4238 
Q 1616 4238 1336 4038 
Q 1056 3838 1056 3469 
Q 1056 3159 1242 3001 
Q 1428 2844 1947 2747 
L 2328 2669 
Q 3034 2534 3370 2195 
Q 3706 1856 3706 1288 
Q 3706 609 3251 259 
Q 2797 -91 1919 -91 
Q 1588 -91 1214 -16 
Q 841 59 441 206 
L 441 856 
Q 825 641 1194 531 
Q 1563 422 1919 422 
Q 2459 422 2753 634 
Q 3047 847 3047 1241 
Q 3047 1584 2836 1778 
Q 2625 1972 2144 2069 
L 1759 2144 
Q 1053 2284 737 2584 
Q 422 2884 422 3419 
Q 422 4038 858 4394 
Q 1294 4750 2059 4750 
Q 2388 4750 2728 4690 
Q 3069 4631 3425 4513 
z
" transform="scale(0.015625)"/>
      <path id="DejaVuSans-28" d="M 1984 4856 
Q 1566 4138 1362 3434 
Q 1159 2731 1159 2009 
Q 1159 1288 1364 580 
Q 1569 -128 1984 -844 
L 1484 -844 
Q 1016 -109 783 600 
Q 550 1309 550 2009 
Q 550 2706 781 3412 
Q 1013 4119 1484 4856 
L 1984 4856 
z
" transform="scale(0.015625)"/>
      <path id="DejaVuSans-2c" d="M 750 794 
L 1409 794 
L 1409 256 
L 897 -744 
L 494 -744 
L 750 256 
L 750 794 
z
" transform="scale(0.015625)"/>
      <path id="DejaVuSans-29" d="M 513 4856 
L 1013 4856 
Q 1481 4119 1714 3412 
Q 1947 2706 1947 2009 
Q 1947 1309 1714 600 
Q 1481 -109 1013 -844 
L 513 -844 
Q 928 -128 1133 580 
Q 1338 1288 1338 2009 
Q 1338 2731 1133 3434 
Q 928 4138 513 4856 
z
" transform="scale(0.015625)"/>
     </defs>
     <use xlink:href="#DejaVuSans-52"/>
     <use xlink:href="#DejaVuSans-65" transform="translate(64.982422 0)"/>
     <use xlink:href="#DejaVuSans-66" transform="translate(126.505859 0)"/>
     <use xlink:href="#DejaVuSans-65" transform="translate(161.710938 0)"/>
     <use xlink:href="#DejaVuSans-72" transform="translate(223.234375 0)"/>
     <use xlink:href="#DejaVuSans-65" transform="translate(262.097656 0)"/>
     <use xlink:href="#DejaVuSans-6e" transform="translate(323.621094 0)"/>
     <use xlink:href="#DejaVuSans-63" transform="translate(387 0)"/>
     <use xlink:href="#DejaVuSans-65" transform="translate(441.980469 0)"/>
     <use xlink:href="#DejaVuSans-20" transform="translate(503.503906 0)"/>
     <use xlink:href="#DejaVuSans-53" transform="translate(535.291016 0)"/>
     <use xlink:href="#DejaVuSans-70" transform="translate(598.767578 0)"/>
     <use xlink:href="#DejaVuSans-61" transform="translate(662.244141 0)"/>
     <use xlink:href="#DejaVuSans-63" transform="translate(723.523438 0)"/>
     <use xlink:href="#DejaVuSans-65" transform="translate(778.503906 0)"/>
     <use xlink:href="#DejaVuSans-20" transform="translate(840.027344 0)"/>
     <use xlink:href="#DejaVuSans-28" transform="translate(871.814453 0)"/>
     <use xlink:href="#DejaVuSans-75" transform="translate(910.828125 0)"/>
     <use xlink:href="#DejaVuSans-2c" transform="translate(974.207031 0)"/>
     <use xlink:href="#DejaVuSans-76" transform="translate(1005.994141 0)"/>
     <use xlink:href="#DejaVuSans-2c" transform="translate(1065.173828 0)"/>
     <use xlink:href="#DejaVuSans-77" transform="translate(1096.960938 0)"/>
     <use xlink:href="#DejaVuSans-29" transform="translate(1178.748047 0)"/>
    </g>
   </g>
   <g id="Poly3DCollection_1">
    <defs>
     <path id="m387df2ebf8" d="M 30.662446 -149.99161 
L 91.381675 -195.285477 
L 189.463761 -169.998885 
L 134.088122 -120.343975 
z
" style="stroke: #ff0000"/>
    </defs>
    <g clip-path="url(#p33a9481434)">
     <use xlink:href="#m387df2ebf8" x="0" y="266.558383" style="fill: #ff0000; fill-opacity: 0.3; stroke: #ff0000"/>
    </g>
   </g>
  </g>
  <g id="patch_6">
   <path d="M 250.690909 248.334545 
L 453.6 248.334545 
L 453.6 45.425455 
L 250.690909 45.425455 
z
" style="fill: #ffffff"/>
  </g>
  <g id="axes_2">
   <g id="line2d_34">
    <path d="M 277.289389 191.430566 
L 354.887469 106.395133 
" clip-path="url(#p9d7dfec055)" style="fill: none; stroke: #000000; stroke-width: 1.5; stroke-linecap: square"/>
   </g>
   <g id="line2d_35">
    <path d="M 376.656209 223.38805 
L 354.887469 106.395133 
" clip-path="url(#p9d7dfec055)" style="fill: none; stroke: #000000; stroke-width: 1.5; stroke-linecap: square"/>
   </g>
   <g id="line2d_36">
    <path d="M 430.018633 169.795755 
L 354.887469 106.395133 
" clip-path="url(#p9d7dfec055)" style="fill: none; stroke: #000000; stroke-width: 1.5; stroke-linecap: square"/>
   </g>
   <g id="line2d_37">
    <path d="M 335.593997 142.37251 
L 354.887469 106.395133 
" clip-path="url(#p9d7dfec055)" style="fill: none; stroke: #000000; stroke-width: 1.5; stroke-linecap: square"/>
   </g>
   <g id="line2d_38">
    <path d="M 277.289389 191.430566 
L 376.656209 223.38805 
" clip-path="url(#p9d7dfec055)" style="fill: none; stroke: #0000ff; stroke-width: 1.5; stroke-linecap: square"/>
   </g>
   <g id="line2d_39">
    <path d="M 376.656209 223.38805 
L 430.018633 169.795755 
" clip-path="url(#p9d7dfec055)" style="fill: none; stroke: #0000ff; stroke-width: 1.5; stroke-linecap: square"/>
   </g>
   <g id="line2d_40">
    <path d="M 430.018633 169.795755 
L 335.593997 142.37251 
" clip-path="url(#p9d7dfec055)" style="fill: none; stroke: #0000ff; stroke-width: 1.5; stroke-linecap: square"/>
   </g>
   <g id="line2d_41">
    <path d="M 335.593997 142.37251 
L 277.289389 191.430566 
" clip-path="url(#p9d7dfec055)" style="fill: none; stroke: #0000ff; stroke-width: 1.5; stroke-linecap: square"/>
   </g>
   <g id="Path3DCollection_2">
    <defs>
     <path id="m864de6c98e" d="M 0 5 
C 1.326016 5 2.597899 4.473168 3.535534 3.535534 
C 4.473168 2.597899 5 1.326016 5 0 
C 5 -1.326016 4.473168 -2.597899 3.535534 -3.535534 
C 2.597899 -4.473168 1.326016 -5 0 -5 
C -1.326016 -5 -2.597899 -4.473168 -3.535534 -3.535534 
C -4.473168 -2.597899 -5 -1.326016 -5 0 
C -5 1.326016 -4.473168 2.597899 -3.535534 3.535534 
C -2.597899 4.473168 -1.326016 5 0 5 
z
" style="stroke: #ff0000"/>
    </defs>
    <g clip-path="url(#p9d7dfec055)">
     <use xlink:href="#m864de6c98e" x="354.887469" y="106.395133" style="fill: #ff0000; stroke: #ff0000"/>
    </g>
   </g>
   <g id="text_24">
    <!-- Apex -->
    <g style="fill: #ff0000" transform="translate(342.344501 87.468067) scale(0.1 -0.1)">
     <defs>
      <path id="DejaVuSans-41" d="M 2188 4044 
L 1331 1722 
L 3047 1722 
L 2188 4044 
z
M 1831 4666 
L 2547 4666 
L 4325 0 
L 3669 0 
L 3244 1197 
L 1141 1197 
L 716 0 
L 50 0 
L 1831 4666 
z
" transform="scale(0.015625)"/>
      <path id="DejaVuSans-78" d="M 3513 3500 
L 2247 1797 
L 3578 0 
L 2900 0 
L 1881 1375 
L 863 0 
L 184 0 
L 1544 1831 
L 300 3500 
L 978 3500 
L 1906 2253 
L 2834 3500 
L 3513 3500 
z
" transform="scale(0.015625)"/>
     </defs>
     <use xlink:href="#DejaVuSans-41"/>
     <use xlink:href="#DejaVuSans-70" transform="translate(68.408203 0)"/>
     <use xlink:href="#DejaVuSans-65" transform="translate(131.884766 0)"/>
     <use xlink:href="#DejaVuSans-78" transform="translate(191.658203 0)"/>
    </g>
    <!-- (Singularity) -->
    <g style="fill: #ff0000" transform="translate(324.093719 98.665879) scale(0.1 -0.1)">
     <defs>
      <path id="DejaVuSans-69" d="M 603 3500 
L 1178 3500 
L 1178 0 
L 603 0 
L 603 3500 
z
M 603 4863 
L 1178 4863 
L 1178 4134 
L 603 4134 
L 603 4863 
z
" transform="scale(0.015625)"/>
      <path id="DejaVuSans-67" d="M 2906 1791 
Q 2906 2416 2648 2759 
Q 2391 3103 1925 3103 
Q 1463 3103 1205 2759 
Q 947 2416 947 1791 
Q 947 1169 1205 825 
Q 1463 481 1925 481 
Q 2391 481 2648 825 
Q 2906 1169 2906 1791 
z
M 3481 434 
Q 3481 -459 3084 -895 
Q 2688 -1331 1869 -1331 
Q 1566 -1331 1297 -1286 
Q 1028 -1241 775 -1147 
L 775 -588 
Q 1028 -725 1275 -790 
Q 1522 -856 1778 -856 
Q 2344 -856 2625 -561 
Q 2906 -266 2906 331 
L 2906 616 
Q 2728 306 2450 153 
Q 2172 0 1784 0 
Q 1141 0 747 490 
Q 353 981 353 1791 
Q 353 2603 747 3093 
Q 1141 3584 1784 3584 
Q 2172 3584 2450 3431 
Q 2728 3278 2906 2969 
L 2906 3500 
L 3481 3500 
L 3481 434 
z
" transform="scale(0.015625)"/>
      <path id="DejaVuSans-74" d="M 1172 4494 
L 1172 3500 
L 2356 3500 
L 2356 3053 
L 1172 3053 
L 1172 1153 
Q 1172 725 1289 603 
Q 1406 481 1766 481 
L 2356 481 
L 2356 0 
L 1766 0 
Q 1100 0 847 248 
Q 594 497 594 1153 
L 594 3053 
L 172 3053 
L 172 3500 
L 594 3500 
L 594 4494 
L 1172 4494 
z
" transform="scale(0.015625)"/>
      <path id="DejaVuSans-79" d="M 2059 -325 
Q 1816 -950 1584 -1140 
Q 1353 -1331 966 -1331 
L 506 -1331 
L 506 -850 
L 844 -850 
Q 1081 -850 1212 -737 
Q 1344 -625 1503 -206 
L 1606 56 
L 191 3500 
L 800 3500 
L 1894 763 
L 2988 3500 
L 3597 3500 
L 2059 -325 
z
" transform="scale(0.015625)"/>
     </defs>
     <use xlink:href="#DejaVuSans-28"/>
     <use xlink:href="#DejaVuSans-53" transform="translate(39.013672 0)"/>
     <use xlink:href="#DejaVuSans-69" transform="translate(102.490234 0)"/>
     <use xlink:href="#DejaVuSans-6e" transform="translate(130.273438 0)"/>
     <use xlink:href="#DejaVuSans-67" transform="translate(193.652344 0)"/>
     <use xlink:href="#DejaVuSans-75" transform="translate(257.128906 0)"/>
     <use xlink:href="#DejaVuSans-6c" transform="translate(320.507812 0)"/>
     <use xlink:href="#DejaVuSans-61" transform="translate(348.291016 0)"/>
     <use xlink:href="#DejaVuSans-72" transform="translate(409.570312 0)"/>
     <use xlink:href="#DejaVuSans-69" transform="translate(450.683594 0)"/>
     <use xlink:href="#DejaVuSans-74" transform="translate(478.466797 0)"/>
     <use xlink:href="#DejaVuSans-79" transform="translate(517.675781 0)"/>
     <use xlink:href="#DejaVuSans-29" transform="translate(576.855469 0)"/>
    </g>
   </g>
   <g id="text_25">
    <!-- Physical Pyramid -->
    <g transform="translate(301.198892 39.425455) scale(0.12 -0.12)">
     <defs>
      <path id="DejaVuSans-50" d="M 1259 4147 
L 1259 2394 
L 2053 2394 
Q 2494 2394 2734 2622 
Q 2975 2850 2975 3272 
Q 2975 3691 2734 3919 
Q 2494 4147 2053 4147 
L 1259 4147 
z
M 628 4666 
L 2053 4666 
Q 2838 4666 3239 4311 
Q 3641 3956 3641 3272 
Q 3641 2581 3239 2228 
Q 2838 1875 2053 1875 
L 1259 1875 
L 1259 0 
L 628 0 
L 628 4666 
z
" transform="scale(0.015625)"/>
      <path id="DejaVuSans-68" d="M 3513 2113 
L 3513 0 
L 2938 0 
L 2938 2094 
Q 2938 2591 2744 2837 
Q 2550 3084 2163 3084 
Q 1697 3084 1428 2787 
Q 1159 2491 1159 1978 
L 1159 0 
L 581 0 
L 581 4863 
L 1159 4863 
L 1159 2956 
Q 1366 3272 1645 3428 
Q 1925 3584 2291 3584 
Q 2894 3584 3203 3211 
Q 3513 2838 3513 2113 
z
" transform="scale(0.015625)"/>
      <path id="DejaVuSans-6d" d="M 3328 2828 
Q 3544 3216 3844 3400 
Q 4144 3584 4550 3584 
Q 5097 3584 5394 3201 
Q 5691 2819 5691 2113 
L 5691 0 
L 5113 0 
L 5113 2094 
Q 5113 2597 4934 2840 
Q 4756 3084 4391 3084 
Q 3944 3084 3684 2787 
Q 3425 2491 3425 1978 
L 3425 0 
L 2847 0 
L 2847 2094 
Q 2847 2600 2669 2842 
Q 2491 3084 2119 3084 
Q 1678 3084 1418 2786 
Q 1159 2488 1159 1978 
L 1159 0 
L 581 0 
L 581 3500 
L 1159 3500 
L 1159 2956 
Q 1356 3278 1631 3431 
Q 1906 3584 2284 3584 
Q 2666 3584 2933 3390 
Q 3200 3197 3328 2828 
z
" transform="scale(0.015625)"/>
      <path id="DejaVuSans-64" d="M 2906 2969 
L 2906 4863 
L 3481 4863 
L 3481 0 
L 2906 0 
L 2906 525 
Q 2725 213 2448 61 
Q 2172 -91 1784 -91 
Q 1150 -91 751 415 
Q 353 922 353 1747 
Q 353 2572 751 3078 
Q 1150 3584 1784 3584 
Q 2172 3584 2448 3432 
Q 2725 3281 2906 2969 
z
M 947 1747 
Q 947 1113 1208 752 
Q 1469 391 1925 391 
Q 2381 391 2643 752 
Q 2906 1113 2906 1747 
Q 2906 2381 2643 2742 
Q 2381 3103 1925 3103 
Q 1469 3103 1208 2742 
Q 947 2381 947 1747 
z
" transform="scale(0.015625)"/>
     </defs>
     <use xlink:href="#DejaVuSans-50"/>
     <use xlink:href="#DejaVuSans-68" transform="translate(60.302734 0)"/>
     <use xlink:href="#DejaVuSans-79" transform="translate(123.681641 0)"/>
     <use xlink:href="#DejaVuSans-73" transform="translate(182.861328 0)"/>
     <use xlink:href="#DejaVuSans-69" transform="translate(234.960938 0)"/>
     <use xlink:href="#DejaVuSans-63" transform="translate(262.744141 0)"/>
     <use xlink:href="#DejaVuSans-61" transform="translate(317.724609 0)"/>
     <use xlink:href="#DejaVuSans-6c" transform="translate(379.003906 0)"/>
     <use xlink:href="#DejaVuSans-20" transform="translate(406.787109 0)"/>
     <use xlink:href="#DejaVuSans-50" transform="translate(438.574219 0)"/>
     <use xlink:href="#DejaVuSans-79" transform="translate(498.876953 0)"/>
     <use xlink:href="#DejaVuSans-72" transform="translate(558.056641 0)"/>
     <use xlink:href="#DejaVuSans-61" transform="translate(599.169922 0)"/>
     <use xlink:href="#DejaVuSans-6d" transform="translate(660.449219 0)"/>
     <use xlink:href="#DejaVuSans-69" transform="translate(757.861328 0)"/>
     <use xlink:href="#DejaVuSans-64" transform="translate(785.644531 0)"/>
    </g>
   </g>
   <g id="Path3DCollection_3">
    <defs>
     <path id="C1_0_edbaff3fa4" d="M 0 2.236068 
C 0.593012 2.236068 1.161816 2.000462 1.581139 1.581139 
C 2.000462 1.161816 2.236068 0.593012 2.236068 -0 
C 2.236068 -0.593012 2.000462 -1.161816 1.581139 -1.581139 
C 1.161816 -2.000462 0.593012 -2.236068 0 -2.236068 
C -0.593012 -2.236068 -1.161816 -2.000462 -1.581139 -1.581139 
C -2.000462 -1.161816 -2.236068 -0.593012 -2.236068 0 
C -2.236068 0.593012 -2.000462 1.161816 -1.581139 1.581139 
C -1.161816 2.000462 -0.593012 2.236068 0 2.236068 
z
"/>
    </defs>
    <g clip-path="url(#p9d7dfec055)">
     <use xlink:href="#C1_0_edbaff3fa4" x="335.593997" y="142.37251" style="fill: #0000ff; fill-opacity: 0.3; stroke: #0000ff; stroke-opacity: 0.3"/>
    </g>
    <g clip-path="url(#p9d7dfec055)">
     <use xlink:href="#C1_0_edbaff3fa4" x="430.018633" y="169.795755" style="fill: #0000ff; fill-opacity: 0.536946; stroke: #0000ff; stroke-opacity: 0.536946"/>
    </g>
    <g clip-path="url(#p9d7dfec055)">
     <use xlink:href="#C1_0_edbaff3fa4" x="277.289389" y="191.430566" style="fill: #0000ff; fill-opacity: 0.723877; stroke: #0000ff; stroke-opacity: 0.723877"/>
    </g>
    <g clip-path="url(#p9d7dfec055)">
     <use xlink:href="#C1_0_edbaff3fa4" x="376.656209" y="223.38805" style="fill: #0000ff; stroke: #0000ff"/>
    </g>
   </g>
  </g>
  <g id="text_26">
   <!-- The Pyramid Singularity Mapping -->
   <g transform="translate(107.077656 17.837812) scale(0.14 -0.14)">
    <defs>
     <path id="DejaVuSans-4d" d="M 628 4666 
L 1569 4666 
L 2759 1491 
L 3956 4666 
L 4897 4666 
L 4897 0 
L 4281 0 
L 4281 4097 
L 3078 897 
L 2444 897 
L 1241 4097 
L 1241 0 
L 628 0 
L 628 4666 
z
" transform="scale(0.015625)"/>
    </defs>
    <use xlink:href="#DejaVuSans-54"/>
    <use xlink:href="#DejaVuSans-68" transform="translate(61.083984 0)"/>
    <use xlink:href="#DejaVuSans-65" transform="translate(124.462891 0)"/>
    <use xlink:href="#DejaVuSans-20" transform="translate(185.986328 0)"/>
    <use xlink:href="#DejaVuSans-50" transform="translate(217.773438 0)"/>
    <use xlink:href="#DejaVuSans-79" transform="translate(278.076172 0)"/>
    <use xlink:href="#DejaVuSans-72" transform="translate(337.255859 0)"/>
    <use xlink:href="#DejaVuSans-61" transform="translate(378.369141 0)"/>
    <use xlink:href="#DejaVuSans-6d" transform="translate(439.648438 0)"/>
    <use xlink:href="#DejaVuSans-69" transform="translate(537.060547 0)"/>
    <use xlink:href="#DejaVuSans-64" transform="translate(564.84375 0)"/>
    <use xlink:href="#DejaVuSans-20" transform="translate(628.320312 0)"/>
    <use xlink:href="#DejaVuSans-53" transform="translate(660.107422 0)"/>
    <use xlink:href="#DejaVuSans-69" transform="translate(723.583984 0)"/>
    <use xlink:href="#DejaVuSans-6e" transform="translate(751.367188 0)"/>
    <use xlink:href="#DejaVuSans-67" transform="translate(814.746094 0)"/>
    <use xlink:href="#DejaVuSans-75" transform="translate(878.222656 0)"/>
    <use xlink:href="#DejaVuSans-6c" transform="translate(941.601562 0)"/>
    <use xlink:href="#DejaVuSans-61" transform="translate(969.384766 0)"/>
    <use xlink:href="#DejaVuSans-72" transform="translate(1030.664062 0)"/>
    <use xlink:href="#DejaVuSans-69" transform="translate(1071.777344 0)"/>
    <use xlink:href="#DejaVuSans-74" transform="translate(1099.560547 0)"/>
    <use xlink:href="#DejaVuSans-79" transform="translate(1138.769531 0)"/>
    <use xlink:href="#DejaVuSans-20" transform="translate(1197.949219 0)"/>
    <use xlink:href="#DejaVuSans-4d" transform="translate(1229.736328 0)"/>
    <use xlink:href="#DejaVuSans-61" transform="translate(1316.015625 0)"/>
    <use xlink:href="#DejaVuSans-70" transform="translate(1377.294922 0)"/>
    <use xlink:href="#DejaVuSans-70" transform="translate(1440.771484 0)"/>
    <use xlink:href="#DejaVuSans-69" transform="translate(1504.248047 0)"/>
    <use xlink:href="#DejaVuSans-6e" transform="translate(1532.03125 0)"/>
    <use xlink:href="#DejaVuSans-67" transform="translate(1595.410156 0)"/>
   </g>
  </g>
 </g>
 <defs>
  <clipPath id="p33a9481434">
   <rect x="7.2" y="45.425455" width="202.909091" height="202.909091"/>
  </clipPath>
  <clipPath id="p9d7dfec055">
   <rect x="250.690909" y="45.425455" width="202.909091" height="202.909091"/>
  </clipPath>
 </defs>
</svg>
