<?xml version="1.0" encoding="utf-8" standalone="no"?>
<!DOCTYPE svg PUBLIC "-//W3C//DTD SVG 1.1//EN"
  "http://www.w3.org/Graphics/SVG/1.1/DTD/svg11.dtd">
<svg xmlns:xlink="http://www.w3.org/1999/xlink" width="1144.8pt" height="310.2975pt" viewBox="0 0 1144.8 310.2975" xmlns="http://www.w3.org/2000/svg" version="1.1">
 <metadata>
  <rdf:RDF xmlns:dc="http://purl.org/dc/elements/1.1/" xmlns:cc="http://creativecommons.org/ns#" xmlns:rdf="http://www.w3.org/1999/02/22-rdf-syntax-ns#">
   <cc:Work>
    <dc:type rdf:resource="http://purl.org/dc/dcmitype/StillImage"/>
    <dc:date>2025-12-15T16:00:28.900411</dc:date>
    <dc:format>image/svg+xml</dc:format>
    <dc:creator>
     <cc:Agent>
      <dc:title>Matplotlib v3.10.8, https://matplotlib.org/</dc:title>
     </cc:Agent>
    </dc:creator>
   </cc:Work>
  </rdf:RDF>
 </metadata>
 <defs>
  <style type="text/css">*{stroke-linejoin: round; stroke-linecap: butt}</style>
 </defs>
 <g id="figure_1">
  <g id="patch_1">
   <path d="M 0 310.2975 
L 1144.8 310.2975 
L 1144.8 0 
L 0 0 
z
" style="fill: #ffffff"/>
  </g>
  <g id="axes_1">
   <g id="line2d_1">
    <defs>
     <path id="m7ce7f46474" d="M 0 12 
C 3.182437 12 6.234958 10.735604 8.485281 8.485281 
C 10.735604 6.234958 12 3.182437 12 0 
C 12 -3.182437 10.735604 -6.234958 8.485281 -8.485281 
C 6.234958 -10.735604 3.182437 -12 0 -12 
C -3.182437 -12 -6.234958 -10.735604 -8.485281 -8.485281 
C -10.735604 -6.234958 -12 -3.182437 -12 0 
C -12 3.182437 -10.735604 6.234958 -8.485281 8.485281 
C -6.234958 10.735604 -3.182437 12 0 12 
z
" style="stroke: #000000"/>
    </defs>
    <g clip-path="url(#p73d0f0623a)">
     <use xlink:href="#m7ce7f46474" x="117" y="193.2975" style="fill: #4169e1; stroke: #000000"/>
    </g>
   </g>
   <g id="text_1">
    <!-- 0 -->
    <g style="fill: #ffffff" transform="translate(113.868984 195.780937) scale(0.09 -0.09)">
     <defs>
      <path id="DejaVuSans-Bold-30" d="M 2944 2338 
Q 2944 3213 2780 3570 
Q 2616 3928 2228 3928 
Q 1841 3928 1675 3570 
Q 1509 3213 1509 2338 
Q 1509 1453 1675 1090 
Q 1841 728 2228 728 
Q 2613 728 2778 1090 
Q 2944 1453 2944 2338 
z
M 4147 2328 
Q 4147 1169 3647 539 
Q 3147 -91 2228 -91 
Q 1306 -91 806 539 
Q 306 1169 306 2328 
Q 306 3491 806 4120 
Q 1306 4750 2228 4750 
Q 3147 4750 3647 4120 
Q 4147 3491 4147 2328 
z
" transform="scale(0.015625)"/>
     </defs>
     <use xlink:href="#DejaVuSans-Bold-30"/>
    </g>
   </g>
   <g id="text_2">
    <!-- (0,0,0) -->
    <g transform="translate(103.70125 213.10125) scale(0.08 -0.08)">
     <defs>
      <path id="DejaVuSans-28" d="M 1984 4856 
Q 1566 4138 1362 3434 
Q 1159 2731 1159 2009 
Q 1159 1288 1364 580 
Q 1569 -128 1984 -844 
L 1484 -844 
Q 1016 -109 783 600 
Q 550 1309 550 2009 
Q 550 2706 781 3412 
Q 1013 4119 1484 4856 
L 1984 4856 
z
" transform="scale(0.015625)"/>
      <path id="DejaVuSans-30" d="M 2034 4250 
Q 1547 4250 1301 3770 
Q 1056 3291 1056 2328 
Q 1056 1369 1301 889 
Q 1547 409 2034 409 
Q 2525 409 2770 889 
Q 3016 1369 3016 2328 
Q 3016 3291 2770 3770 
Q 2525 4250 2034 4250 
z
M 2034 4750 
Q 2819 4750 3233 4129 
Q 3647 3509 3647 2328 
Q 3647 1150 3233 529 
Q 2819 -91 2034 -91 
Q 1250 -91 836 529 
Q 422 1150 422 2328 
Q 422 3509 836 4129 
Q 1250 4750 2034 4750 
z
" transform="scale(0.015625)"/>
      <path id="DejaVuSans-2c" d="M 750 794 
L 1409 794 
L 1409 256 
L 897 -744 
L 494 -744 
L 750 256 
L 750 794 
z
" transform="scale(0.015625)"/>
      <path id="DejaVuSans-29" d="M 513 4856 
L 1013 4856 
Q 1481 4119 1714 3412 
Q 1947 2706 1947 2009 
Q 1947 1309 1714 600 
Q 1481 -109 1013 -844 
L 513 -844 
Q 928 -128 1133 580 
Q 1338 1288 1338 2009 
Q 1338 2731 1133 3434 
Q 928 4138 513 4856 
z
" transform="scale(0.015625)"/>
     </defs>
     <use xlink:href="#DejaVuSans-28"/>
     <use xlink:href="#DejaVuSans-30" transform="translate(39.013672 0)"/>
     <use xlink:href="#DejaVuSans-2c" transform="translate(102.636719 0)"/>
     <use xlink:href="#DejaVuSans-30" transform="translate(134.423828 0)"/>
     <use xlink:href="#DejaVuSans-2c" transform="translate(198.046875 0)"/>
     <use xlink:href="#DejaVuSans-30" transform="translate(229.833984 0)"/>
     <use xlink:href="#DejaVuSans-29" transform="translate(293.457031 0)"/>
    </g>
   </g>
   <g id="text_3">
    <!-- Layer i = 0 -->
    <g transform="translate(111.4875 77.785125) scale(0.12 -0.12)">
     <defs>
      <path id="DejaVuSans-4c" d="M 628 4666 
L 1259 4666 
L 1259 531 
L 3531 531 
L 3531 0 
L 628 0 
L 628 4666 
z
" transform="scale(0.015625)"/>
      <path id="DejaVuSans-61" d="M 2194 1759 
Q 1497 1759 1228 1600 
Q 959 1441 959 1056 
Q 959 750 1161 570 
Q 1363 391 1709 391 
Q 2188 391 2477 730 
Q 2766 1069 2766 1631 
L 2766 1759 
L 2194 1759 
z
M 3341 1997 
L 3341 0 
L 2766 0 
L 2766 531 
Q 2569 213 2275 61 
Q 1981 -91 1556 -91 
Q 1019 -91 701 211 
Q 384 513 384 1019 
Q 384 1609 779 1909 
Q 1175 2209 1959 2209 
L 2766 2209 
L 2766 2266 
Q 2766 2663 2505 2880 
Q 2244 3097 1772 3097 
Q 1472 3097 1187 3025 
Q 903 2953 641 2809 
L 641 3341 
Q 956 3463 1253 3523 
Q 1550 3584 1831 3584 
Q 2591 3584 2966 3190 
Q 3341 2797 3341 1997 
z
" transform="scale(0.015625)"/>
      <path id="DejaVuSans-79" d="M 2059 -325 
Q 1816 -950 1584 -1140 
Q 1353 -1331 966 -1331 
L 506 -1331 
L 506 -850 
L 844 -850 
Q 1081 -850 1212 -737 
Q 1344 -625 1503 -206 
L 1606 56 
L 191 3500 
L 800 3500 
L 1894 763 
L 2988 3500 
L 3597 3500 
L 2059 -325 
z
" transform="scale(0.015625)"/>
      <path id="DejaVuSans-65" d="M 3597 1894 
L 3597 1613 
L 953 1613 
Q 991 1019 1311 708 
Q 1631 397 2203 397 
Q 2534 397 2845 478 
Q 3156 559 3463 722 
L 3463 178 
Q 3153 47 2828 -22 
Q 2503 -91 2169 -91 
Q 1331 -91 842 396 
Q 353 884 353 1716 
Q 353 2575 817 3079 
Q 1281 3584 2069 3584 
Q 2775 3584 3186 3129 
Q 3597 2675 3597 1894 
z
M 3022 2063 
Q 3016 2534 2758 2815 
Q 2500 3097 2075 3097 
Q 1594 3097 1305 2825 
Q 1016 2553 972 2059 
L 3022 2063 
z
" transform="scale(0.015625)"/>
      <path id="DejaVuSans-72" d="M 2631 2963 
Q 2534 3019 2420 3045 
Q 2306 3072 2169 3072 
Q 1681 3072 1420 2755 
Q 1159 2438 1159 1844 
L 1159 0 
L 581 0 
L 581 3500 
L 1159 3500 
L 1159 2956 
Q 1341 3275 1631 3429 
Q 1922 3584 2338 3584 
Q 2397 3584 2469 3576 
Q 2541 3569 2628 3553 
L 2631 2963 
z
" transform="scale(0.015625)"/>
      <path id="DejaVuSans-20" transform="scale(0.015625)"/>
      <path id="DejaVuSans-69" d="M 603 3500 
L 1178 3500 
L 1178 0 
L 603 0 
L 603 3500 
z
M 603 4863 
L 1178 4863 
L 1178 4134 
L 603 4134 
L 603 4863 
z
" transform="scale(0.015625)"/>
      <path id="DejaVuSans-3d" d="M 678 2906 
L 4684 2906 
L 4684 2381 
L 678 2381 
L 678 2906 
z
M 678 1631 
L 4684 1631 
L 4684 1100 
L 678 1100 
L 678 1631 
z
" transform="scale(0.015625)"/>
     </defs>
     <use xlink:href="#DejaVuSans-4c"/>
     <use xlink:href="#DejaVuSans-61" transform="translate(55.712891 0)"/>
     <use xlink:href="#DejaVuSans-79" transform="translate(116.992188 0)"/>
     <use xlink:href="#DejaVuSans-65" transform="translate(176.171875 0)"/>
     <use xlink:href="#DejaVuSans-72" transform="translate(237.695312 0)"/>
     <use xlink:href="#DejaVuSans-20" transform="translate(278.808594 0)"/>
     <use xlink:href="#DejaVuSans-69" transform="translate(310.595703 0)"/>
     <use xlink:href="#DejaVuSans-20" transform="translate(338.378906 0)"/>
     <use xlink:href="#DejaVuSans-3d" transform="translate(370.166016 0)"/>
     <use xlink:href="#DejaVuSans-20" transform="translate(453.955078 0)"/>
     <use xlink:href="#DejaVuSans-30" transform="translate(485.742188 0)"/>
    </g>
    <!-- (Total Degree) -->
    <g transform="translate(102.013125 91.2225) scale(0.12 -0.12)">
     <defs>
      <path id="DejaVuSans-54" d="M -19 4666 
L 3928 4666 
L 3928 4134 
L 2272 4134 
L 2272 0 
L 1638 0 
L 1638 4134 
L -19 4134 
L -19 4666 
z
" transform="scale(0.015625)"/>
      <path id="DejaVuSans-6f" d="M 1959 3097 
Q 1497 3097 1228 2736 
Q 959 2375 959 1747 
Q 959 1119 1226 758 
Q 1494 397 1959 397 
Q 2419 397 2687 759 
Q 2956 1122 2956 1747 
Q 2956 2369 2687 2733 
Q 2419 3097 1959 3097 
z
M 1959 3584 
Q 2709 3584 3137 3096 
Q 3566 2609 3566 1747 
Q 3566 888 3137 398 
Q 2709 -91 1959 -91 
Q 1206 -91 779 398 
Q 353 888 353 1747 
Q 353 2609 779 3096 
Q 1206 3584 1959 3584 
z
" transform="scale(0.015625)"/>
      <path id="DejaVuSans-74" d="M 1172 4494 
L 1172 3500 
L 2356 3500 
L 2356 3053 
L 1172 3053 
L 1172 1153 
Q 1172 725 1289 603 
Q 1406 481 1766 481 
L 2356 481 
L 2356 0 
L 1766 0 
Q 1100 0 847 248 
Q 594 497 594 1153 
L 594 3053 
L 172 3053 
L 172 3500 
L 594 3500 
L 594 4494 
L 1172 4494 
z
" transform="scale(0.015625)"/>
      <path id="DejaVuSans-6c" d="M 603 4863 
L 1178 4863 
L 1178 0 
L 603 0 
L 603 4863 
z
" transform="scale(0.015625)"/>
      <path id="DejaVuSans-44" d="M 1259 4147 
L 1259 519 
L 2022 519 
Q 2988 519 3436 956 
Q 3884 1394 3884 2338 
Q 3884 3275 3436 3711 
Q 2988 4147 2022 4147 
L 1259 4147 
z
M 628 4666 
L 1925 4666 
Q 3281 4666 3915 4102 
Q 4550 3538 4550 2338 
Q 4550 1131 3912 565 
Q 3275 0 1925 0 
L 628 0 
L 628 4666 
z
" transform="scale(0.015625)"/>
      <path id="DejaVuSans-67" d="M 2906 1791 
Q 2906 2416 2648 2759 
Q 2391 3103 1925 3103 
Q 1463 3103 1205 2759 
Q 947 2416 947 1791 
Q 947 1169 1205 825 
Q 1463 481 1925 481 
Q 2391 481 2648 825 
Q 2906 1169 2906 1791 
z
M 3481 434 
Q 3481 -459 3084 -895 
Q 2688 -1331 1869 -1331 
Q 1566 -1331 1297 -1286 
Q 1028 -1241 775 -1147 
L 775 -588 
Q 1028 -725 1275 -790 
Q 1522 -856 1778 -856 
Q 2344 -856 2625 -561 
Q 2906 -266 2906 331 
L 2906 616 
Q 2728 306 2450 153 
Q 2172 0 1784 0 
Q 1141 0 747 490 
Q 353 981 353 1791 
Q 353 2603 747 3093 
Q 1141 3584 1784 3584 
Q 2172 3584 2450 3431 
Q 2728 3278 2906 2969 
L 2906 3500 
L 3481 3500 
L 3481 434 
z
" transform="scale(0.015625)"/>
     </defs>
     <use xlink:href="#DejaVuSans-28"/>
     <use xlink:href="#DejaVuSans-54" transform="translate(39.013672 0)"/>
     <use xlink:href="#DejaVuSans-6f" transform="translate(83.097656 0)"/>
     <use xlink:href="#DejaVuSans-74" transform="translate(144.279297 0)"/>
     <use xlink:href="#DejaVuSans-61" transform="translate(183.488281 0)"/>
     <use xlink:href="#DejaVuSans-6c" transform="translate(244.767578 0)"/>
     <use xlink:href="#DejaVuSans-20" transform="translate(272.550781 0)"/>
     <use xlink:href="#DejaVuSans-44" transform="translate(304.337891 0)"/>
     <use xlink:href="#DejaVuSans-65" transform="translate(381.339844 0)"/>
     <use xlink:href="#DejaVuSans-67" transform="translate(442.863281 0)"/>
     <use xlink:href="#DejaVuSans-72" transform="translate(506.339844 0)"/>
     <use xlink:href="#DejaVuSans-65" transform="translate(545.203125 0)"/>
     <use xlink:href="#DejaVuSans-65" transform="translate(606.726562 0)"/>
     <use xlink:href="#DejaVuSans-29" transform="translate(668.25 0)"/>
    </g>
   </g>
  </g>
  <g id="axes_2">
   <g id="line2d_2">
    <g clip-path="url(#pa27c39f925)">
     <use xlink:href="#m7ce7f46474" x="402.3" y="124.6725" style="fill: #4169e1; stroke: #000000"/>
    </g>
   </g>
   <g id="line2d_3">
    <g clip-path="url(#pa27c39f925)">
     <use xlink:href="#m7ce7f46474" x="539.55" y="124.6725" style="fill: #4169e1; stroke: #000000"/>
    </g>
   </g>
   <g id="line2d_4">
    <g clip-path="url(#pa27c39f925)">
     <use xlink:href="#m7ce7f46474" x="333.675" y="261.9225" style="fill: #4169e1; stroke: #000000"/>
    </g>
   </g>
   <g id="text_4">
    <!-- 1 -->
    <g style="fill: #ffffff" transform="translate(399.168984 127.155937) scale(0.09 -0.09)">
     <defs>
      <path id="DejaVuSans-Bold-31" d="M 750 831 
L 1813 831 
L 1813 3847 
L 722 3622 
L 722 4441 
L 1806 4666 
L 2950 4666 
L 2950 831 
L 4013 831 
L 4013 0 
L 750 0 
L 750 831 
z
" transform="scale(0.015625)"/>
     </defs>
     <use xlink:href="#DejaVuSans-Bold-31"/>
    </g>
   </g>
   <g id="text_5">
    <!-- (1,0,0) -->
    <g transform="translate(389.00125 144.47625) scale(0.08 -0.08)">
     <defs>
      <path id="DejaVuSans-31" d="M 794 531 
L 1825 531 
L 1825 4091 
L 703 3866 
L 703 4441 
L 1819 4666 
L 2450 4666 
L 2450 531 
L 3481 531 
L 3481 0 
L 794 0 
L 794 531 
z
" transform="scale(0.015625)"/>
     </defs>
     <use xlink:href="#DejaVuSans-28"/>
     <use xlink:href="#DejaVuSans-31" transform="translate(39.013672 0)"/>
     <use xlink:href="#DejaVuSans-2c" transform="translate(102.636719 0)"/>
     <use xlink:href="#DejaVuSans-30" transform="translate(134.423828 0)"/>
     <use xlink:href="#DejaVuSans-2c" transform="translate(198.046875 0)"/>
     <use xlink:href="#DejaVuSans-30" transform="translate(229.833984 0)"/>
     <use xlink:href="#DejaVuSans-29" transform="translate(293.457031 0)"/>
    </g>
   </g>
   <g id="text_6">
    <!-- 2 -->
    <g style="fill: #ffffff" transform="translate(536.418984 127.155937) scale(0.09 -0.09)">
     <defs>
      <path id="DejaVuSans-Bold-32" d="M 1844 884 
L 3897 884 
L 3897 0 
L 506 0 
L 506 884 
L 2209 2388 
Q 2438 2594 2547 2791 
Q 2656 2988 2656 3200 
Q 2656 3528 2436 3728 
Q 2216 3928 1850 3928 
Q 1569 3928 1234 3808 
Q 900 3688 519 3450 
L 519 4475 
Q 925 4609 1322 4679 
Q 1719 4750 2100 4750 
Q 2938 4750 3402 4381 
Q 3866 4013 3866 3353 
Q 3866 2972 3669 2642 
Q 3472 2313 2841 1759 
L 1844 884 
z
" transform="scale(0.015625)"/>
     </defs>
     <use xlink:href="#DejaVuSans-Bold-32"/>
    </g>
   </g>
   <g id="text_7">
    <!-- (1,0,1) -->
    <g transform="translate(526.25125 144.47625) scale(0.08 -0.08)">
     <use xlink:href="#DejaVuSans-28"/>
     <use xlink:href="#DejaVuSans-31" transform="translate(39.013672 0)"/>
     <use xlink:href="#DejaVuSans-2c" transform="translate(102.636719 0)"/>
     <use xlink:href="#DejaVuSans-30" transform="translate(134.423828 0)"/>
     <use xlink:href="#DejaVuSans-2c" transform="translate(198.046875 0)"/>
     <use xlink:href="#DejaVuSans-31" transform="translate(229.833984 0)"/>
     <use xlink:href="#DejaVuSans-29" transform="translate(293.457031 0)"/>
    </g>
   </g>
   <g id="text_8">
    <!-- 3 -->
    <g style="fill: #ffffff" transform="translate(330.543984 264.405937) scale(0.09 -0.09)">
     <defs>
      <path id="DejaVuSans-Bold-33" d="M 2981 2516 
Q 3453 2394 3698 2092 
Q 3944 1791 3944 1325 
Q 3944 631 3412 270 
Q 2881 -91 1863 -91 
Q 1503 -91 1142 -33 
Q 781 25 428 141 
L 428 1069 
Q 766 900 1098 814 
Q 1431 728 1753 728 
Q 2231 728 2486 893 
Q 2741 1059 2741 1369 
Q 2741 1688 2480 1852 
Q 2219 2016 1709 2016 
L 1228 2016 
L 1228 2791 
L 1734 2791 
Q 2188 2791 2409 2933 
Q 2631 3075 2631 3366 
Q 2631 3634 2415 3781 
Q 2200 3928 1806 3928 
Q 1516 3928 1219 3862 
Q 922 3797 628 3669 
L 628 4550 
Q 984 4650 1334 4700 
Q 1684 4750 2022 4750 
Q 2931 4750 3382 4451 
Q 3834 4153 3834 3553 
Q 3834 3144 3618 2883 
Q 3403 2622 2981 2516 
z
" transform="scale(0.015625)"/>
     </defs>
     <use xlink:href="#DejaVuSans-Bold-33"/>
    </g>
   </g>
   <g id="text_9">
    <!-- (1,1,0) -->
    <g transform="translate(320.37625 281.72625) scale(0.08 -0.08)">
     <use xlink:href="#DejaVuSans-28"/>
     <use xlink:href="#DejaVuSans-31" transform="translate(39.013672 0)"/>
     <use xlink:href="#DejaVuSans-2c" transform="translate(102.636719 0)"/>
     <use xlink:href="#DejaVuSans-31" transform="translate(134.423828 0)"/>
     <use xlink:href="#DejaVuSans-2c" transform="translate(198.046875 0)"/>
     <use xlink:href="#DejaVuSans-30" transform="translate(229.833984 0)"/>
     <use xlink:href="#DejaVuSans-29" transform="translate(293.457031 0)"/>
    </g>
   </g>
   <g id="text_10">
    <!-- Layer i = 1 -->
    <g transform="translate(396.7875 77.785125) scale(0.12 -0.12)">
     <use xlink:href="#DejaVuSans-4c"/>
     <use xlink:href="#DejaVuSans-61" transform="translate(55.712891 0)"/>
     <use xlink:href="#DejaVuSans-79" transform="translate(116.992188 0)"/>
     <use xlink:href="#DejaVuSans-65" transform="translate(176.171875 0)"/>
     <use xlink:href="#DejaVuSans-72" transform="translate(237.695312 0)"/>
     <use xlink:href="#DejaVuSans-20" transform="translate(278.808594 0)"/>
     <use xlink:href="#DejaVuSans-69" transform="translate(310.595703 0)"/>
     <use xlink:href="#DejaVuSans-20" transform="translate(338.378906 0)"/>
     <use xlink:href="#DejaVuSans-3d" transform="translate(370.166016 0)"/>
     <use xlink:href="#DejaVuSans-20" transform="translate(453.955078 0)"/>
     <use xlink:href="#DejaVuSans-31" transform="translate(485.742188 0)"/>
    </g>
    <!-- (Total Degree) -->
    <g transform="translate(387.313125 91.2225) scale(0.12 -0.12)">
     <use xlink:href="#DejaVuSans-28"/>
     <use xlink:href="#DejaVuSans-54" transform="translate(39.013672 0)"/>
     <use xlink:href="#DejaVuSans-6f" transform="translate(83.097656 0)"/>
     <use xlink:href="#DejaVuSans-74" transform="translate(144.279297 0)"/>
     <use xlink:href="#DejaVuSans-61" transform="translate(183.488281 0)"/>
     <use xlink:href="#DejaVuSans-6c" transform="translate(244.767578 0)"/>
     <use xlink:href="#DejaVuSans-20" transform="translate(272.550781 0)"/>
     <use xlink:href="#DejaVuSans-44" transform="translate(304.337891 0)"/>
     <use xlink:href="#DejaVuSans-65" transform="translate(381.339844 0)"/>
     <use xlink:href="#DejaVuSans-67" transform="translate(442.863281 0)"/>
     <use xlink:href="#DejaVuSans-72" transform="translate(506.339844 0)"/>
     <use xlink:href="#DejaVuSans-65" transform="translate(545.203125 0)"/>
     <use xlink:href="#DejaVuSans-65" transform="translate(606.726562 0)"/>
     <use xlink:href="#DejaVuSans-29" transform="translate(668.25 0)"/>
    </g>
   </g>
  </g>
  <g id="axes_3">
   <g id="line2d_5">
    <g clip-path="url(#p211b62da4d)">
     <use xlink:href="#m7ce7f46474" x="687.6" y="124.6725" style="fill: #4169e1; stroke: #000000"/>
    </g>
   </g>
   <g id="line2d_6">
    <g clip-path="url(#p211b62da4d)">
     <use xlink:href="#m7ce7f46474" x="756.225" y="124.6725" style="fill: #4169e1; stroke: #000000"/>
    </g>
   </g>
   <g id="line2d_7">
    <g clip-path="url(#p211b62da4d)">
     <use xlink:href="#m7ce7f46474" x="824.85" y="124.6725" style="fill: #4169e1; stroke: #000000"/>
    </g>
   </g>
   <g id="line2d_8">
    <g clip-path="url(#p211b62da4d)">
     <use xlink:href="#m7ce7f46474" x="653.2875" y="193.2975" style="fill: #4169e1; stroke: #000000"/>
    </g>
   </g>
   <g id="line2d_9">
    <g clip-path="url(#p211b62da4d)">
     <use xlink:href="#m7ce7f46474" x="721.9125" y="193.2975" style="fill: #4169e1; stroke: #000000"/>
    </g>
   </g>
   <g id="line2d_10">
    <g clip-path="url(#p211b62da4d)">
     <use xlink:href="#m7ce7f46474" x="618.975" y="261.9225" style="fill: #4169e1; stroke: #000000"/>
    </g>
   </g>
   <g id="text_11">
    <!-- 4 -->
    <g style="fill: #ffffff" transform="translate(684.468984 127.155937) scale(0.09 -0.09)">
     <defs>
      <path id="DejaVuSans-Bold-34" d="M 2356 3675 
L 1038 1722 
L 2356 1722 
L 2356 3675 
z
M 2156 4666 
L 3494 4666 
L 3494 1722 
L 4159 1722 
L 4159 850 
L 3494 850 
L 3494 0 
L 2356 0 
L 2356 850 
L 288 850 
L 288 1881 
L 2156 4666 
z
" transform="scale(0.015625)"/>
     </defs>
     <use xlink:href="#DejaVuSans-Bold-34"/>
    </g>
   </g>
   <g id="text_12">
    <!-- (2,0,0) -->
    <g transform="translate(674.30125 144.47625) scale(0.08 -0.08)">
     <defs>
      <path id="DejaVuSans-32" d="M 1228 531 
L 3431 531 
L 3431 0 
L 469 0 
L 469 531 
Q 828 903 1448 1529 
Q 2069 2156 2228 2338 
Q 2531 2678 2651 2914 
Q 2772 3150 2772 3378 
Q 2772 3750 2511 3984 
Q 2250 4219 1831 4219 
Q 1534 4219 1204 4116 
Q 875 4013 500 3803 
L 500 4441 
Q 881 4594 1212 4672 
Q 1544 4750 1819 4750 
Q 2544 4750 2975 4387 
Q 3406 4025 3406 3419 
Q 3406 3131 3298 2873 
Q 3191 2616 2906 2266 
Q 2828 2175 2409 1742 
Q 1991 1309 1228 531 
z
" transform="scale(0.015625)"/>
     </defs>
     <use xlink:href="#DejaVuSans-28"/>
     <use xlink:href="#DejaVuSans-32" transform="translate(39.013672 0)"/>
     <use xlink:href="#DejaVuSans-2c" transform="translate(102.636719 0)"/>
     <use xlink:href="#DejaVuSans-30" transform="translate(134.423828 0)"/>
     <use xlink:href="#DejaVuSans-2c" transform="translate(198.046875 0)"/>
     <use xlink:href="#DejaVuSans-30" transform="translate(229.833984 0)"/>
     <use xlink:href="#DejaVuSans-29" transform="translate(293.457031 0)"/>
    </g>
   </g>
   <g id="text_13">
    <!-- 5 -->
    <g style="fill: #ffffff" transform="translate(753.093984 127.155937) scale(0.09 -0.09)">
     <defs>
      <path id="DejaVuSans-Bold-35" d="M 678 4666 
L 3669 4666 
L 3669 3781 
L 1638 3781 
L 1638 3059 
Q 1775 3097 1914 3117 
Q 2053 3138 2203 3138 
Q 3056 3138 3531 2711 
Q 4006 2284 4006 1522 
Q 4006 766 3489 337 
Q 2972 -91 2053 -91 
Q 1656 -91 1267 -14 
Q 878 63 494 219 
L 494 1166 
Q 875 947 1217 837 
Q 1559 728 1863 728 
Q 2300 728 2551 942 
Q 2803 1156 2803 1522 
Q 2803 1891 2551 2103 
Q 2300 2316 1863 2316 
Q 1603 2316 1309 2248 
Q 1016 2181 678 2041 
L 678 4666 
z
" transform="scale(0.015625)"/>
     </defs>
     <use xlink:href="#DejaVuSans-Bold-35"/>
    </g>
   </g>
   <g id="text_14">
    <!-- (2,0,1) -->
    <g transform="translate(742.92625 144.47625) scale(0.08 -0.08)">
     <use xlink:href="#DejaVuSans-28"/>
     <use xlink:href="#DejaVuSans-32" transform="translate(39.013672 0)"/>
     <use xlink:href="#DejaVuSans-2c" transform="translate(102.636719 0)"/>
     <use xlink:href="#DejaVuSans-30" transform="translate(134.423828 0)"/>
     <use xlink:href="#DejaVuSans-2c" transform="translate(198.046875 0)"/>
     <use xlink:href="#DejaVuSans-31" transform="translate(229.833984 0)"/>
     <use xlink:href="#DejaVuSans-29" transform="translate(293.457031 0)"/>
    </g>
   </g>
   <g id="text_15">
    <!-- 6 -->
    <g style="fill: #ffffff" transform="translate(821.718984 127.155937) scale(0.09 -0.09)">
     <defs>
      <path id="DejaVuSans-Bold-36" d="M 2316 2303 
Q 2000 2303 1842 2098 
Q 1684 1894 1684 1484 
Q 1684 1075 1842 870 
Q 2000 666 2316 666 
Q 2634 666 2792 870 
Q 2950 1075 2950 1484 
Q 2950 1894 2792 2098 
Q 2634 2303 2316 2303 
z
M 3803 4544 
L 3803 3681 
Q 3506 3822 3243 3889 
Q 2981 3956 2731 3956 
Q 2194 3956 1894 3657 
Q 1594 3359 1544 2772 
Q 1750 2925 1990 3001 
Q 2231 3078 2516 3078 
Q 3231 3078 3670 2659 
Q 4109 2241 4109 1563 
Q 4109 813 3618 361 
Q 3128 -91 2303 -91 
Q 1394 -91 895 523 
Q 397 1138 397 2266 
Q 397 3422 980 4083 
Q 1563 4744 2578 4744 
Q 2900 4744 3203 4694 
Q 3506 4644 3803 4544 
z
" transform="scale(0.015625)"/>
     </defs>
     <use xlink:href="#DejaVuSans-Bold-36"/>
    </g>
   </g>
   <g id="text_16">
    <!-- (2,0,2) -->
    <g transform="translate(811.55125 144.47625) scale(0.08 -0.08)">
     <use xlink:href="#DejaVuSans-28"/>
     <use xlink:href="#DejaVuSans-32" transform="translate(39.013672 0)"/>
     <use xlink:href="#DejaVuSans-2c" transform="translate(102.636719 0)"/>
     <use xlink:href="#DejaVuSans-30" transform="translate(134.423828 0)"/>
     <use xlink:href="#DejaVuSans-2c" transform="translate(198.046875 0)"/>
     <use xlink:href="#DejaVuSans-32" transform="translate(229.833984 0)"/>
     <use xlink:href="#DejaVuSans-29" transform="translate(293.457031 0)"/>
    </g>
   </g>
   <g id="text_17">
    <!-- 7 -->
    <g style="fill: #ffffff" transform="translate(650.156484 195.780937) scale(0.09 -0.09)">
     <defs>
      <path id="DejaVuSans-Bold-37" d="M 428 4666 
L 3944 4666 
L 3944 3988 
L 2125 0 
L 953 0 
L 2675 3781 
L 428 3781 
L 428 4666 
z
" transform="scale(0.015625)"/>
     </defs>
     <use xlink:href="#DejaVuSans-Bold-37"/>
    </g>
   </g>
   <g id="text_18">
    <!-- (2,1,0) -->
    <g transform="translate(639.98875 213.10125) scale(0.08 -0.08)">
     <use xlink:href="#DejaVuSans-28"/>
     <use xlink:href="#DejaVuSans-32" transform="translate(39.013672 0)"/>
     <use xlink:href="#DejaVuSans-2c" transform="translate(102.636719 0)"/>
     <use xlink:href="#DejaVuSans-31" transform="translate(134.423828 0)"/>
     <use xlink:href="#DejaVuSans-2c" transform="translate(198.046875 0)"/>
     <use xlink:href="#DejaVuSans-30" transform="translate(229.833984 0)"/>
     <use xlink:href="#DejaVuSans-29" transform="translate(293.457031 0)"/>
    </g>
   </g>
   <g id="text_19">
    <!-- 8 -->
    <g style="fill: #ffffff" transform="translate(718.781484 195.780937) scale(0.09 -0.09)">
     <defs>
      <path id="DejaVuSans-Bold-38" d="M 2228 2088 
Q 1891 2088 1709 1903 
Q 1528 1719 1528 1375 
Q 1528 1031 1709 848 
Q 1891 666 2228 666 
Q 2563 666 2741 848 
Q 2919 1031 2919 1375 
Q 2919 1722 2741 1905 
Q 2563 2088 2228 2088 
z
M 1350 2484 
Q 925 2613 709 2878 
Q 494 3144 494 3541 
Q 494 4131 934 4440 
Q 1375 4750 2228 4750 
Q 3075 4750 3515 4442 
Q 3956 4134 3956 3541 
Q 3956 3144 3739 2878 
Q 3522 2613 3097 2484 
Q 3572 2353 3814 2058 
Q 4056 1763 4056 1313 
Q 4056 619 3595 264 
Q 3134 -91 2228 -91 
Q 1319 -91 855 264 
Q 391 619 391 1313 
Q 391 1763 633 2058 
Q 875 2353 1350 2484 
z
M 1631 3419 
Q 1631 3141 1786 2991 
Q 1941 2841 2228 2841 
Q 2509 2841 2662 2991 
Q 2816 3141 2816 3419 
Q 2816 3697 2662 3845 
Q 2509 3994 2228 3994 
Q 1941 3994 1786 3844 
Q 1631 3694 1631 3419 
z
" transform="scale(0.015625)"/>
     </defs>
     <use xlink:href="#DejaVuSans-Bold-38"/>
    </g>
   </g>
   <g id="text_20">
    <!-- (2,1,1) -->
    <g transform="translate(708.61375 213.10125) scale(0.08 -0.08)">
     <use xlink:href="#DejaVuSans-28"/>
     <use xlink:href="#DejaVuSans-32" transform="translate(39.013672 0)"/>
     <use xlink:href="#DejaVuSans-2c" transform="translate(102.636719 0)"/>
     <use xlink:href="#DejaVuSans-31" transform="translate(134.423828 0)"/>
     <use xlink:href="#DejaVuSans-2c" transform="translate(198.046875 0)"/>
     <use xlink:href="#DejaVuSans-31" transform="translate(229.833984 0)"/>
     <use xlink:href="#DejaVuSans-29" transform="translate(293.457031 0)"/>
    </g>
   </g>
   <g id="text_21">
    <!-- 9 -->
    <g style="fill: #ffffff" transform="translate(615.843984 264.405937) scale(0.09 -0.09)">
     <defs>
      <path id="DejaVuSans-Bold-39" d="M 641 103 
L 641 966 
Q 928 831 1190 764 
Q 1453 697 1709 697 
Q 2247 697 2547 995 
Q 2847 1294 2900 1881 
Q 2688 1725 2447 1647 
Q 2206 1569 1925 1569 
Q 1209 1569 770 1986 
Q 331 2403 331 3084 
Q 331 3838 820 4291 
Q 1309 4744 2131 4744 
Q 3044 4744 3544 4128 
Q 4044 3513 4044 2388 
Q 4044 1231 3459 570 
Q 2875 -91 1856 -91 
Q 1528 -91 1228 -42 
Q 928 6 641 103 
z
M 2125 2350 
Q 2441 2350 2600 2554 
Q 2759 2759 2759 3169 
Q 2759 3575 2600 3781 
Q 2441 3988 2125 3988 
Q 1809 3988 1650 3781 
Q 1491 3575 1491 3169 
Q 1491 2759 1650 2554 
Q 1809 2350 2125 2350 
z
" transform="scale(0.015625)"/>
     </defs>
     <use xlink:href="#DejaVuSans-Bold-39"/>
    </g>
   </g>
   <g id="text_22">
    <!-- (2,2,0) -->
    <g transform="translate(605.67625 281.72625) scale(0.08 -0.08)">
     <use xlink:href="#DejaVuSans-28"/>
     <use xlink:href="#DejaVuSans-32" transform="translate(39.013672 0)"/>
     <use xlink:href="#DejaVuSans-2c" transform="translate(102.636719 0)"/>
     <use xlink:href="#DejaVuSans-32" transform="translate(134.423828 0)"/>
     <use xlink:href="#DejaVuSans-2c" transform="translate(198.046875 0)"/>
     <use xlink:href="#DejaVuSans-30" transform="translate(229.833984 0)"/>
     <use xlink:href="#DejaVuSans-29" transform="translate(293.457031 0)"/>
    </g>
   </g>
   <g id="text_23">
    <!-- Layer i = 2 -->
    <g transform="translate(682.0875 77.785125) scale(0.12 -0.12)">
     <use xlink:href="#DejaVuSans-4c"/>
     <use xlink:href="#DejaVuSans-61" transform="translate(55.712891 0)"/>
     <use xlink:href="#DejaVuSans-79" transform="translate(116.992188 0)"/>
     <use xlink:href="#DejaVuSans-65" transform="translate(176.171875 0)"/>
     <use xlink:href="#DejaVuSans-72" transform="translate(237.695312 0)"/>
     <use xlink:href="#DejaVuSans-20" transform="translate(278.808594 0)"/>
     <use xlink:href="#DejaVuSans-69" transform="translate(310.595703 0)"/>
     <use xlink:href="#DejaVuSans-20" transform="translate(338.378906 0)"/>
     <use xlink:href="#DejaVuSans-3d" transform="translate(370.166016 0)"/>
     <use xlink:href="#DejaVuSans-20" transform="translate(453.955078 0)"/>
     <use xlink:href="#DejaVuSans-32" transform="translate(485.742188 0)"/>
    </g>
    <!-- (Total Degree) -->
    <g transform="translate(672.613125 91.2225) scale(0.12 -0.12)">
     <use xlink:href="#DejaVuSans-28"/>
     <use xlink:href="#DejaVuSans-54" transform="translate(39.013672 0)"/>
     <use xlink:href="#DejaVuSans-6f" transform="translate(83.097656 0)"/>
     <use xlink:href="#DejaVuSans-74" transform="translate(144.279297 0)"/>
     <use xlink:href="#DejaVuSans-61" transform="translate(183.488281 0)"/>
     <use xlink:href="#DejaVuSans-6c" transform="translate(244.767578 0)"/>
     <use xlink:href="#DejaVuSans-20" transform="translate(272.550781 0)"/>
     <use xlink:href="#DejaVuSans-44" transform="translate(304.337891 0)"/>
     <use xlink:href="#DejaVuSans-65" transform="translate(381.339844 0)"/>
     <use xlink:href="#DejaVuSans-67" transform="translate(442.863281 0)"/>
     <use xlink:href="#DejaVuSans-72" transform="translate(506.339844 0)"/>
     <use xlink:href="#DejaVuSans-65" transform="translate(545.203125 0)"/>
     <use xlink:href="#DejaVuSans-65" transform="translate(606.726562 0)"/>
     <use xlink:href="#DejaVuSans-29" transform="translate(668.25 0)"/>
    </g>
   </g>
  </g>
  <g id="axes_4">
   <g id="line2d_11">
    <g clip-path="url(#p5b5b78e227)">
     <use xlink:href="#m7ce7f46474" x="972.9" y="124.6725" style="fill: #4169e1; stroke: #000000"/>
    </g>
   </g>
   <g id="line2d_12">
    <g clip-path="url(#p5b5b78e227)">
     <use xlink:href="#m7ce7f46474" x="1018.65" y="124.6725" style="fill: #4169e1; stroke: #000000"/>
    </g>
   </g>
   <g id="line2d_13">
    <g clip-path="url(#p5b5b78e227)">
     <use xlink:href="#m7ce7f46474" x="1064.4" y="124.6725" style="fill: #4169e1; stroke: #000000"/>
    </g>
   </g>
   <g id="line2d_14">
    <g clip-path="url(#p5b5b78e227)">
     <use xlink:href="#m7ce7f46474" x="1110.15" y="124.6725" style="fill: #4169e1; stroke: #000000"/>
    </g>
   </g>
   <g id="line2d_15">
    <g clip-path="url(#p5b5b78e227)">
     <use xlink:href="#m7ce7f46474" x="950.025" y="170.4225" style="fill: #4169e1; stroke: #000000"/>
    </g>
   </g>
   <g id="line2d_16">
    <g clip-path="url(#p5b5b78e227)">
     <use xlink:href="#m7ce7f46474" x="995.775" y="170.4225" style="fill: #4169e1; stroke: #000000"/>
    </g>
   </g>
   <g id="line2d_17">
    <g clip-path="url(#p5b5b78e227)">
     <use xlink:href="#m7ce7f46474" x="1041.525" y="170.4225" style="fill: #4169e1; stroke: #000000"/>
    </g>
   </g>
   <g id="line2d_18">
    <g clip-path="url(#p5b5b78e227)">
     <use xlink:href="#m7ce7f46474" x="927.15" y="216.1725" style="fill: #4169e1; stroke: #000000"/>
    </g>
   </g>
   <g id="line2d_19">
    <g clip-path="url(#p5b5b78e227)">
     <use xlink:href="#m7ce7f46474" x="972.9" y="216.1725" style="fill: #4169e1; stroke: #000000"/>
    </g>
   </g>
   <g id="line2d_20">
    <g clip-path="url(#p5b5b78e227)">
     <use xlink:href="#m7ce7f46474" x="904.275" y="261.9225" style="fill: #4169e1; stroke: #000000"/>
    </g>
   </g>
   <g id="text_24">
    <!-- 10 -->
    <g style="fill: #ffffff" transform="translate(966.637969 127.155937) scale(0.09 -0.09)">
     <use xlink:href="#DejaVuSans-Bold-31"/>
     <use xlink:href="#DejaVuSans-Bold-30" transform="translate(69.580078 0)"/>
    </g>
   </g>
   <g id="text_25">
    <!-- (3,0,0) -->
    <g transform="translate(959.60125 144.47625) scale(0.08 -0.08)">
     <defs>
      <path id="DejaVuSans-33" d="M 2597 2516 
Q 3050 2419 3304 2112 
Q 3559 1806 3559 1356 
Q 3559 666 3084 287 
Q 2609 -91 1734 -91 
Q 1441 -91 1130 -33 
Q 819 25 488 141 
L 488 750 
Q 750 597 1062 519 
Q 1375 441 1716 441 
Q 2309 441 2620 675 
Q 2931 909 2931 1356 
Q 2931 1769 2642 2001 
Q 2353 2234 1838 2234 
L 1294 2234 
L 1294 2753 
L 1863 2753 
Q 2328 2753 2575 2939 
Q 2822 3125 2822 3475 
Q 2822 3834 2567 4026 
Q 2313 4219 1838 4219 
Q 1578 4219 1281 4162 
Q 984 4106 628 3988 
L 628 4550 
Q 988 4650 1302 4700 
Q 1616 4750 1894 4750 
Q 2613 4750 3031 4423 
Q 3450 4097 3450 3541 
Q 3450 3153 3228 2886 
Q 3006 2619 2597 2516 
z
" transform="scale(0.015625)"/>
     </defs>
     <use xlink:href="#DejaVuSans-28"/>
     <use xlink:href="#DejaVuSans-33" transform="translate(39.013672 0)"/>
     <use xlink:href="#DejaVuSans-2c" transform="translate(102.636719 0)"/>
     <use xlink:href="#DejaVuSans-30" transform="translate(134.423828 0)"/>
     <use xlink:href="#DejaVuSans-2c" transform="translate(198.046875 0)"/>
     <use xlink:href="#DejaVuSans-30" transform="translate(229.833984 0)"/>
     <use xlink:href="#DejaVuSans-29" transform="translate(293.457031 0)"/>
    </g>
   </g>
   <g id="text_26">
    <!-- 11 -->
    <g style="fill: #ffffff" transform="translate(1012.387969 127.155937) scale(0.09 -0.09)">
     <use xlink:href="#DejaVuSans-Bold-31"/>
     <use xlink:href="#DejaVuSans-Bold-31" transform="translate(69.580078 0)"/>
    </g>
   </g>
   <g id="text_27">
    <!-- (3,0,1) -->
    <g transform="translate(1005.35125 144.47625) scale(0.08 -0.08)">
     <use xlink:href="#DejaVuSans-28"/>
     <use xlink:href="#DejaVuSans-33" transform="translate(39.013672 0)"/>
     <use xlink:href="#DejaVuSans-2c" transform="translate(102.636719 0)"/>
     <use xlink:href="#DejaVuSans-30" transform="translate(134.423828 0)"/>
     <use xlink:href="#DejaVuSans-2c" transform="translate(198.046875 0)"/>
     <use xlink:href="#DejaVuSans-31" transform="translate(229.833984 0)"/>
     <use xlink:href="#DejaVuSans-29" transform="translate(293.457031 0)"/>
    </g>
   </g>
   <g id="text_28">
    <!-- 12 -->
    <g style="fill: #ffffff" transform="translate(1058.137969 127.155937) scale(0.09 -0.09)">
     <use xlink:href="#DejaVuSans-Bold-31"/>
     <use xlink:href="#DejaVuSans-Bold-32" transform="translate(69.580078 0)"/>
    </g>
   </g>
   <g id="text_29">
    <!-- (3,0,2) -->
    <g transform="translate(1051.10125 144.47625) scale(0.08 -0.08)">
     <use xlink:href="#DejaVuSans-28"/>
     <use xlink:href="#DejaVuSans-33" transform="translate(39.013672 0)"/>
     <use xlink:href="#DejaVuSans-2c" transform="translate(102.636719 0)"/>
     <use xlink:href="#DejaVuSans-30" transform="translate(134.423828 0)"/>
     <use xlink:href="#DejaVuSans-2c" transform="translate(198.046875 0)"/>
     <use xlink:href="#DejaVuSans-32" transform="translate(229.833984 0)"/>
     <use xlink:href="#DejaVuSans-29" transform="translate(293.457031 0)"/>
    </g>
   </g>
   <g id="text_30">
    <!-- 13 -->
    <g style="fill: #ffffff" transform="translate(1103.887969 127.155937) scale(0.09 -0.09)">
     <use xlink:href="#DejaVuSans-Bold-31"/>
     <use xlink:href="#DejaVuSans-Bold-33" transform="translate(69.580078 0)"/>
    </g>
   </g>
   <g id="text_31">
    <!-- (3,0,3) -->
    <g transform="translate(1096.85125 144.47625) scale(0.08 -0.08)">
     <use xlink:href="#DejaVuSans-28"/>
     <use xlink:href="#DejaVuSans-33" transform="translate(39.013672 0)"/>
     <use xlink:href="#DejaVuSans-2c" transform="translate(102.636719 0)"/>
     <use xlink:href="#DejaVuSans-30" transform="translate(134.423828 0)"/>
     <use xlink:href="#DejaVuSans-2c" transform="translate(198.046875 0)"/>
     <use xlink:href="#DejaVuSans-33" transform="translate(229.833984 0)"/>
     <use xlink:href="#DejaVuSans-29" transform="translate(293.457031 0)"/>
    </g>
   </g>
   <g id="text_32">
    <!-- 14 -->
    <g style="fill: #ffffff" transform="translate(943.762969 172.905937) scale(0.09 -0.09)">
     <use xlink:href="#DejaVuSans-Bold-31"/>
     <use xlink:href="#DejaVuSans-Bold-34" transform="translate(69.580078 0)"/>
    </g>
   </g>
   <g id="text_33">
    <!-- (3,1,0) -->
    <g transform="translate(936.72625 190.22625) scale(0.08 -0.08)">
     <use xlink:href="#DejaVuSans-28"/>
     <use xlink:href="#DejaVuSans-33" transform="translate(39.013672 0)"/>
     <use xlink:href="#DejaVuSans-2c" transform="translate(102.636719 0)"/>
     <use xlink:href="#DejaVuSans-31" transform="translate(134.423828 0)"/>
     <use xlink:href="#DejaVuSans-2c" transform="translate(198.046875 0)"/>
     <use xlink:href="#DejaVuSans-30" transform="translate(229.833984 0)"/>
     <use xlink:href="#DejaVuSans-29" transform="translate(293.457031 0)"/>
    </g>
   </g>
   <g id="text_34">
    <!-- 15 -->
    <g style="fill: #ffffff" transform="translate(989.512969 172.905937) scale(0.09 -0.09)">
     <use xlink:href="#DejaVuSans-Bold-31"/>
     <use xlink:href="#DejaVuSans-Bold-35" transform="translate(69.580078 0)"/>
    </g>
   </g>
   <g id="text_35">
    <!-- (3,1,1) -->
    <g transform="translate(982.47625 190.22625) scale(0.08 -0.08)">
     <use xlink:href="#DejaVuSans-28"/>
     <use xlink:href="#DejaVuSans-33" transform="translate(39.013672 0)"/>
     <use xlink:href="#DejaVuSans-2c" transform="translate(102.636719 0)"/>
     <use xlink:href="#DejaVuSans-31" transform="translate(134.423828 0)"/>
     <use xlink:href="#DejaVuSans-2c" transform="translate(198.046875 0)"/>
     <use xlink:href="#DejaVuSans-31" transform="translate(229.833984 0)"/>
     <use xlink:href="#DejaVuSans-29" transform="translate(293.457031 0)"/>
    </g>
   </g>
   <g id="text_36">
    <!-- 16 -->
    <g style="fill: #ffffff" transform="translate(1035.262969 172.905937) scale(0.09 -0.09)">
     <use xlink:href="#DejaVuSans-Bold-31"/>
     <use xlink:href="#DejaVuSans-Bold-36" transform="translate(69.580078 0)"/>
    </g>
   </g>
   <g id="text_37">
    <!-- (3,1,2) -->
    <g transform="translate(1028.22625 190.22625) scale(0.08 -0.08)">
     <use xlink:href="#DejaVuSans-28"/>
     <use xlink:href="#DejaVuSans-33" transform="translate(39.013672 0)"/>
     <use xlink:href="#DejaVuSans-2c" transform="translate(102.636719 0)"/>
     <use xlink:href="#DejaVuSans-31" transform="translate(134.423828 0)"/>
     <use xlink:href="#DejaVuSans-2c" transform="translate(198.046875 0)"/>
     <use xlink:href="#DejaVuSans-32" transform="translate(229.833984 0)"/>
     <use xlink:href="#DejaVuSans-29" transform="translate(293.457031 0)"/>
    </g>
   </g>
   <g id="text_38">
    <!-- 17 -->
    <g style="fill: #ffffff" transform="translate(920.887969 218.655937) scale(0.09 -0.09)">
     <use xlink:href="#DejaVuSans-Bold-31"/>
     <use xlink:href="#DejaVuSans-Bold-37" transform="translate(69.580078 0)"/>
    </g>
   </g>
   <g id="text_39">
    <!-- (3,2,0) -->
    <g transform="translate(913.85125 235.97625) scale(0.08 -0.08)">
     <use xlink:href="#DejaVuSans-28"/>
     <use xlink:href="#DejaVuSans-33" transform="translate(39.013672 0)"/>
     <use xlink:href="#DejaVuSans-2c" transform="translate(102.636719 0)"/>
     <use xlink:href="#DejaVuSans-32" transform="translate(134.423828 0)"/>
     <use xlink:href="#DejaVuSans-2c" transform="translate(198.046875 0)"/>
     <use xlink:href="#DejaVuSans-30" transform="translate(229.833984 0)"/>
     <use xlink:href="#DejaVuSans-29" transform="translate(293.457031 0)"/>
    </g>
   </g>
   <g id="text_40">
    <!-- 18 -->
    <g style="fill: #ffffff" transform="translate(966.637969 218.655937) scale(0.09 -0.09)">
     <use xlink:href="#DejaVuSans-Bold-31"/>
     <use xlink:href="#DejaVuSans-Bold-38" transform="translate(69.580078 0)"/>
    </g>
   </g>
   <g id="text_41">
    <!-- (3,2,1) -->
    <g transform="translate(959.60125 235.97625) scale(0.08 -0.08)">
     <use xlink:href="#DejaVuSans-28"/>
     <use xlink:href="#DejaVuSans-33" transform="translate(39.013672 0)"/>
     <use xlink:href="#DejaVuSans-2c" transform="translate(102.636719 0)"/>
     <use xlink:href="#DejaVuSans-32" transform="translate(134.423828 0)"/>
     <use xlink:href="#DejaVuSans-2c" transform="translate(198.046875 0)"/>
     <use xlink:href="#DejaVuSans-31" transform="translate(229.833984 0)"/>
     <use xlink:href="#DejaVuSans-29" transform="translate(293.457031 0)"/>
    </g>
   </g>
   <g id="text_42">
    <!-- 19 -->
    <g style="fill: #ffffff" transform="translate(898.012969 264.405937) scale(0.09 -0.09)">
     <use xlink:href="#DejaVuSans-Bold-31"/>
     <use xlink:href="#DejaVuSans-Bold-39" transform="translate(69.580078 0)"/>
    </g>
   </g>
   <g id="text_43">
    <!-- (3,3,0) -->
    <g transform="translate(890.97625 281.72625) scale(0.08 -0.08)">
     <use xlink:href="#DejaVuSans-28"/>
     <use xlink:href="#DejaVuSans-33" transform="translate(39.013672 0)"/>
     <use xlink:href="#DejaVuSans-2c" transform="translate(102.636719 0)"/>
     <use xlink:href="#DejaVuSans-33" transform="translate(134.423828 0)"/>
     <use xlink:href="#DejaVuSans-2c" transform="translate(198.046875 0)"/>
     <use xlink:href="#DejaVuSans-30" transform="translate(229.833984 0)"/>
     <use xlink:href="#DejaVuSans-29" transform="translate(293.457031 0)"/>
    </g>
   </g>
   <g id="text_44">
    <!-- Layer i = 3 -->
    <g transform="translate(967.3875 77.785125) scale(0.12 -0.12)">
     <use xlink:href="#DejaVuSans-4c"/>
     <use xlink:href="#DejaVuSans-61" transform="translate(55.712891 0)"/>
     <use xlink:href="#DejaVuSans-79" transform="translate(116.992188 0)"/>
     <use xlink:href="#DejaVuSans-65" transform="translate(176.171875 0)"/>
     <use xlink:href="#DejaVuSans-72" transform="translate(237.695312 0)"/>
     <use xlink:href="#DejaVuSans-20" transform="translate(278.808594 0)"/>
     <use xlink:href="#DejaVuSans-69" transform="translate(310.595703 0)"/>
     <use xlink:href="#DejaVuSans-20" transform="translate(338.378906 0)"/>
     <use xlink:href="#DejaVuSans-3d" transform="translate(370.166016 0)"/>
     <use xlink:href="#DejaVuSans-20" transform="translate(453.955078 0)"/>
     <use xlink:href="#DejaVuSans-33" transform="translate(485.742188 0)"/>
    </g>
    <!-- (Total Degree) -->
    <g transform="translate(957.913125 91.2225) scale(0.12 -0.12)">
     <use xlink:href="#DejaVuSans-28"/>
     <use xlink:href="#DejaVuSans-54" transform="translate(39.013672 0)"/>
     <use xlink:href="#DejaVuSans-6f" transform="translate(83.097656 0)"/>
     <use xlink:href="#DejaVuSans-74" transform="translate(144.279297 0)"/>
     <use xlink:href="#DejaVuSans-61" transform="translate(183.488281 0)"/>
     <use xlink:href="#DejaVuSans-6c" transform="translate(244.767578 0)"/>
     <use xlink:href="#DejaVuSans-20" transform="translate(272.550781 0)"/>
     <use xlink:href="#DejaVuSans-44" transform="translate(304.337891 0)"/>
     <use xlink:href="#DejaVuSans-65" transform="translate(381.339844 0)"/>
     <use xlink:href="#DejaVuSans-67" transform="translate(442.863281 0)"/>
     <use xlink:href="#DejaVuSans-72" transform="translate(506.339844 0)"/>
     <use xlink:href="#DejaVuSans-65" transform="translate(545.203125 0)"/>
     <use xlink:href="#DejaVuSans-65" transform="translate(606.726562 0)"/>
     <use xlink:href="#DejaVuSans-29" transform="translate(668.25 0)"/>
    </g>
   </g>
  </g>
  <g id="text_45">
   <!-- Node Atlas: Tetra P=3 (Exploded Layers) -->
   <g transform="translate(430.452031 17.837812) scale(0.14 -0.14)">
    <defs>
     <path id="DejaVuSans-4e" d="M 628 4666 
L 1478 4666 
L 3547 763 
L 3547 4666 
L 4159 4666 
L 4159 0 
L 3309 0 
L 1241 3903 
L 1241 0 
L 628 0 
L 628 4666 
z
" transform="scale(0.015625)"/>
     <path id="DejaVuSans-64" d="M 2906 2969 
L 2906 4863 
L 3481 4863 
L 3481 0 
L 2906 0 
L 2906 525 
Q 2725 213 2448 61 
Q 2172 -91 1784 -91 
Q 1150 -91 751 415 
Q 353 922 353 1747 
Q 353 2572 751 3078 
Q 1150 3584 1784 3584 
Q 2172 3584 2448 3432 
Q 2725 3281 2906 2969 
z
M 947 1747 
Q 947 1113 1208 752 
Q 1469 391 1925 391 
Q 2381 391 2643 752 
Q 2906 1113 2906 1747 
Q 2906 2381 2643 2742 
Q 2381 3103 1925 3103 
Q 1469 3103 1208 2742 
Q 947 2381 947 1747 
z
" transform="scale(0.015625)"/>
     <path id="DejaVuSans-41" d="M 2188 4044 
L 1331 1722 
L 3047 1722 
L 2188 4044 
z
M 1831 4666 
L 2547 4666 
L 4325 0 
L 3669 0 
L 3244 1197 
L 1141 1197 
L 716 0 
L 50 0 
L 1831 4666 
z
" transform="scale(0.015625)"/>
     <path id="DejaVuSans-73" d="M 2834 3397 
L 2834 2853 
Q 2591 2978 2328 3040 
Q 2066 3103 1784 3103 
Q 1356 3103 1142 2972 
Q 928 2841 928 2578 
Q 928 2378 1081 2264 
Q 1234 2150 1697 2047 
L 1894 2003 
Q 2506 1872 2764 1633 
Q 3022 1394 3022 966 
Q 3022 478 2636 193 
Q 2250 -91 1575 -91 
Q 1294 -91 989 -36 
Q 684 19 347 128 
L 347 722 
Q 666 556 975 473 
Q 1284 391 1588 391 
Q 1994 391 2212 530 
Q 2431 669 2431 922 
Q 2431 1156 2273 1281 
Q 2116 1406 1581 1522 
L 1381 1569 
Q 847 1681 609 1914 
Q 372 2147 372 2553 
Q 372 3047 722 3315 
Q 1072 3584 1716 3584 
Q 2034 3584 2315 3537 
Q 2597 3491 2834 3397 
z
" transform="scale(0.015625)"/>
     <path id="DejaVuSans-3a" d="M 750 794 
L 1409 794 
L 1409 0 
L 750 0 
L 750 794 
z
M 750 3309 
L 1409 3309 
L 1409 2516 
L 750 2516 
L 750 3309 
z
" transform="scale(0.015625)"/>
     <path id="DejaVuSans-50" d="M 1259 4147 
L 1259 2394 
L 2053 2394 
Q 2494 2394 2734 2622 
Q 2975 2850 2975 3272 
Q 2975 3691 2734 3919 
Q 2494 4147 2053 4147 
L 1259 4147 
z
M 628 4666 
L 2053 4666 
Q 2838 4666 3239 4311 
Q 3641 3956 3641 3272 
Q 3641 2581 3239 2228 
Q 2838 1875 2053 1875 
L 1259 1875 
L 1259 0 
L 628 0 
L 628 4666 
z
" transform="scale(0.015625)"/>
     <path id="DejaVuSans-45" d="M 628 4666 
L 3578 4666 
L 3578 4134 
L 1259 4134 
L 1259 2753 
L 3481 2753 
L 3481 2222 
L 1259 2222 
L 1259 531 
L 3634 531 
L 3634 0 
L 628 0 
L 628 4666 
z
" transform="scale(0.015625)"/>
     <path id="DejaVuSans-78" d="M 3513 3500 
L 2247 1797 
L 3578 0 
L 2900 0 
L 1881 1375 
L 863 0 
L 184 0 
L 1544 1831 
L 300 3500 
L 978 3500 
L 1906 2253 
L 2834 3500 
L 3513 3500 
z
" transform="scale(0.015625)"/>
     <path id="DejaVuSans-70" d="M 1159 525 
L 1159 -1331 
L 581 -1331 
L 581 3500 
L 1159 3500 
L 1159 2969 
Q 1341 3281 1617 3432 
Q 1894 3584 2278 3584 
Q 2916 3584 3314 3078 
Q 3713 2572 3713 1747 
Q 3713 922 3314 415 
Q 2916 -91 2278 -91 
Q 1894 -91 1617 61 
Q 1341 213 1159 525 
z
M 3116 1747 
Q 3116 2381 2855 2742 
Q 2594 3103 2138 3103 
Q 1681 3103 1420 2742 
Q 1159 2381 1159 1747 
Q 1159 1113 1420 752 
Q 1681 391 2138 391 
Q 2594 391 2855 752 
Q 3116 1113 3116 1747 
z
" transform="scale(0.015625)"/>
    </defs>
    <use xlink:href="#DejaVuSans-4e"/>
    <use xlink:href="#DejaVuSans-6f" transform="translate(74.804688 0)"/>
    <use xlink:href="#DejaVuSans-64" transform="translate(135.986328 0)"/>
    <use xlink:href="#DejaVuSans-65" transform="translate(199.462891 0)"/>
    <use xlink:href="#DejaVuSans-20" transform="translate(260.986328 0)"/>
    <use xlink:href="#DejaVuSans-41" transform="translate(292.773438 0)"/>
    <use xlink:href="#DejaVuSans-74" transform="translate(359.431641 0)"/>
    <use xlink:href="#DejaVuSans-6c" transform="translate(398.640625 0)"/>
    <use xlink:href="#DejaVuSans-61" transform="translate(426.423828 0)"/>
    <use xlink:href="#DejaVuSans-73" transform="translate(487.703125 0)"/>
    <use xlink:href="#DejaVuSans-3a" transform="translate(539.802734 0)"/>
    <use xlink:href="#DejaVuSans-20" transform="translate(573.494141 0)"/>
    <use xlink:href="#DejaVuSans-54" transform="translate(605.28125 0)"/>
    <use xlink:href="#DejaVuSans-65" transform="translate(649.365234 0)"/>
    <use xlink:href="#DejaVuSans-74" transform="translate(710.888672 0)"/>
    <use xlink:href="#DejaVuSans-72" transform="translate(750.097656 0)"/>
    <use xlink:href="#DejaVuSans-61" transform="translate(791.210938 0)"/>
    <use xlink:href="#DejaVuSans-20" transform="translate(852.490234 0)"/>
    <use xlink:href="#DejaVuSans-50" transform="translate(884.277344 0)"/>
    <use xlink:href="#DejaVuSans-3d" transform="translate(944.580078 0)"/>
    <use xlink:href="#DejaVuSans-33" transform="translate(1028.369141 0)"/>
    <use xlink:href="#DejaVuSans-20" transform="translate(1091.992188 0)"/>
    <use xlink:href="#DejaVuSans-28" transform="translate(1123.779297 0)"/>
    <use xlink:href="#DejaVuSans-45" transform="translate(1162.792969 0)"/>
    <use xlink:href="#DejaVuSans-78" transform="translate(1225.976562 0)"/>
    <use xlink:href="#DejaVuSans-70" transform="translate(1285.15625 0)"/>
    <use xlink:href="#DejaVuSans-6c" transform="translate(1348.632812 0)"/>
    <use xlink:href="#DejaVuSans-6f" transform="translate(1376.416016 0)"/>
    <use xlink:href="#DejaVuSans-64" transform="translate(1437.597656 0)"/>
    <use xlink:href="#DejaVuSans-65" transform="translate(1501.074219 0)"/>
    <use xlink:href="#DejaVuSans-64" transform="translate(1562.597656 0)"/>
    <use xlink:href="#DejaVuSans-20" transform="translate(1626.074219 0)"/>
    <use xlink:href="#DejaVuSans-4c" transform="translate(1657.861328 0)"/>
    <use xlink:href="#DejaVuSans-61" transform="translate(1713.574219 0)"/>
    <use xlink:href="#DejaVuSans-79" transform="translate(1774.853516 0)"/>
    <use xlink:href="#DejaVuSans-65" transform="translate(1834.033203 0)"/>
    <use xlink:href="#DejaVuSans-72" transform="translate(1895.556641 0)"/>
    <use xlink:href="#DejaVuSans-73" transform="translate(1936.669922 0)"/>
    <use xlink:href="#DejaVuSans-29" transform="translate(1988.769531 0)"/>
   </g>
   <!-- Loop: i (Degree) -&gt; j (Row) -&gt; k (Col) -->
   <g transform="translate(443.196406 33.51475) scale(0.14 -0.14)">
    <defs>
     <path id="DejaVuSans-2d" d="M 313 2009 
L 1997 2009 
L 1997 1497 
L 313 1497 
L 313 2009 
z
" transform="scale(0.015625)"/>
     <path id="DejaVuSans-3e" d="M 678 3150 
L 678 3719 
L 4684 2266 
L 4684 1747 
L 678 294 
L 678 863 
L 3897 2003 
L 678 3150 
z
" transform="scale(0.015625)"/>
     <path id="DejaVuSans-6a" d="M 603 3500 
L 1178 3500 
L 1178 -63 
Q 1178 -731 923 -1031 
Q 669 -1331 103 -1331 
L -116 -1331 
L -116 -844 
L 38 -844 
Q 366 -844 484 -692 
Q 603 -541 603 -63 
L 603 3500 
z
M 603 4863 
L 1178 4863 
L 1178 4134 
L 603 4134 
L 603 4863 
z
" transform="scale(0.015625)"/>
     <path id="DejaVuSans-52" d="M 2841 2188 
Q 3044 2119 3236 1894 
Q 3428 1669 3622 1275 
L 4263 0 
L 3584 0 
L 2988 1197 
Q 2756 1666 2539 1819 
Q 2322 1972 1947 1972 
L 1259 1972 
L 1259 0 
L 628 0 
L 628 4666 
L 2053 4666 
Q 2853 4666 3247 4331 
Q 3641 3997 3641 3322 
Q 3641 2881 3436 2590 
Q 3231 2300 2841 2188 
z
M 1259 4147 
L 1259 2491 
L 2053 2491 
Q 2509 2491 2742 2702 
Q 2975 2913 2975 3322 
Q 2975 3731 2742 3939 
Q 2509 4147 2053 4147 
L 1259 4147 
z
" transform="scale(0.015625)"/>
     <path id="DejaVuSans-77" d="M 269 3500 
L 844 3500 
L 1563 769 
L 2278 3500 
L 2956 3500 
L 3675 769 
L 4391 3500 
L 4966 3500 
L 4050 0 
L 3372 0 
L 2619 2869 
L 1863 0 
L 1184 0 
L 269 3500 
z
" transform="scale(0.015625)"/>
     <path id="DejaVuSans-6b" d="M 581 4863 
L 1159 4863 
L 1159 1991 
L 2875 3500 
L 3609 3500 
L 1753 1863 
L 3688 0 
L 2938 0 
L 1159 1709 
L 1159 0 
L 581 0 
L 581 4863 
z
" transform="scale(0.015625)"/>
     <path id="DejaVuSans-43" d="M 4122 4306 
L 4122 3641 
Q 3803 3938 3442 4084 
Q 3081 4231 2675 4231 
Q 1875 4231 1450 3742 
Q 1025 3253 1025 2328 
Q 1025 1406 1450 917 
Q 1875 428 2675 428 
Q 3081 428 3442 575 
Q 3803 722 4122 1019 
L 4122 359 
Q 3791 134 3420 21 
Q 3050 -91 2638 -91 
Q 1578 -91 968 557 
Q 359 1206 359 2328 
Q 359 3453 968 4101 
Q 1578 4750 2638 4750 
Q 3056 4750 3426 4639 
Q 3797 4528 4122 4306 
z
" transform="scale(0.015625)"/>
    </defs>
    <use xlink:href="#DejaVuSans-4c"/>
    <use xlink:href="#DejaVuSans-6f" transform="translate(53.962891 0)"/>
    <use xlink:href="#DejaVuSans-6f" transform="translate(115.144531 0)"/>
    <use xlink:href="#DejaVuSans-70" transform="translate(176.326172 0)"/>
    <use xlink:href="#DejaVuSans-3a" transform="translate(239.802734 0)"/>
    <use xlink:href="#DejaVuSans-20" transform="translate(273.494141 0)"/>
    <use xlink:href="#DejaVuSans-69" transform="translate(305.28125 0)"/>
    <use xlink:href="#DejaVuSans-20" transform="translate(333.064453 0)"/>
    <use xlink:href="#DejaVuSans-28" transform="translate(364.851562 0)"/>
    <use xlink:href="#DejaVuSans-44" transform="translate(403.865234 0)"/>
    <use xlink:href="#DejaVuSans-65" transform="translate(480.867188 0)"/>
    <use xlink:href="#DejaVuSans-67" transform="translate(542.390625 0)"/>
    <use xlink:href="#DejaVuSans-72" transform="translate(605.867188 0)"/>
    <use xlink:href="#DejaVuSans-65" transform="translate(644.730469 0)"/>
    <use xlink:href="#DejaVuSans-65" transform="translate(706.253906 0)"/>
    <use xlink:href="#DejaVuSans-29" transform="translate(767.777344 0)"/>
    <use xlink:href="#DejaVuSans-20" transform="translate(806.791016 0)"/>
    <use xlink:href="#DejaVuSans-2d" transform="translate(838.578125 0)"/>
    <use xlink:href="#DejaVuSans-3e" transform="translate(874.662109 0)"/>
    <use xlink:href="#DejaVuSans-20" transform="translate(958.451172 0)"/>
    <use xlink:href="#DejaVuSans-6a" transform="translate(990.238281 0)"/>
    <use xlink:href="#DejaVuSans-20" transform="translate(1018.021484 0)"/>
    <use xlink:href="#DejaVuSans-28" transform="translate(1049.808594 0)"/>
    <use xlink:href="#DejaVuSans-52" transform="translate(1088.822266 0)"/>
    <use xlink:href="#DejaVuSans-6f" transform="translate(1153.804688 0)"/>
    <use xlink:href="#DejaVuSans-77" transform="translate(1214.986328 0)"/>
    <use xlink:href="#DejaVuSans-29" transform="translate(1296.773438 0)"/>
    <use xlink:href="#DejaVuSans-20" transform="translate(1335.787109 0)"/>
    <use xlink:href="#DejaVuSans-2d" transform="translate(1367.574219 0)"/>
    <use xlink:href="#DejaVuSans-3e" transform="translate(1403.658203 0)"/>
    <use xlink:href="#DejaVuSans-20" transform="translate(1487.447266 0)"/>
    <use xlink:href="#DejaVuSans-6b" transform="translate(1519.234375 0)"/>
    <use xlink:href="#DejaVuSans-20" transform="translate(1577.144531 0)"/>
    <use xlink:href="#DejaVuSans-28" transform="translate(1608.931641 0)"/>
    <use xlink:href="#DejaVuSans-43" transform="translate(1647.945312 0)"/>
    <use xlink:href="#DejaVuSans-6f" transform="translate(1717.769531 0)"/>
    <use xlink:href="#DejaVuSans-6c" transform="translate(1778.951172 0)"/>
    <use xlink:href="#DejaVuSans-29" transform="translate(1806.734375 0)"/>
   </g>
  </g>
 </g>
 <defs>
  <clipPath id="p73d0f0623a">
   <rect x="7.2" y="97.2225" width="274.5" height="205.875"/>
  </clipPath>
  <clipPath id="pa27c39f925">
   <rect x="292.5" y="97.2225" width="274.5" height="205.875"/>
  </clipPath>
  <clipPath id="p211b62da4d">
   <rect x="577.8" y="97.2225" width="274.5" height="205.875"/>
  </clipPath>
  <clipPath id="p5b5b78e227">
   <rect x="863.1" y="97.2225" width="274.5" height="205.875"/>
  </clipPath>
 </defs>
</svg>
