<?xml version="1.0" encoding="UTF-8" standalone="no"?>
<!-- Generator: Adobe Illustrator 13.0.0, SVG Export Plug-In . SVG Version: 6.00 Build 14948)  -->
<svg
   xmlns:dc="http://purl.org/dc/elements/1.1/"
   xmlns:cc="http://web.resource.org/cc/"
   xmlns:rdf="http://www.w3.org/1999/02/22-rdf-syntax-ns#"
   xmlns:svg="http://www.w3.org/2000/svg"
   xmlns="http://www.w3.org/2000/svg"
   xmlns:sodipodi="http://sodipodi.sourceforge.net/DTD/sodipodi-0.dtd"
   xmlns:inkscape="http://www.inkscape.org/namespaces/inkscape"
   version="1.0"
   id="Layer_1"
   x="0px"
   y="0px"
   width="185.75"
   height="85.809998"
   viewBox="0 0 175.748 75.809"
   enable-background="new 0 0 175.748 75.809"
   xml:space="preserve"
   sodipodi:version="0.32"
   inkscape:version="0.45.1"
   sodipodi:docname="Boeing[1].svg"
   inkscape:output_extension="org.inkscape.output.svg.inkscape"
   sodipodi:docbase="C:\Users\Virgile\Wikipedia"><metadata
   id="metadata14"><rdf:RDF><cc:Work
       rdf:about=""><dc:format>image/svg+xml</dc:format><dc:type
         rdf:resource="http://purl.org/dc/dcmitype/StillImage" /></cc:Work></rdf:RDF></metadata><defs
   id="defs12" /><sodipodi:namedview
   inkscape:window-height="1000"
   inkscape:window-width="1400"
   inkscape:pageshadow="2"
   inkscape:pageopacity="0.0"
   guidetolerance="10.0"
   gridtolerance="10.0"
   objecttolerance="10.0"
   borderopacity="1.0"
   bordercolor="#666666"
   pagecolor="#ffffff"
   id="base"
   width="185.75px"
   height="85.81px"
   inkscape:zoom="7.4823042"
   inkscape:cx="87.874001"
   inkscape:cy="37.904499"
   inkscape:window-x="-8"
   inkscape:window-y="-8"
   inkscape:current-layer="Layer_1" />

<g
   transform="matrix(0.9461534,0,0,0.9461534,4.7307672,2.0415016)"
   id="g3">
	<path
   clip-rule="evenodd"
   d="M 104.367,30.644 C 105.42,28.385 106.011,25.865 106.011,23.209 C 106.011,17.08 102.882,11.686 98.137,8.525 C 100.965,5.617 104.019,2.747 107.277,0 C 103.464,2.243 99.881,4.818 96.566,7.594 C 94.119,6.309 91.336,5.577 88.382,5.577 C 78.643,5.577 70.751,13.471 70.751,23.208 C 70.751,27.606 72.365,31.624 75.027,34.712 C 71.651,42.01 71.056,47.881 74.032,49.864 C 77.218,51.99 84.146,48.14 88.303,41.869 C 88.303,41.869 81.873,47.67 78.344,46.337 C 76.166,45.514 76.161,42.191 77.955,37.423 C 80.875,39.567 84.48,40.836 88.383,40.836 C 93.211,40.836 97.586,38.893 100.769,35.75 L 101.397,36.928 C 109.082,36.304 132.028,35.699 132.028,35.699 C 132.026,34.594 116.829,35.593 104.367,30.644 L 104.367,30.644 L 104.367,30.644 z M 75.66,33.396 C 73.42,30.604 72.08,27.063 72.08,23.209 C 72.08,14.208 79.378,6.909 88.381,6.909 C 90.921,6.909 93.323,7.491 95.468,8.527 C 86.45,16.338 79.547,25.568 75.66,33.396 L 75.66,33.396 L 75.66,33.396 z M 95.044,25.013 L 100.111,34.519 C 97.146,37.592 92.988,39.51 88.381,39.51 C 84.647,39.51 81.211,38.251 78.464,36.142 C 81.467,28.993 88.068,19.095 97.197,9.503 C 101.698,12.404 104.679,17.456 104.679,23.209 C 104.679,25.686 104.124,28.031 103.136,30.13 C 100.158,28.83 97.373,27.163 95.044,25.013 L 95.044,25.013 L 95.044,25.013 z "
   id="path5"
   style="fill:#999b9e;fill-rule:evenodd" />
	<path
   clip-rule="evenodd"
   d="M 174.353,59.242 C 174.353,58.747 174.082,58.484 173.457,58.484 L 172.427,58.484 L 172.427,61.233 L 172.663,61.233 L 172.663,59.964 L 173.378,59.964 L 174.205,61.233 L 174.468,61.233 L 173.645,59.968 C 174.038,59.909 174.353,59.691 174.353,59.242 L 174.353,59.242 L 174.353,59.242 z M 173.247,59.76 L 172.663,59.76 L 172.663,58.693 L 173.422,58.693 C 173.75,58.693 174.119,58.816 174.119,59.238 C 174.119,59.717 173.664,59.76 173.247,59.76 L 173.247,59.76 L 173.247,59.76 z M 173.422,57.571 C 172.137,57.571 171.097,58.61 171.097,59.896 C 171.097,61.184 172.137,62.222 173.422,62.222 C 174.709,62.222 175.748,61.184 175.748,59.896 C 175.748,58.61 174.709,57.571 173.422,57.571 L 173.422,57.571 L 173.422,57.571 L 173.422,57.571 z M 173.429,62.016 C 172.241,62.016 171.334,61.073 171.334,59.897 C 171.334,58.699 172.229,57.778 173.429,57.778 C 174.625,57.778 175.51,58.704 175.51,59.892 C 175.51,61.065 174.617,62.016 173.429,62.016 L 173.429,62.016 L 173.429,62.016 z "
   id="path7"
   style="fill:#0066b3;fill-rule:evenodd" />
	<path
   clip-rule="evenodd"
   d="M 66.863,60.008 C 66.863,58.659 65.77,57.566 64.421,57.566 L 48.399,57.566 C 45.653,57.566 43.217,58.879 41.681,60.915 L 33.406,71.897 C 33.099,72.305 32.917,72.814 32.917,73.366 C 32.917,74.714 34.009,75.808 35.357,75.808 L 51.38,75.809 C 54.125,75.809 56.563,74.495 58.097,72.46 L 66.374,61.48 C 66.683,61.068 66.863,60.559 66.863,60.008 L 66.863,60.008 L 66.863,60.008 z M 29.17,67.134 C 31.138,66.688 32.843,65.552 34.018,63.995 L 35.914,61.479 C 36.221,61.068 36.403,60.558 36.403,60.007 C 36.403,58.658 35.31,57.565 33.961,57.565 L 23.715,57.564 L 23.715,57.564 L 13.744,57.564 L 0,75.808 L 9.795,75.808 L 20.921,75.809 C 23.667,75.809 26.103,74.495 27.639,72.46 L 29.577,69.885 C 29.825,69.559 29.968,69.151 29.968,68.708 C 29.969,68.063 29.655,67.49 29.17,67.134 L 29.17,67.134 L 29.17,67.134 z M 19.918,69.485 L 18.685,71.122 C 18.288,71.647 17.655,71.992 16.942,71.992 L 12.848,71.992 L 15.5,68.471 L 19.412,68.471 C 19.761,68.471 20.044,68.756 20.044,69.103 C 20.044,69.247 19.998,69.381 19.918,69.485 L 19.918,69.485 L 19.918,69.485 z M 86.802,68.471 L 89.677,64.656 L 79.668,64.654 L 82.134,61.382 L 92.143,61.382 L 95.02,57.566 L 75.039,57.566 L 61.294,75.808 L 81.275,75.808 L 84.15,71.993 L 74.144,71.993 L 76.792,68.472 L 86.802,68.472 L 86.802,68.471 L 86.802,68.471 z M 25.26,62.396 L 24.211,63.79 C 23.814,64.314 23.182,64.656 22.469,64.656 L 18.373,64.654 L 20.841,61.382 L 24.753,61.382 C 25.103,61.382 25.387,61.667 25.387,62.016 C 25.388,62.157 25.34,62.29 25.26,62.396 L 25.26,62.396 L 25.26,62.396 z M 55.718,62.396 L 49.145,71.122 C 48.748,71.648 48.116,71.989 47.403,71.989 L 44.579,71.989 C 44.231,71.989 43.947,71.706 43.947,71.357 C 43.947,71.212 43.994,71.08 44.073,70.975 L 50.646,62.25 C 51.044,61.725 51.676,61.381 52.388,61.381 L 55.212,61.381 C 55.562,61.381 55.846,61.666 55.846,62.015 C 55.846,62.157 55.799,62.29 55.718,62.396 L 55.718,62.396 L 55.718,62.396 z M 166.511,57.565 L 150.485,57.563 C 147.74,57.563 145.306,58.877 143.769,60.914 L 135.495,71.896 C 135.186,72.302 135.004,72.813 135.004,73.365 C 135.004,74.713 136.096,75.807 137.446,75.807 L 153.471,75.807 C 156.213,75.807 158.654,74.494 160.188,72.459 L 162.178,69.817 L 164.491,69.817 L 167.386,65.976 L 155.11,65.976 L 151.234,71.118 C 150.837,71.646 150.203,71.987 149.493,71.987 L 146.67,71.987 C 146.316,71.987 146.033,71.704 146.033,71.353 C 146.033,71.21 146.081,71.078 146.161,70.971 L 152.736,62.247 C 153.132,61.718 153.762,61.379 154.476,61.379 L 157.301,61.379 C 157.653,61.379 157.933,61.664 157.933,62.013 C 157.933,62.156 157.885,62.288 157.808,62.394 L 156.739,63.812 L 166.703,63.812 L 168.462,61.474 C 168.772,61.067 168.952,60.557 168.952,60.006 C 168.952,58.659 167.857,57.565 166.511,57.565 L 166.511,57.565 L 166.511,57.565 z M 133.904,57.565 L 126.937,66.81 L 124.798,57.565 L 117.004,57.565 L 103.257,75.807 L 109.856,75.807 L 116.761,66.643 L 118.879,75.807 L 126.758,75.807 L 140.503,57.565 L 133.904,57.565 L 133.904,57.565 L 133.904,57.565 z M 100.683,57.565 L 86.937,75.808 L 96.91,75.808 L 110.654,57.565 L 100.683,57.565 L 100.683,57.565 L 100.683,57.565 z "
   id="path9"
   style="fill:#0066b3;fill-rule:evenodd" />
</g></svg>