<?xml version="1.0" encoding="UTF-8" ?>
<!DOCTYPE svg PUBLIC "-//W3C//DTD SVG 1.1//EN" "http://www.w3.org/Graphics/SVG/1.1/DTD/svg11.dtd">
<svg width="595.843591724" height="167.829278336" viewBox="0 0 600 169" version="1.1" xmlns="http://www.w3.org/2000/svg">
<g id="#8c8d8aff">
</g>
<g id="#050806ff">
<path fill="#050806" opacity="1.00" d=" M 531.65 21.13 C 534.64 18.80 537.54 16.35 540.51 13.98 C 539.11 17.42 536.83 20.35 534.64 23.30 C 533.64 22.57 532.64 21.85 531.65 21.13 Z" />
<path fill="#050806" opacity="1.00" d=" M 507.09 46.26 C 514.59 37.77 522.42 29.52 530.92 22.02 C 531.86 22.94 532.81 23.86 533.76 24.78 C 526.38 33.22 519.29 41.98 511.07 49.65 C 509.76 48.50 508.43 47.37 507.09 46.26 Z" />
<path fill="#050806" opacity="1.00" d=" M 435.22 81.48 C 437.01 81.98 438.82 82.57 440.32 83.71 C 445.91 87.64 451.83 91.08 457.99 94.03 C 459.35 94.83 460.93 94.82 462.46 94.68 C 462.48 94.98 462.54 95.56 462.56 95.85 C 475.69 102.65 490.61 104.71 505.06 106.88 C 530.96 109.81 557.08 109.54 583.02 111.96 C 585.53 112.27 588.20 112.53 590.27 114.14 C 575.51 114.42 560.74 114.26 545.98 114.69 C 521.60 115.72 497.15 115.58 472.83 117.85 C 468.72 118.19 464.61 118.52 460.50 118.72 C 466.62 115.49 473.54 113.97 479.44 110.32 C 471.93 110.03 464.33 109.93 456.91 111.27 C 455.46 109.25 454.02 107.23 452.54 105.23 C 452.14 104.70 451.75 104.17 451.36 103.64 C 445.97 96.25 440.38 89.02 435.22 81.48 Z" />
<path fill="#050806" opacity="1.00" d=" M 17.29 107.35 C 20.26 99.48 22.49 91.34 25.79 83.58 C 31.28 83.77 36.78 83.74 42.27 83.78 C 42.94 87.95 43.96 92.06 44.94 96.17 C 48.33 92.20 51.87 88.35 55.25 84.37 C 60.73 84.24 66.23 84.23 71.71 84.40 C 69.04 92.08 66.27 99.74 63.99 107.55 C 59.76 107.65 55.53 107.61 51.31 107.55 C 53.33 102.34 55.35 97.12 57.03 91.79 C 52.19 96.78 47.69 102.10 43.27 107.47 C 40.37 107.45 37.47 107.45 34.57 107.47 C 33.23 101.96 31.99 96.42 30.99 90.84 C 28.46 96.10 26.85 101.73 25.25 107.33 C 22.59 107.29 19.94 107.32 17.29 107.35 Z" />
<path fill="#050806" opacity="1.00" d=" M 73.67 93.60 C 77.51 87.90 84.50 85.33 91.07 84.59 C 96.89 84.27 103.29 84.25 108.37 87.50 C 110.75 88.91 111.59 91.63 112.30 94.13 C 108.47 94.17 104.65 94.16 100.82 94.14 C 100.11 91.86 98.80 89.33 96.06 89.29 C 89.58 88.43 84.98 95.87 86.52 101.68 C 88.82 104.46 93.38 104.20 95.95 101.91 C 99.81 98.15 105.61 100.36 110.38 100.40 C 103.44 108.68 91.47 110.06 81.50 107.72 C 78.00 106.94 75.04 104.80 72.43 102.43 C 72.44 99.48 71.72 96.12 73.67 93.60 Z" />
<path fill="#050806" opacity="1.00" d=" M 120.03 85.27 C 127.35 85.43 134.67 85.51 141.98 85.65 C 145.84 85.75 150.12 86.22 153.03 89.02 C 156.44 92.73 155.60 98.77 152.24 102.22 C 148.31 106.32 142.72 108.88 137.01 108.84 C 128.78 108.92 120.56 108.60 112.33 108.52 C 115.07 100.83 117.73 93.10 120.03 85.27 M 131.04 91.22 C 129.92 95.35 128.44 99.36 127.19 103.45 C 131.20 103.34 136.09 104.49 139.15 101.16 C 141.54 98.80 143.19 94.17 140.27 91.58 C 137.27 90.74 134.11 91.19 131.04 91.22 Z" />
<path fill="#050806" opacity="1.00" d=" M 176.46 85.75 C 182.13 85.17 188.07 85.35 193.41 87.55 C 196.78 88.98 199.93 92.09 199.88 95.98 C 199.99 100.37 196.72 104.05 193.11 106.13 C 185.91 110.30 177.11 110.92 169.06 109.37 C 164.87 108.56 160.38 106.64 158.39 102.61 C 156.72 99.26 158.46 95.37 160.76 92.79 C 164.79 88.44 170.75 86.55 176.46 85.75 M 172.68 104.27 C 175.83 105.00 179.71 105.90 182.28 103.31 C 184.95 100.50 186.84 96.24 185.41 92.39 C 184.04 90.94 181.88 90.57 179.98 90.82 C 173.76 91.15 170.17 98.94 172.68 104.27 Z" />
<path fill="#050806" opacity="1.00" d=" M 208.71 86.57 C 213.39 86.66 218.07 86.72 222.76 86.75 C 225.56 91.09 228.40 95.44 231.76 99.38 C 233.17 95.22 234.50 91.02 235.84 86.83 C 238.48 86.88 241.12 86.90 243.76 86.92 C 241.17 94.74 238.71 102.59 236.17 110.41 C 231.79 110.33 227.41 110.30 223.03 110.24 C 219.81 105.53 216.55 100.86 213.24 96.22 C 211.71 100.75 210.12 105.28 208.76 109.87 C 206.18 109.94 203.60 109.94 201.03 109.89 C 203.63 102.13 206.20 94.36 208.71 86.57 Z" />
<path fill="#050806" opacity="1.00" d=" M 251.94 87.17 C 256.41 87.15 260.89 87.17 265.36 87.34 C 268.36 91.96 271.60 96.41 274.75 100.93 C 276.39 96.52 277.76 92.03 279.16 87.55 C 281.62 87.53 284.07 87.53 286.54 87.55 C 284.14 95.32 281.47 103.02 279.24 110.85 C 274.91 110.78 270.54 111.12 266.23 110.61 C 262.51 106.33 259.74 101.31 256.25 96.85 C 254.75 101.37 253.24 105.90 251.89 110.48 C 249.40 110.48 246.91 110.48 244.42 110.47 C 247.02 102.74 249.48 94.95 251.94 87.17 Z" />
<path fill="#050806" opacity="1.00" d=" M 294.92 87.80 C 305.66 87.79 316.40 88.23 327.14 88.17 C 326.78 89.92 326.40 91.67 326.04 93.43 C 319.42 93.53 312.79 92.87 306.18 93.36 C 305.63 94.50 305.23 95.69 304.80 96.87 C 310.17 97.19 315.56 97.02 320.95 97.21 C 320.48 98.79 320.02 100.36 319.57 101.95 C 314.23 101.89 308.90 101.87 303.57 101.74 C 303.04 103.11 302.53 104.48 302.03 105.85 C 308.69 105.97 315.36 106.09 322.03 106.14 C 321.48 107.92 320.94 109.70 320.40 111.47 C 309.48 111.24 298.55 111.14 287.62 111.12 C 289.99 103.33 292.55 95.59 294.92 87.80 Z" />
<path fill="#050806" opacity="1.00" d=" M 334.75 88.32 C 339.00 88.35 343.25 88.40 347.51 88.44 C 345.71 94.41 343.70 100.33 342.19 106.38 C 348.47 106.51 354.76 106.58 361.05 106.59 C 360.54 108.36 360.04 110.12 359.55 111.89 C 348.96 111.90 338.38 111.67 327.79 111.60 C 329.74 103.74 332.53 96.11 334.75 88.32 Z" />
<path fill="#050806" opacity="1.00" d=" M 363.60 111.93 C 366.10 104.21 368.14 96.35 370.57 88.61 C 374.96 88.73 379.35 88.82 383.74 88.84 C 381.98 94.80 380.10 100.72 378.43 106.71 C 384.83 106.98 391.24 107.03 397.65 107.06 C 397.17 108.85 396.69 110.64 396.23 112.44 C 385.35 112.27 374.48 111.95 363.60 111.93 Z" />
<path fill="#050806" opacity="1.00" d=" M 38.09 146.48 C 40.31 138.44 43.25 130.62 45.73 122.65 C 54.45 123.66 63.26 123.12 72.00 123.86 C 77.68 124.51 82.23 130.36 80.29 136.04 C 77.08 144.33 67.32 147.73 59.04 147.23 C 52.08 146.56 45.08 146.51 38.09 146.48 M 56.74 129.22 C 55.54 133.26 54.02 137.19 52.92 141.25 C 56.30 141.23 59.87 141.51 63.02 140.03 C 66.01 138.46 67.55 135.13 67.72 131.86 C 66.98 131.08 66.24 130.29 65.50 129.50 C 62.58 129.28 59.66 129.21 56.74 129.22 Z" />
<path fill="#050806" opacity="1.00" d=" M 92.30 126.38 C 100.72 123.11 110.51 122.60 118.98 125.97 C 122.49 127.23 124.39 130.56 125.45 133.93 C 124.74 138.85 121.67 143.17 117.10 145.19 C 109.02 149.04 99.18 149.62 90.77 146.46 C 87.17 145.10 83.00 142.40 83.23 138.02 C 82.79 132.52 87.60 128.26 92.30 126.38 M 97.70 142.39 C 100.22 142.86 103.01 143.88 105.41 142.42 C 109.53 139.86 112.35 134.40 110.39 129.66 C 108.60 129.28 106.83 128.45 104.97 128.68 C 99.08 129.66 95.12 136.96 97.70 142.39 Z" />
<path fill="#050806" opacity="1.00" d=" M 128.52 144.06 C 128.71 137.29 132.21 131.26 133.89 124.80 C 138.27 124.86 142.65 125.04 147.03 125.25 C 145.32 130.90 142.54 136.34 142.20 142.31 C 146.08 143.92 150.33 143.90 154.18 142.19 C 156.51 136.73 158.16 131.00 160.03 125.37 C 163.07 125.41 166.10 125.44 169.13 125.48 C 167.45 130.92 165.70 136.34 163.84 141.72 C 163.03 144.44 160.86 146.57 158.19 147.47 C 151.44 149.95 144.00 149.57 137.04 148.31 C 133.80 147.85 131.08 145.97 128.52 144.06 Z" />
<path fill="#050806" opacity="1.00" d=" M 174.44 131.45 C 181.47 125.49 191.37 124.65 200.16 125.88 C 204.79 126.63 210.26 128.32 212.01 133.19 C 207.80 133.22 203.59 133.22 199.39 132.99 C 197.80 131.82 196.20 130.16 194.05 130.34 C 187.53 130.47 182.88 138.47 185.68 144.26 C 187.48 144.62 189.26 145.18 191.11 145.17 C 193.83 144.94 195.93 143.04 197.96 141.43 C 195.63 141.15 193.30 140.94 190.96 140.73 C 191.44 139.24 191.92 137.76 192.40 136.27 C 198.66 136.41 204.92 136.58 211.18 136.56 C 210.13 141.00 208.58 145.30 207.26 149.66 C 204.64 149.90 202.14 149.48 200.03 147.84 C 195.34 148.55 190.91 150.85 186.05 150.54 C 180.55 150.35 174.22 148.73 171.11 143.77 C 168.85 139.57 170.98 134.30 174.44 131.45 Z" />
<path fill="#050806" opacity="1.00" d=" M 221.76 126.30 C 226.22 126.33 230.67 126.41 235.12 126.48 C 233.28 132.49 231.29 138.45 229.31 144.42 C 235.41 144.51 241.52 144.61 247.62 144.66 C 246.56 146.42 246.92 150.33 244.09 150.14 C 234.08 150.14 224.08 149.76 214.07 149.73 C 216.63 141.92 219.34 134.16 221.76 126.30 Z" />
<path fill="#050806" opacity="1.00" d=" M 247.32 150.23 C 254.78 142.43 262.30 134.69 269.64 126.77 C 274.51 126.94 279.38 126.84 284.24 127.21 C 286.30 135.03 288.42 142.84 290.78 150.58 C 286.07 150.48 281.36 150.49 276.66 150.46 C 276.43 149.09 276.20 147.71 275.98 146.33 C 270.98 146.31 265.97 145.88 260.98 146.23 C 259.42 147.35 258.23 148.88 256.93 150.27 C 253.73 150.29 250.52 150.24 247.32 150.23 M 264.80 141.38 C 268.11 141.42 271.42 141.46 274.73 141.50 C 274.08 138.55 273.44 135.61 272.75 132.67 C 270.00 135.48 267.46 138.48 264.80 141.38 Z" />
<path fill="#050806" opacity="1.00" d=" M 304.41 127.62 C 311.82 126.26 319.73 125.99 326.95 128.41 C 329.30 129.10 330.77 131.14 331.97 133.14 C 327.95 133.18 323.94 133.19 319.93 133.03 C 317.02 130.19 312.91 131.08 309.38 131.94 C 310.12 132.93 310.47 134.61 312.01 134.60 C 317.52 135.88 324.19 134.33 328.78 138.32 C 331.83 141.11 329.54 145.66 326.57 147.48 C 320.11 151.44 312.16 151.84 304.80 151.28 C 299.91 150.68 293.88 149.71 291.70 144.62 C 295.86 144.56 300.02 144.62 304.18 144.80 C 307.36 147.02 311.55 147.49 315.18 146.22 C 315.54 145.65 316.25 144.52 316.60 143.95 C 311.64 142.34 306.35 142.67 301.32 141.47 C 298.35 140.71 294.79 138.56 295.15 135.02 C 295.35 130.31 300.58 128.58 304.41 127.62 Z" />
</g>
<g id="#122e6dff">
<path fill="#122e6d" opacity="1.00" d=" M 396.27 47.26 C 412.81 36.82 434.57 35.50 452.40 43.43 C 465.58 49.07 477.54 59.34 482.93 72.86 C 483.18 73.42 483.67 74.54 483.91 75.10 C 487.86 83.27 488.72 92.76 487.51 101.67 C 485.50 101.18 483.50 100.68 481.49 100.19 C 482.09 93.28 481.70 86.27 479.64 79.62 C 473.61 84.67 468.48 90.67 462.56 95.85 C 462.54 95.56 462.48 94.98 462.46 94.68 C 462.23 93.52 463.58 92.93 464.17 92.13 C 469.31 87.41 474.45 82.65 478.89 77.26 C 474.58 67.03 467.13 58.18 457.60 52.45 C 444.06 43.81 426.65 41.80 411.37 46.55 C 395.13 51.57 381.66 65.61 378.87 82.60 C 376.72 82.54 374.57 82.47 372.43 82.39 C 375.03 67.99 383.87 55.00 396.27 47.26 Z" />
<path fill="#122e6d" opacity="1.00" d=" M 379.54 117.16 C 381.90 117.16 384.27 117.19 386.65 117.24 C 392.03 125.28 399.91 131.06 408.31 135.61 C 409.36 136.05 410.44 136.43 411.53 136.77 C 417.89 138.46 424.28 140.45 430.93 140.41 C 446.39 140.78 462.17 134.21 471.85 121.96 C 473.94 118.64 478.28 119.73 481.58 119.21 C 476.09 127.66 468.76 135.03 459.71 139.61 C 443.44 148.07 423.15 148.43 406.65 140.43 C 405.73 139.99 404.80 139.58 403.88 139.17 C 393.56 134.92 385.32 126.55 379.54 117.16 Z" />
</g>
<g id="#60141fff">
<path fill="#60141f" opacity="1.00" d=" M 497.74 55.77 C 500.09 52.46 503.21 49.14 507.58 49.07 C 507.55 50.53 507.52 51.98 507.50 53.44 C 503.37 57.73 498.13 60.71 493.99 64.98 C 490.65 68.37 487.25 71.71 483.91 75.10 C 483.67 74.54 483.18 73.42 482.93 72.86 C 488.43 67.69 493.43 61.97 497.74 55.77 Z" />
<path fill="#60141f" opacity="1.00" d=" M 411.41 134.64 C 425.76 125.74 438.84 114.94 451.36 103.64 C 451.75 104.17 452.14 104.70 452.54 105.23 C 439.34 116.33 426.14 127.54 411.53 136.77 C 410.44 136.43 409.36 136.05 408.31 135.61 C 409.38 135.40 410.41 135.07 411.41 134.64 Z" />
<path fill="#60141f" opacity="1.00" d=" M 352.95 134.97 C 354.23 128.91 356.42 122.92 360.02 117.85 C 357.65 124.68 353.61 131.35 354.36 138.85 C 354.82 145.31 360.73 150.35 367.05 150.69 C 380.25 151.80 392.89 145.90 403.88 139.17 C 404.80 139.58 405.73 139.99 406.65 140.43 C 397.68 144.36 389.19 149.63 379.46 151.57 C 372.77 152.95 365.08 153.77 359.06 149.90 C 354.27 146.71 351.69 140.61 352.95 134.97 Z" />
</g>
</svg>
